<?xml version="1.0" encoding="utf-8"?>
<!-- Generator: Adobe Illustrator 24.0.0, SVG Export Plug-In . SVG Version: 6.00 Build 0)  -->
<svg version="1.1" id="Layer_1" xmlns="http://www.w3.org/2000/svg" xmlns:xlink="http://www.w3.org/1999/xlink" x="0px" y="0px"
	 viewBox="0 0 1391.78 220.89" style="enable-background:new 0 0 1391.78 220.89;" xml:space="preserve">
<style type="text/css">
	.st0{font-family:'Roboto-Bold';}
	.st1{font-size:16px;}
	.st2{fill:#FFFFFF;}
	.st3{fill:none;stroke:#000000;stroke-width:1.5;}
	.st4{fill:#AE70F0;}
	.st5{fill:#AD74ED;}
	.st6{stroke:#000000;stroke-width:0.8;}
	.st7{fill:none;stroke:#000000;}
	.st8{fill:#1A171B;}
</style>
<text transform="matrix(1 0 0 1 466.9977 58.0117)" class="st0 st1">MOODBOARD</text>
<text transform="matrix(1 0 0 1 60.9977 59.0117)" class="st0 st1">RESEARCH</text>
<text transform="matrix(1 0 0 1 268.9977 58.0117)" class="st0 st1">WIREFRAME</text>
<text transform="matrix(1 0 0 1 675.9977 58.0117)" class="st0 st1">MOCKUP</text>
<text transform="matrix(1 0 0 1 845.9977 58.0117)" class="st0 st1">DEVELOPMENT</text>
<text transform="matrix(1 0 0 1 1068.9977 59.0117)" class="st0 st1">TESTING</text>
<text transform="matrix(1 0 0 1 1255.9977 59.0117)" class="st0 st1">LAUNCH</text>
<g id="Ellipse_6" transform="translate(0 32)">
	<ellipse class="st2" cx="101" cy="92.51" rx="50" ry="49.5"/>
	<ellipse class="st3" cx="101" cy="92.51" rx="49.25" ry="48.75"/>
</g>
<g id="Ellipse_7" transform="translate(214 33)">
	<ellipse class="st2" cx="101" cy="92.51" rx="50" ry="49.5"/>
	<ellipse class="st3" cx="101" cy="92.51" rx="49.25" ry="48.75"/>
</g>
<g id="Ellipse_8" transform="translate(415 33)">
	<ellipse class="st2" cx="101" cy="92.51" rx="50" ry="49.5"/>
	<ellipse class="st3" cx="101" cy="92.51" rx="49.25" ry="48.75"/>
</g>
<g id="Ellipse_9" transform="translate(609 33)">
	<circle class="st2" cx="100.5" cy="92.51" r="49.5"/>
	<circle class="st3" cx="100.5" cy="92.51" r="48.75"/>
</g>
<g id="Ellipse_10" transform="translate(802 33)">
	<circle class="st2" cx="100.5" cy="92.51" r="49.5"/>
	<circle class="st3" cx="100.5" cy="92.51" r="48.75"/>
</g>
<g id="Ellipse_11" transform="translate(1001 33)">
	<circle class="st2" cx="100.5" cy="92.51" r="49.5"/>
	<circle class="st3" cx="100.5" cy="92.51" r="48.75"/>
</g>
<g id="Ellipse_12" transform="translate(1187 34)">
	<ellipse class="st2" cx="101" cy="92.51" rx="50" ry="49.5"/>
	<ellipse class="st3" cx="101" cy="92.51" rx="49.25" ry="48.75"/>
</g>
<path id="Polygon_1" class="st4" d="M215.2,124.47c0.48,0.27,0.65,0.88,0.38,1.36c-0.09,0.16-0.22,0.29-0.38,0.38l-16.91,9.61
	c-0.48,0.27-1.09,0.1-1.36-0.38c-0.09-0.15-0.13-0.32-0.13-0.49v-19.21c0-0.55,0.45-1,1-1c0.17,0,0.34,0.05,0.49,0.13L215.2,124.47z
	"/>
<path id="Polygon_7" class="st5" d="M423.2,124.47c0.48,0.27,0.65,0.88,0.38,1.36c-0.09,0.16-0.22,0.29-0.38,0.38l-16.91,9.61
	c-0.48,0.27-1.09,0.1-1.36-0.38c-0.09-0.15-0.13-0.32-0.13-0.49v-19.21c0-0.55,0.45-1,1-1c0.17,0,0.34,0.05,0.49,0.13L423.2,124.47z
	"/>
<path id="Polygon_8" class="st5" d="M620.2,124.47c0.48,0.27,0.65,0.88,0.38,1.36c-0.09,0.16-0.22,0.29-0.38,0.38l-16.91,9.61
	c-0.48,0.27-1.09,0.1-1.36-0.38c-0.09-0.15-0.13-0.32-0.13-0.49v-19.21c0-0.55,0.45-1,1-1c0.17,0,0.34,0.05,0.49,0.13L620.2,124.47z
	"/>
<path id="Polygon_9" class="st5" d="M818.2,125.47c0.48,0.27,0.65,0.88,0.38,1.36c-0.09,0.16-0.22,0.29-0.38,0.38l-16.91,9.61
	c-0.48,0.27-1.09,0.1-1.36-0.38c-0.09-0.15-0.13-0.32-0.13-0.49v-19.21c0-0.55,0.45-1,1-1c0.17,0,0.34,0.05,0.49,0.13L818.2,125.47z
	"/>
<path id="Polygon_10" class="st5" d="M1015.2,126.47c0.48,0.27,0.65,0.88,0.38,1.36c-0.09,0.16-0.22,0.29-0.38,0.38l-16.91,9.61
	c-0.48,0.27-1.09,0.1-1.36-0.38c-0.09-0.15-0.13-0.32-0.13-0.49v-19.21c0-0.55,0.45-1,1-1c0.17,0,0.34,0.05,0.49,0.13L1015.2,126.47
	z"/>
<path id="Polygon_11" class="st5" d="M1210.2,126.47c0.48,0.27,0.65,0.88,0.38,1.36c-0.09,0.16-0.22,0.29-0.38,0.38l-16.91,9.61
	c-0.48,0.27-1.09,0.1-1.36-0.38c-0.09-0.15-0.13-0.32-0.13-0.49v-19.21c0-0.55,0.45-1,1-1c0.17,0,0.34,0.05,0.49,0.13L1210.2,126.47
	z"/>
<g id="XMLID_1_" transform="translate(26 53.001)">
	<g id="XMLID_14_" transform="translate(7.678 0)">
		<path id="Path_2904" class="st6" d="M88.11,89.81H51.5c-0.28,0-0.5-0.22-0.5-0.5v-45.8c0-0.28,0.22-0.5,0.5-0.5h27.29
			c0.13,0,0.26,0.05,0.36,0.14l9.31,9.32c0.09,0.09,0.14,0.22,0.14,0.35V66.3c0,0.09-0.02,0.17-0.07,0.25l-3.19,5.54l-0.76,7.07
			l3.23-2.36c0.15-0.11,0.35-0.13,0.52-0.04c0.17,0.09,0.27,0.26,0.27,0.44v12.1c0.01,0.27-0.2,0.5-0.48,0.51
			C88.12,89.81,88.11,89.81,88.11,89.81z M52,88.81H87.6V78.19l-3.35,2.45c-0.16,0.12-0.37,0.13-0.54,0.03
			c-0.17-0.1-0.27-0.29-0.25-0.49l0.54-4.98l0.36-3.32c0.01-0.07,0.03-0.14,0.06-0.2l3.18-5.51V53.03l-9.02-9.02H52V88.81z"/>
	</g>
	<g id="XMLID_13_" transform="translate(13.011 15.506)">
		<path id="Path_2905" class="st6" d="M75.43,44.01H51.5c-0.28,0-0.5-0.22-0.5-0.5s0.22-0.5,0.5-0.5h23.93c0.28,0,0.5,0.22,0.5,0.5
			c0,0.27-0.21,0.5-0.49,0.5C75.44,44.01,75.43,44.01,75.43,44.01z"/>
	</g>
	<g id="XMLID_12_" transform="translate(13.011 22.903)">
		<path id="Path_2906" class="st6" d="M75.43,44.01H51.5c-0.28,0-0.5-0.22-0.5-0.5s0.22-0.5,0.5-0.5h23.93c0.28,0,0.5,0.22,0.5,0.5
			S75.7,44.01,75.43,44.01z"/>
	</g>
	<g id="XMLID_11_" transform="translate(13.011 30.294)">
		<path id="Path_2907" class="st6" d="M75.43,44.01H51.5c-0.28,0-0.5-0.22-0.5-0.5s0.22-0.5,0.5-0.5h23.93c0.28,0,0.5,0.22,0.5,0.5
			S75.7,44.01,75.43,44.01z"/>
	</g>
	<g id="XMLID_10_" transform="translate(13.011 37.685)">
		<path id="Path_2908" class="st6" d="M75.43,44.01H51.5c-0.28,0-0.5-0.22-0.5-0.5s0.22-0.5,0.5-0.5h23.93c0.28,0,0.5,0.22,0.5,0.5
			c0,0.27-0.21,0.5-0.49,0.5C75.44,44.01,75.43,44.01,75.43,44.01z"/>
	</g>
	<g id="XMLID_9_" transform="translate(34.971 -0.001)">
		<path id="Path_2909" class="st6" d="M60.82,53.49H51.5c-0.28,0-0.5-0.22-0.5-0.5v-9.48c0-0.2,0.12-0.38,0.31-0.46
			c0.19-0.08,0.4-0.04,0.55,0.1l9.31,9.32c0.09,0.09,0.14,0.22,0.14,0.35v0.16C61.31,53.26,61.09,53.49,60.82,53.49z M52,52.49h7.77
			L52,44.71V52.49z"/>
	</g>
	<g id="XMLID_8_" transform="translate(0 5.852)">
		<path id="Path_2910" class="st6" d="M88.11,89.81H51.5c-0.28,0-0.5-0.22-0.5-0.5v-45.8c0-0.28,0.22-0.5,0.5-0.5h7.68
			c0.28,0,0.5,0.22,0.5,0.5v39.45H88.1c0.28,0,0.5,0.22,0.5,0.5v5.85C88.6,89.58,88.38,89.8,88.11,89.81z M52,88.81h35.61v-4.85
			H59.17c-0.28,0-0.5-0.22-0.5-0.5V44.01H52V88.81z"/>
	</g>
	<g id="XMLID_7_" transform="translate(13.018 9.776)">
		<path id="Path_2911" class="st6" d="M65.06,44.01H51.5c-0.28,0-0.5-0.22-0.5-0.5s0.22-0.5,0.5-0.5h13.56c0.28,0,0.5,0.22,0.5,0.5
			S65.33,44.01,65.06,44.01z"/>
	</g>
	<g id="XMLID_6_" transform="translate(13.018 4.04)">
		<path id="Path_2912" class="st6" d="M65.06,44.01H51.5c-0.28,0-0.5-0.22-0.5-0.5s0.22-0.5,0.5-0.5h13.56c0.28,0,0.5,0.22,0.5,0.5
			S65.33,44.01,65.06,44.01z"/>
	</g>
	<g id="XMLID_5_" transform="translate(40.151 6.087)">
		<path id="Path_2913" class="st6" d="M51.49,74.65c-0.09,0-0.17-0.02-0.25-0.07c-0.17-0.1-0.27-0.29-0.25-0.49l0.9-8.3
			c0.01-0.07,0.03-0.14,0.06-0.2l12.88-22.33c0.07-0.11,0.17-0.2,0.3-0.23c0.13-0.04,0.27-0.02,0.38,0.05l5.84,3.38
			c0.24,0.14,0.32,0.44,0.18,0.68L58.66,69.47c-0.03,0.06-0.08,0.11-0.14,0.15l-6.73,4.92C51.7,74.61,51.6,74.65,51.49,74.65z
			 M52.87,66.01l-0.76,7.07l5.74-4.19l12.58-21.82l-4.98-2.88L52.87,66.01z"/>
	</g>
	<g id="XMLID_4_" transform="translate(52.168 6.085)">
		<path id="Path_2914" class="st6" d="M57.33,50.44c-0.09,0-0.17-0.02-0.25-0.07L51.25,47c-0.24-0.14-0.32-0.44-0.19-0.68
			c0,0,0,0,0,0l1.76-3.06c0.07-0.11,0.17-0.2,0.3-0.23c0.13-0.03,0.26-0.01,0.38,0.06l5.84,3.38c0.24,0.14,0.32,0.44,0.19,0.68
			c0,0,0,0,0,0l-1.76,3.06c-0.07,0.11-0.17,0.2-0.3,0.23C57.42,50.44,57.38,50.44,57.33,50.44z M52.17,46.39l4.98,2.88l1.26-2.19
			l-4.98-2.88L52.17,46.39z"/>
	</g>
	<g id="XMLID_3_" transform="translate(40.151 28.428)">
		<path id="Path_2915" class="st6" d="M51.49,52.31c-0.09,0-0.17-0.02-0.25-0.07c-0.17-0.1-0.27-0.29-0.25-0.49l0.9-8.3
			c0.02-0.17,0.12-0.31,0.27-0.39c0.15-0.08,0.33-0.07,0.47,0.01l5.83,3.38c0.14,0.08,0.24,0.23,0.25,0.4
			c0.01,0.17-0.07,0.33-0.21,0.43l-6.73,4.92C51.7,52.27,51.6,52.31,51.49,52.31z M52.8,44.32l-0.69,6.41l5.21-3.81L52.8,44.32z"/>
	</g>
	<g id="XMLID_2_" transform="translate(40.151 31.75)">
		<path id="Path_2916" class="st6" d="M51.49,48.99c-0.09,0-0.17-0.02-0.25-0.07c-0.17-0.1-0.27-0.29-0.25-0.49l0.54-4.98
			c0.03-0.27,0.28-0.47,0.55-0.44c0.05,0.01,0.1,0.02,0.15,0.04c0.64,0.28,1.26,0.59,1.86,0.94c0.6,0.35,1.18,0.73,1.74,1.14
			c0.13,0.09,0.2,0.24,0.2,0.4c0,0.16-0.08,0.31-0.21,0.4L51.8,48.9C51.71,48.95,51.6,48.99,51.49,48.99z M52.45,44.25l-0.34,3.17
			l2.57-1.88c-0.35-0.24-0.72-0.47-1.09-0.68S52.83,44.43,52.45,44.25z"/>
	</g>
</g>
<g id="XMLID_1_2" transform="translate(438 60)">
	<g id="XMLID_11_2">
		<path id="Path_2917" class="st6" d="M105.58,87.37H51.45c-0.25,0-0.45-0.2-0.45-0.45V43.46c0-0.25,0.2-0.45,0.45-0.45h54.13
			c0.25,0,0.45,0.2,0.45,0.45v43.46C106.03,87.17,105.83,87.37,105.58,87.37z M51.9,86.47h53.23V43.91H51.9V86.47z"/>
	</g>
	<g id="Rectangle_70" transform="translate(5 9)">
		<path class="st2" d="M52,43.01h22c0.55,0,1,0.45,1,1v24c0,0.55-0.45,1-1,1H52c-0.55,0-1-0.45-1-1v-24
			C51,43.46,51.45,43.01,52,43.01z"/>
		<path class="st7" d="M52,43.51h22c0.28,0,0.5,0.22,0.5,0.5v24c0,0.28-0.22,0.5-0.5,0.5H52c-0.28,0-0.5-0.22-0.5-0.5v-24
			C51.5,43.74,51.72,43.51,52,43.51z"/>
	</g>
	<g id="Rectangle_71" transform="translate(31 9)">
		<path class="st2" d="M52,43.01h16c0.55,0,1,0.45,1,1v13c0,0.55-0.45,1-1,1H52c-0.55,0-1-0.45-1-1v-13
			C51,43.46,51.45,43.01,52,43.01z"/>
		<path class="st7" d="M52,43.51h16c0.28,0,0.5,0.22,0.5,0.5v13c0,0.28-0.22,0.5-0.5,0.5H52c-0.28,0-0.5-0.22-0.5-0.5v-13
			C51.5,43.74,51.72,43.51,52,43.51z"/>
	</g>
	<g id="Rectangle_72" transform="translate(31 26)">
		<path class="st2" d="M52,43.01h6c0.55,0,1,0.45,1,1v7c0,0.55-0.45,1-1,1h-6c-0.55,0-1-0.45-1-1v-7C51,43.46,51.45,43.01,52,43.01z
			"/>
		<path class="st7" d="M52,43.51h6c0.28,0,0.5,0.22,0.5,0.5v7c0,0.28-0.22,0.5-0.5,0.5h-6c-0.28,0-0.5-0.22-0.5-0.5v-7
			C51.5,43.74,51.72,43.51,52,43.51z"/>
	</g>
	<g id="Rectangle_73" transform="translate(41 26)">
		<path class="st2" d="M52,43.01h6c0.55,0,1,0.45,1,1v7c0,0.55-0.45,1-1,1h-6c-0.55,0-1-0.45-1-1v-7C51,43.46,51.45,43.01,52,43.01z
			"/>
		<path class="st7" d="M52,43.51h6c0.28,0,0.5,0.22,0.5,0.5v7c0,0.28-0.22,0.5-0.5,0.5h-6c-0.28,0-0.5-0.22-0.5-0.5v-7
			C51.5,43.74,51.72,43.51,52,43.51z"/>
	</g>
</g>
<g id="Group_232" transform="translate(238 52.99)">
	<g id="Group_220" transform="translate(0 0.01)">
		<path id="Path_2927" class="st8" d="M102.63,43.26L102.63,43.26c0-0.13-0.1-0.24-0.24-0.25c0,0-0.01,0-0.01,0H51.24L51,43.26l0,0
			v12.11l0,0c0,0.13,0.1,0.24,0.24,0.25c0,0,0.01,0,0.01,0h50.89l0.25-0.25l0,0V43.5C102.52,43.5,102.63,43.4,102.63,43.26
			C102.63,43.26,102.63,43.26,102.63,43.26z M73.23,49.43l-20.51,4.69v-9.63L73.23,49.43z M76.94,50.18l17.79,4.2H58.9L76.94,50.18z
			 M80.4,49.43l20.75-4.69v9.64L80.4,49.43z M76.94,48.45L58.9,44.49h35.82L76.94,48.45z"/>
	</g>
	<g id="Group_221" transform="translate(0.247 28.668)">
		<path id="Path_2928" class="st8" d="M63.84,43.51L63.84,43.51c-0.25-0.25-0.25-0.49-0.49-0.49H51.24c-0.13,0-0.24,0.1-0.25,0.24
			c0,0,0,0.01,0,0.01l0,0v0.25l0,0v12.11l0,0v0.25l0,0c0.13,0,0.24,0.1,0.25,0.24c0,0,0,0.01,0,0.01h12.11
			c0.13,0,0.24-0.1,0.25-0.24c0,0,0-0.01,0-0.01l0,0v-0.25l0,0V43.75c0.13,0,0.24-0.1,0.25-0.24
			C63.84,43.51,63.84,43.51,63.84,43.51z M56.19,49.68l-3.71,3.71v-7.66L56.19,49.68z M57.42,50.67l3.71,3.71h-7.66L57.42,50.67z
			 M58.41,49.68l3.71-3.71v7.66L58.41,49.68z M57.42,48.45l-3.95-3.7h7.66L57.42,48.45z"/>
	</g>
	<g id="Group_222" transform="translate(19.517 28.668)">
		<path id="Path_2929" class="st8" d="M63.84,43.51L63.84,43.51c-0.25-0.25-0.25-0.49-0.49-0.49H51.24c-0.13,0-0.24,0.1-0.25,0.24
			c0,0,0,0.01,0,0.01l0,0v0.25l0,0v0.25l0,0v11.61l0,0v0.25l0,0v0.25l0,0c0.13,0,0.24,0.1,0.25,0.24c0,0,0,0.01,0,0.01h12.11
			c0.13,0,0.24-0.1,0.25-0.24c0,0,0-0.01,0-0.01l0,0l0.25-0.25l0,0C63.84,55.61,63.84,43.51,63.84,43.51z M52.48,45.73l3.71,3.95
			l-3.71,3.71V45.73z M57.42,50.67l3.71,3.95h-7.66L57.42,50.67z M62.36,53.39l-3.95-3.71l3.71-3.71v7.41L62.36,53.39z M57.42,48.45
			l-3.95-3.7h7.66L57.42,48.45z"/>
	</g>
	<g id="Group_223" transform="translate(38.787 28.668)">
		<path id="Path_2930" class="st8" d="M63.84,43.51L63.84,43.51c-0.25-0.25-0.25-0.49-0.49-0.49H51.24c-0.13,0-0.24,0.1-0.25,0.24
			c0,0,0,0.01,0,0.01l0,0v0.25l0,0v12.11l0,0v0.25l0,0c0.13,0,0.24,0.1,0.25,0.24c0,0,0,0.01,0,0.01h12.11
			c0.13,0,0.24-0.1,0.25-0.24c0,0,0-0.01,0-0.01l0,0v-0.25l0,0V43.75c0.13,0,0.24-0.1,0.25-0.24
			C63.84,43.51,63.84,43.51,63.84,43.51z M56.19,49.68l-3.71,3.71v-7.66L56.19,49.68z M57.42,50.67l3.71,3.71h-7.66L57.42,50.67z
			 M58.41,49.68l3.71-3.71v7.66L58.41,49.68z M57.42,48.45l-3.95-3.7h7.66L57.42,48.45z"/>
	</g>
	<g id="Group_224" transform="translate(5.929 17.304)">
		<path id="Path_2931" class="st8" d="M90.28,44.49c0.36,0.05,0.69-0.2,0.74-0.56c0.01-0.06,0.01-0.12,0-0.19
			c0.05-0.36-0.2-0.69-0.56-0.74c-0.06-0.01-0.12-0.01-0.19,0H51.74c-0.36-0.05-0.69,0.2-0.74,0.56c-0.01,0.06-0.01,0.12,0,0.19
			c-0.05,0.36,0.2,0.69,0.56,0.74c0.06,0.01,0.12,0.01,0.19,0H90.28z"/>
	</g>
	<g id="Group_225" transform="translate(15.499 22.986)">
		<path id="Path_2932" class="st8" d="M71.07,43.01H51.8c-0.36-0.05-0.69,0.2-0.74,0.56c-0.01,0.06-0.01,0.12,0,0.19
			c-0.25,0.49,0.25,0.74,0.74,0.74h19.27c0.36,0.05,0.69-0.2,0.74-0.56c0.01-0.06,0.01-0.12,0-0.19
			C71.79,43.35,71.47,43.04,71.07,43.01z"/>
	</g>
	<g id="Group_226" transform="translate(0 45.962)">
		<path id="Path_2933" class="st8" d="M63.35,43.01H51.74c-0.4,0.02-0.72,0.34-0.74,0.74c-0.05,0.36,0.2,0.69,0.56,0.74
			c0.06,0.01,0.12,0.01,0.19,0h11.61c0.36,0.05,0.69-0.2,0.74-0.56c0.01-0.06,0.01-0.12,0-0.19C64.07,43.35,63.75,43.04,63.35,43.01
			z"/>
	</g>
	<g id="Group_227" transform="translate(0 51.891)">
		<path id="Path_2934" class="st8" d="M61.37,43.01h-9.64c-0.36-0.05-0.69,0.2-0.74,0.56c-0.01,0.06-0.01,0.12,0,0.19
			c-0.05,0.36,0.2,0.69,0.56,0.74c0.06,0.01,0.12,0.01,0.19,0h9.64c0.36,0.05,0.69-0.2,0.74-0.56c0.01-0.06,0.01-0.12,0-0.19
			C62.36,43.26,61.87,43.01,61.37,43.01z"/>
	</g>
	<g id="Group_228" transform="translate(19.27 45.962)">
		<path id="Path_2935" class="st8" d="M63.35,43.01H51.74c-0.36-0.05-0.69,0.2-0.74,0.56c-0.01,0.06-0.01,0.12,0,0.19
			c-0.05,0.36,0.2,0.69,0.56,0.74c0.06,0.01,0.12,0.01,0.19,0h11.61c0.36,0.05,0.69-0.2,0.74-0.56c0.01-0.06,0.01-0.12,0-0.19
			C64.07,43.35,63.75,43.04,63.35,43.01z"/>
	</g>
	<g id="Group_229" transform="translate(19.27 51.891)">
		<path id="Path_2936" class="st8" d="M57.67,43.01h-5.93c-0.36-0.05-0.69,0.2-0.74,0.56c-0.01,0.06-0.01,0.12,0,0.19
			c-0.05,0.36,0.2,0.69,0.56,0.74c0.06,0.01,0.12,0.01,0.19,0h5.68c0.36,0.05,0.69-0.2,0.74-0.56c0.01-0.06,0.01-0.12,0-0.19
			C58.41,43.26,58.16,43.01,57.67,43.01z"/>
	</g>
	<g id="Group_230" transform="translate(38.54 45.962)">
		<path id="Path_2937" class="st8" d="M63.35,43.01H51.74c-0.36-0.05-0.69,0.2-0.74,0.56c-0.01,0.06-0.01,0.12,0,0.19
			c0.02,0.4,0.34,0.72,0.74,0.74h11.61c0.36,0.05,0.69-0.2,0.74-0.56c0.01-0.06,0.01-0.12,0-0.19
			C64.07,43.35,63.75,43.04,63.35,43.01z"/>
	</g>
	<g id="Group_231" transform="translate(38.54 51.891)">
		<path id="Path_2938" class="st8" d="M63.35,43.01H51.74c-0.36-0.05-0.69,0.2-0.74,0.56c-0.01,0.06-0.01,0.12,0,0.19
			c0.02,0.4,0.34,0.72,0.74,0.74h11.61c0.36,0.05,0.69-0.2,0.74-0.56c0.01-0.06,0.01-0.12,0-0.19c0.05-0.36-0.2-0.69-0.56-0.74
			C63.47,43,63.41,43,63.35,43.01z"/>
	</g>
</g>
<g id="Group_240" transform="translate(821 51)">
	<g id="Group_233">
		<path id="Path_2939" class="st8" d="M112.21,96.89v-0.28l0,0l-4.8-8.18V61.91c0.05-2.13-1.63-3.9-3.76-3.95c-0.06,0-0.13,0-0.19,0
			h-1.12v-14.1c0-0.56-0.56-0.85-1.13-0.85H61.72c-0.46,0.03-0.82,0.39-0.85,0.85v13.82h-1.13c-2.13-0.05-3.89,1.64-3.94,3.77
			c0,0.06,0,0.12,0,0.18v26.51L51,96.61l0,0v0.28l0,0v2.82c0.04,2.01,1.66,3.63,3.67,3.67h53.88c2.01-0.04,3.63-1.66,3.67-3.67
			V96.89z M62.84,52.6h37.51v29.62H62.84V52.6z M62.84,44.99h37.51v5.93H62.84V44.99z M57.49,61.91c-0.03-1.06,0.82-1.95,1.88-1.97
			c0.03,0,0.06,0,0.09,0h1.41v23.41c-0.06,0.41,0.23,0.79,0.64,0.85c0.07,0.01,0.14,0.01,0.21,0h39.49
			c0.41,0.06,0.79-0.23,0.85-0.64c0.01-0.07,0.01-0.14,0-0.21V59.65h1.41c1.06-0.03,1.95,0.82,1.97,1.88c0,0.03,0,0.06,0,0.09V87.3
			H57.49V61.91z M57.2,89.55H106l3.67,6.77H53.54L57.2,89.55z M110.51,99.71c0.03,1.06-0.82,1.95-1.88,1.97c-0.03,0-0.06,0-0.09,0
			H54.66c-1.06,0.03-1.95-0.82-1.97-1.88c0-0.03,0-0.06,0-0.09v-1.7h57.54v1.7H110.51z"/>
	</g>
	<g id="Group_234" transform="translate(45.414 3.808)">
		<path id="Path_2940" class="st8" d="M51.28,43.43C51.13,43.59,51.03,43.78,51,44c0,0.28,0,0.56,0.28,0.56
			c0.23,0.22,0.54,0.32,0.85,0.28c0.28,0,0.56,0,0.56-0.28c0.28-0.28,0.28-0.28,0.28-0.56c0-0.28,0-0.56-0.28-0.56
			C52.41,42.87,51.84,42.87,51.28,43.43z"/>
	</g>
	<g id="Group_235" transform="translate(41.465 3.949)">
		<path id="Path_2941" class="st8" d="M51.84,43.01c-0.41-0.06-0.79,0.23-0.85,0.64c-0.01,0.07-0.01,0.14,0,0.21
			c0.03,0.46,0.39,0.82,0.85,0.85c0.41,0.06,0.79-0.23,0.85-0.64c0.01-0.07,0.01-0.14,0-0.21C52.66,43.4,52.3,43.04,51.84,43.01z"/>
	</g>
	<g id="Group_236" transform="translate(36.951 3.808)">
		<path id="Path_2942" class="st8" d="M51.28,43.43C51.13,43.59,51.03,43.78,51,44c0,0.28,0,0.56,0.28,0.56
			c0.15,0.16,0.35,0.26,0.56,0.28c0,0,0.56,0,0.56-0.28c0.28-0.29,0.28-0.29,0.28-0.56s0-0.56-0.28-0.56
			C52.41,42.87,51.56,42.87,51.28,43.43z"/>
	</g>
	<g id="Group_237" transform="translate(26.968 16.814)">
		<path id="Path_2943" class="st8" d="M57.6,43.12c-0.56-0.28-1.13,0-1.13,0.56l-5.36,14.67c-0.28,0.56,0,1.13,0.56,1.13h0.28
			c0.28,0,0.85-0.28,0.85-0.56l5.36-14.67C58.44,43.97,58.16,43.4,57.6,43.12z"/>
	</g>
	<g id="Group_238" transform="translate(15.796 19.137)">
		<path id="Path_2944" class="st8" d="M58.61,43.33c-0.34-0.39-0.92-0.43-1.31-0.1c-0.03,0.03-0.07,0.06-0.1,0.1l-5.92,5.08
			C51,48.41,51,48.7,51,48.98c-0.04,0.31,0.07,0.62,0.28,0.85l6.21,5.08h0.56c0.31,0.04,0.62-0.07,0.85-0.28
			c0.29-0.43,0.29-0.98,0-1.41l-5.64-4.23l5.36-4.23C58.9,44.47,59.18,43.62,58.61,43.33z"/>
	</g>
	<g id="Group_239" transform="translate(37.304 19.251)">
		<path id="Path_2945" class="st8" d="M52.62,43.22c-0.43-0.29-0.98-0.29-1.41,0c-0.28,0.43-0.28,0.98,0,1.41l5.36,4.23l-5.08,4.51
			c-0.39,0.34-0.43,0.92-0.1,1.31c0.03,0.03,0.06,0.07,0.1,0.1h0.56c0.28,0,0.28,0,0.56-0.28l6.21-4.8
			c0.22-0.23,0.32-0.54,0.28-0.85c0.04-0.31-0.07-0.62-0.28-0.85L52.62,43.22z"/>
	</g>
</g>
<g id="Group_254" transform="translate(1209.73 57.751)">
	<g id="Group_248" transform="translate(0 0)">
		<path id="Path_2952" class="st8" d="M104.13,43.01H51.74c-0.36-0.05-0.69,0.2-0.74,0.56c-0.01,0.06-0.01,0.13,0,0.19V95.9
			c-0.05,0.36,0.2,0.69,0.56,0.74c0.06,0.01,0.13,0.01,0.19,0h27.31l0.75,2.48c0.02,0.27,0.23,0.48,0.5,0.5h0.25
			c0.25,0,0.5,0,0.5-0.25l2.73-2.98h20.11c0.36,0.05,0.69-0.2,0.74-0.56c0.01-0.06,0.01-0.13,0-0.19v-51.9
			C104.88,43.26,104.63,43.01,104.13,43.01z M52.74,44.75h50.65v6.46H52.74V44.75z M67.88,78.27l13.9-13.9
			c1.3-1.21,2.71-2.29,4.22-3.23c1.55,4.28,4.92,7.64,9.19,9.18c-0.87,1.63-1.96,3.13-3.23,4.47l-13.9,13.9L67.88,78.27z
			 M73.6,86.46l-2.74,4.72c-2.9-0.54-5.17-2.81-5.71-5.71l4.72-2.73L73.6,86.46z M66.4,77.52l-7.2-1.99l6.46-6.46l11.42-2.24
			L66.4,77.52z M96.94,64.36c-0.15,1.55-0.57,3.06-1.24,4.47c-3.88-1.27-6.93-4.31-8.2-8.19c1.53-0.56,3.11-0.98,4.72-1.24l5.46-0.5
			L96.94,64.36z M81.04,97.39l-1.99-7.2l10.68-10.68L87.5,90.93L81.04,97.39z M103.39,94.91H85.51l3.23-3.23
			c0.14-0.13,0.22-0.31,0.25-0.5l2.98-14.15l1.24-0.99c1.52-1.71,2.78-3.63,3.72-5.71v-0.25l0,0c0.76-1.83,1.26-3.75,1.49-5.71
			l0.74-6.45c0.03-0.27-0.06-0.55-0.25-0.74c-0.25,0.25-0.5,0-0.75,0l-6.21,0.74c-1.96,0.23-3.88,0.73-5.71,1.49l0,0
			c-2.18,0.88-4.13,2.24-5.71,3.97l-1.24,1.24l-14.4,2.98c-0.25,0-0.25,0-0.5,0.25l-7.45,7.45c-0.19,0.2-0.28,0.47-0.25,0.74
			c0.02,0.27,0.23,0.48,0.5,0.5l8.94,2.24l2.48,2.48l-4.72,3.23c-0.25,0-0.5,0.5-0.5,0.74c0.5,3.97,3.97,7.45,7.7,7.7l0,0
			c0.5,0,0.75-0.25,0.99-0.25l2.73-4.97l2.48,2.48l1.24,4.72H52.74V52.7h50.65V94.91z"/>
	</g>
	<g id="Group_249" transform="translate(47.922 4.058)">
		<path id="Path_2953" class="st8" d="M51.25,43.18c0,0.25-0.25,0.5-0.25,0.74c0,0.25,0,0.5,0.25,0.5c0.25,0.25,0.25,0.25,0.5,0.25
			c0.25,0,0.5,0,0.5-0.25c0.5-0.25,0.5-0.25,0.5-0.5c0-0.25,0-0.5-0.25-0.5c-0.25-0.41-0.78-0.54-1.19-0.29
			C51.29,43.15,51.27,43.16,51.25,43.18z"/>
	</g>
	<g id="Group_250" transform="translate(43.452 4.221)">
		<path id="Path_2954" class="st8" d="M51.74,43.01c-0.36-0.05-0.69,0.2-0.74,0.56c-0.01,0.06-0.01,0.13,0,0.19
			c-0.05,0.36,0.2,0.69,0.56,0.74c0.06,0.01,0.13,0.01,0.19,0c0.5,0,0.99-0.25,0.99-0.74C52.74,43.26,52.24,43.01,51.74,43.01z"/>
	</g>
	<g id="Group_251" transform="translate(38.983 4.058)">
		<path id="Path_2955" class="st8" d="M51.25,43.18c-0.19,0.2-0.28,0.47-0.25,0.74c0,0.25,0,0.5,0.25,0.5
			c0.13,0.14,0.31,0.23,0.5,0.25c0.25,0,0.5,0,0.5-0.25c0.25-0.25,0.5-0.25,0.5-0.5c0-0.25,0-0.5-0.25-0.5
			c-0.25-0.41-0.78-0.54-1.19-0.29C51.29,43.15,51.27,43.16,51.25,43.18z"/>
	</g>
	<g id="Group_252" transform="translate(30.168 25.14)">
		<path id="Path_2956" class="st8" d="M54.6,49.9c0.93,0.05,1.84-0.31,2.49-0.99c1.37-1.21,1.5-3.31,0.29-4.68
			c-0.09-0.1-0.19-0.2-0.29-0.29c-1.42-1.24-3.54-1.24-4.97,0c-1.37,1.21-1.5,3.31-0.29,4.68c0.09,0.1,0.19,0.2,0.29,0.29
			C52.78,49.55,53.67,49.9,54.6,49.9z M53.36,45.18c0.34-0.31,0.78-0.49,1.24-0.5c0.55-0.07,1.09,0.12,1.49,0.5
			c0.75,0.75,0.75,1.98,0,2.73c-0.75,0.75-1.98,0.75-2.73,0C52.6,47.16,52.6,45.94,53.36,45.18z"/>
	</g>
	<g id="Group_253" transform="translate(23.216 31.906)">
		<path id="Path_2957" class="st8" d="M57.08,44.13c-1.21-1.37-3.31-1.5-4.68-0.29c-0.1,0.09-0.2,0.19-0.29,0.29
			c-1.37,1.21-1.5,3.31-0.29,4.68c0.09,0.1,0.19,0.2,0.29,0.29c0.64,0.68,1.55,1.04,2.48,0.99c0.93,0.05,1.84-0.31,2.48-0.99
			c1.4-1.18,1.62-3.22,0.44-4.62C57.4,44.33,57.27,44.2,57.08,44.13z M55.84,48.1c-0.76,0.74-1.97,0.74-2.73,0
			c-0.54-0.86-0.44-1.98,0.25-2.73c0.34-0.31,0.78-0.49,1.24-0.5c0.46,0.01,0.9,0.19,1.24,0.5C56.58,46.13,56.58,47.34,55.84,48.1z"
			/>
	</g>
</g>
<g id="Group_260" transform="translate(631 55)">
	<g id="Group_255">
		<path id="Path_2958" class="st8" d="M105.44,43.01H51.76c-0.37-0.05-0.71,0.2-0.76,0.57c-0.01,0.06-0.01,0.13,0,0.19v53.68
			c-0.05,0.37,0.2,0.71,0.57,0.76c0.06,0.01,0.13,0.01,0.19,0h53.68c0.37,0.05,0.71-0.2,0.76-0.57c0.01-0.06,0.01-0.13,0-0.19V43.77
			c0.05-0.37-0.2-0.71-0.57-0.76C105.57,43,105.51,43,105.44,43.01z M52.78,44.79h51.9v6.62h-51.9V44.79z M104.68,96.69h-51.9V52.93
			h51.9V96.69z"/>
	</g>
	<g id="Group_256" transform="translate(49.103 4.158)">
		<path id="Path_2959" class="st8" d="M51.25,43.18C51,43.18,51,43.43,51,43.69s0,0.51,0.25,0.51c0.25,0.25,0.25,0.25,0.51,0.25
			c0.25,0,0.51,0,0.51-0.25c0.51,0,0.51,0,0.51-0.25c0-0.25,0-0.51-0.25-0.51c-0.26-0.42-0.8-0.55-1.22-0.29
			C51.29,43.15,51.27,43.17,51.25,43.18z"/>
	</g>
	<g id="Group_257" transform="translate(44.524 4.325)">
		<path id="Path_2960" class="st8" d="M51.76,43.01c-0.37-0.05-0.71,0.2-0.76,0.57c-0.01,0.06-0.01,0.13,0,0.19
			c-0.05,0.37,0.2,0.71,0.57,0.76c0.06,0.01,0.13,0.01,0.19,0c0.37,0.05,0.71-0.2,0.76-0.57c0.01-0.06,0.01-0.13,0-0.19
			C52.78,43.27,52.27,43.01,51.76,43.01z"/>
	</g>
	<g id="Group_258" transform="translate(39.944 4.158)">
		<path id="Path_2961" class="st8" d="M51.25,43.18C51,43.18,51,43.43,51,43.69s0,0.51,0.25,0.51c0.25,0.51,0.25,0.51,0.51,0.51
			c0.25,0,0.51,0,0.51-0.25c0.25-0.25,0.51-0.25,0.51-0.51c0-0.26,0-0.51-0.25-0.51C52.02,42.92,51.51,42.92,51.25,43.18z"/>
	</g>
	<g id="Group_259" transform="translate(10.94 15.011)">
		<path id="Path_2962" class="st8" d="M60.67,59.55l-6.11,6.11l0,0l-3.31,3.31C51,69.22,51,69.47,51,69.98
			c0.91,3.2,3.41,5.7,6.61,6.62h0.26c0.25,0,0.51,0,0.51-0.25l3.31-3.31l6.36-6.36l9.41,9.67c0.25,0,0.51,0.25,0.76,0.25
			s0.51,0,0.51-0.25l2.8-2.8l0,0l2.8-2.8c0.25-0.25,0.25-0.25,0.25-0.51c0-0.25,0-0.51-0.25-0.51l-9.67-9.67l6.36-6.36l0,0v-0.25
			l0,0l3.04-9.16c0-0.25,0-0.76-0.25-0.76c0.25-0.51-0.25-0.51-0.5-0.51l-9.16,3.05H73.9l-6.62,6.87l-2.03-2.03l0,0l-7.38-7.63
			c-0.38-0.26-0.89-0.26-1.27,0l-2.8,2.8l0,0l-2.54,2.8c-0.26,0.38-0.26,0.89,0,1.27L60.67,59.55z M74.15,48.35
			c0.25,0.25,0.25,0.76,0.51,1.02c0,0.14,0.11,0.25,0.24,0.25c0,0,0.01,0,0.01,0c0.25,0.25,0.25,0.51,0.51,0.76
			c0,0.14,0.11,0.25,0.24,0.25c0,0,0.01,0,0.01,0l0.25,0.25L57.36,68.96l0,0c0-0.14-0.11-0.25-0.24-0.25c0,0-0.01,0-0.01,0
			c0-0.25-0.25-0.25-0.25-0.51c0-0.14-0.11-0.25-0.24-0.25c0,0-0.01,0-0.01,0c0-0.25-0.25-0.25-0.25-0.51
			c0-0.14-0.11-0.25-0.24-0.25c0,0-0.01,0-0.01,0v-0.25L74.15,48.35z M78.22,46.57c0.49,1.2,1.39,2.2,2.54,2.8L80,51.92l0,0
			c-0.14,0-0.25-0.11-0.25-0.24c0,0,0-0.01,0-0.01c-0.19-0.03-0.37-0.12-0.51-0.25c-0.14,0-0.25-0.11-0.25-0.24c0,0,0-0.01,0-0.01
			c-0.25,0-0.25-0.25-0.51-0.25c-0.14,0-0.25-0.11-0.25-0.24c0,0,0-0.01,0-0.01c-0.4-0.01-0.77-0.19-1.02-0.51l0,0
			c0-0.25-0.25-0.51-0.51-0.76c0-0.14-0.11-0.25-0.24-0.25c0,0-0.01,0-0.01,0c0-0.25-0.25-0.25-0.25-0.51
			c0-0.14-0.11-0.25-0.24-0.25c0,0-0.01,0-0.01,0c0-0.25-0.25-0.25-0.25-0.51c0-0.14-0.11-0.25-0.24-0.25c0,0-0.01,0-0.01,0l0,0
			L78.22,46.57z M57.61,74.81c-2.31-0.86-4.09-2.74-4.83-5.09l2.03-2.04c0.01,0.4,0.19,0.77,0.51,1.02c0,0.14,0.11,0.25,0.24,0.25
			c0,0,0.01,0,0.01,0c0.25,0.25,0.25,0.51,0.51,0.76c0,0.14,0.11,0.25,0.24,0.25c0,0,0.01,0,0.01,0l1.53,1.53
			c0.14,0,0.25,0.11,0.25,0.24c0,0,0,0.01,0,0.01c0.25,0.25,0.51,0.25,0.76,0.51c0.14,0,0.25,0.11,0.25,0.24c0,0,0,0.01,0,0.01
			c0.25,0.25,0.51,0.25,1.02,0.51L57.61,74.81z M74.91,62.86l-2.29,2.03c-0.26,0.38-0.26,0.89,0,1.27h0.76c0.25,0,0.51,0,0.51-0.25
			l2.03-2.03l2.55,2.55l-2.03,2.29c-0.26,0.38-0.26,0.89,0,1.27c0.13,0.15,0.31,0.24,0.51,0.25c0.25,0,0.51,0,0.51-0.25l2.04-2.04
			l2.54,2.54l-3.82,4.07l-9.16-8.9l4.32-4.33L74.91,62.86z M60.92,71.51h-0.25c-0.14,0-0.25-0.11-0.25-0.24c0,0,0-0.01,0-0.01
			c-0.25,0-0.25-0.25-0.51-0.25c-0.14,0-0.25-0.11-0.25-0.24c0,0,0-0.01,0-0.01c-0.25,0-0.25-0.25-0.51-0.25
			c-0.14,0-0.25-0.11-0.25-0.24c0,0,0-0.01,0-0.01l0,0l18.06-18.07l0.25,0.25c0.14,0,0.25,0.11,0.25,0.24c0,0,0,0.01,0,0.01
			c0.25,0.25,0.51,0.25,0.76,0.51c0.14,0,0.25,0.11,0.25,0.24c0,0,0,0.01,0,0.01c0-0.25,0.25-0.25,0.51,0L60.92,71.51z M81.53,47.85
			c-0.71-0.46-1.32-1.07-1.78-1.78l2.54-0.76L81.53,47.85z M57.1,45.05l2.54,2.55l-2.03,2.29c-0.26,0.38-0.26,0.89,0,1.27h0.76
			c0.25,0,0.51,0,0.51-0.25l2.03-2.03l2.55,2.54l-2.03,2.03c-0.26,0.38-0.26,0.89,0,1.27c0.25,0.25,0.25,0.25,0.51,0.25
			c0.26,0,0.51,0,0.51-0.25l2.03-2.03l1.53,1.53l-4.08,4.07l-8.9-8.9L57.1,45.05z"/>
	</g>
</g>
<g id="Group_269" transform="translate(1019 55)">
	<g id="Group_261">
		<path id="Path_2963" class="st8" d="M107.58,43.01H55.5c-2.46-0.03-4.47,1.94-4.5,4.39c0,0.04,0,0.07,0,0.11v5.91
			c0,0.84,0.28,1.13,0.84,1.13c0.41,0.06,0.79-0.23,0.84-0.63c0.01-0.07,0.01-0.14,0-0.21v-6.19c0.01-1.55,1.26-2.81,2.81-2.81h51.8
			c1.55,0.01,2.81,1.26,2.81,2.81v5.91c0.03,0.45,0.39,0.82,0.84,0.84c0.28,0,1.13,0,1.13-0.56v-6.19c0.03-2.46-1.94-4.47-4.39-4.5
			C107.65,43.01,107.61,43.01,107.58,43.01z"/>
	</g>
	<g id="Group_262" transform="translate(0 28.43)">
		<path id="Path_2964" class="st8" d="M111.23,43.01c-0.41-0.06-0.79,0.23-0.84,0.63c-0.01,0.07-0.01,0.14,0,0.21V59.9
			c0,1.55-1.26,2.81-2.82,2.81H55.5c-1.55-0.01-2.81-1.26-2.81-2.81V43.86c0.06-0.41-0.22-0.79-0.63-0.84
			c-0.07-0.01-0.14-0.01-0.21,0c-0.45,0.03-0.82,0.39-0.84,0.84V59.9c-0.05,2.55,1.95,4.68,4.5,4.78h18.86l-1.13,4.5h-5.07
			c-1.77,0.05-3.16,1.53-3.1,3.29c0,0.03,0,0.06,0,0.08c-0.01,1.76,1.34,3.23,3.1,3.38h26.74c1.87,0,3.38-1.51,3.38-3.38
			c0-1.87-1.51-3.38-3.38-3.38h-4.78l-1.41-4.5h18.86c2.46,0.03,4.47-1.94,4.5-4.39c0-0.04,0-0.07,0-0.11V43.86
			C112.05,43.4,111.69,43.04,111.23,43.01z M96.32,72.57c0.04,0.73-0.52,1.36-1.25,1.41c-0.05,0-0.11,0-0.16,0H68.17
			c-0.78,0-1.41-0.63-1.41-1.41c0-0.78,0.63-1.41,1.41-1.41h26.74c0.73-0.04,1.36,0.51,1.41,1.25
			C96.32,72.46,96.32,72.51,96.32,72.57z M88.15,69.19H74.92l1.41-4.5h10.42L88.15,69.19z"/>
	</g>
	<g id="Group_263" transform="translate(38.282 5.348)">
		<path id="Path_2965" class="st8" d="M67.32,49.2c0.41,0.06,0.79-0.23,0.84-0.63c0.01-0.07,0.01-0.14,0-0.21v-3.38
			c0.03-1.06-0.81-1.94-1.88-1.97c-0.03,0-0.06,0-0.09,0H51.84c-0.41-0.06-0.79,0.23-0.84,0.63c-0.01,0.07-0.01,0.14,0,0.21
			c-0.06,0.41,0.23,0.79,0.63,0.84c0.07,0.01,0.14,0.01,0.21,0h14.64v3.38C66.48,48.92,66.76,49.2,67.32,49.2z"/>
	</g>
	<g id="Group_264" transform="translate(5.63 5.63)">
		<path id="Path_2966" class="st8" d="M52.69,48.08V44.7h8.44c0.41,0.06,0.79-0.23,0.84-0.63c0.01-0.07,0.01-0.14,0-0.21
			c0-0.56-0.28-0.85-0.56-0.85h-8.44c-1-0.05-1.87,0.69-1.97,1.69v3.38c0.03,0.45,0.39,0.82,0.84,0.84
			C52.3,48.9,52.66,48.53,52.69,48.08z"/>
	</g>
	<g id="Group_265" transform="translate(5.63 28.43)">
		<path id="Path_2967" class="st8" d="M51.84,43.01c-0.41-0.06-0.79,0.23-0.84,0.63c-0.01,0.07-0.01,0.14,0,0.21v13.23
			c-0.03,1.06,0.81,1.94,1.88,1.97c0.03,0,0.06,0,0.09,0h30.96c0.41,0.06,0.79-0.23,0.84-0.63c0.01-0.07,0.01-0.14,0-0.21
			c0.06-0.41-0.23-0.79-0.63-0.84c-0.07-0.01-0.14-0.01-0.21,0H52.97V43.86C52.69,43.57,52.4,43.01,51.84,43.01z"/>
	</g>
	<g id="Group_266" transform="translate(52.356 28.43)">
		<path id="Path_2968" class="st8" d="M52.4,59.06c1.06,0.03,1.94-0.81,1.97-1.88c0-0.03,0-0.06,0-0.09V43.86
			c0.06-0.41-0.23-0.79-0.63-0.84c-0.07-0.01-0.14-0.01-0.21,0c-0.41-0.06-0.79,0.23-0.84,0.63c-0.01,0.07-0.01,0.14,0,0.21v13.23
			h-0.85c-0.41-0.06-0.79,0.23-0.84,0.63c-0.01,0.07-0.01,0.14,0,0.21c-0.06,0.41,0.23,0.79,0.63,0.84c0.07,0.01,0.14,0.01,0.21,0
			h0.56L52.4,59.06z"/>
	</g>
	<g id="Group_267" transform="translate(0 5.63)">
		<path id="Path_2969" class="st8" d="M111.23,51.74H91.81c-3.61-7.62-12.71-10.86-20.33-7.25c-3.18,1.51-5.74,4.07-7.25,7.25H51.84
			c-0.45,0.03-0.82,0.39-0.84,0.84v9.57c-0.06,0.41,0.23,0.79,0.63,0.84c0.07,0.01,0.14,0.01,0.21,0h11.54
			c2.06,6.35,7.96,10.67,14.64,10.7c2.45,0.04,4.87-0.54,7.04-1.69l8.73,8.73c1.58,1.5,4.05,1.5,5.63,0l0.84-0.84
			c0.77-0.73,1.18-1.76,1.13-2.81c-0.07-1.03-0.47-2.02-1.13-2.82l-8.73-8.73c0.28-0.84,0.84-1.69,1.13-2.53h18.58
			c0.41,0.06,0.79-0.23,0.84-0.63c0.01-0.07,0.01-0.14,0-0.21v-9.57C112.05,52.13,111.69,51.77,111.23,51.74z M52.97,61.31v-7.6
			h10.42c-0.58,1.53-0.86,3.15-0.84,4.78c-0.05,0.95,0.05,1.9,0.28,2.82H52.97z M64.51,58.5c0-7.46,6.05-13.51,13.51-13.51
			c7.46,0,13.51,6.05,13.51,13.51S85.48,72,78.02,72c0,0,0,0,0,0C70.56,72,64.51,65.95,64.51,58.5L64.51,58.5z M99.13,75.38
			c0.75,0.79,0.75,2.03,0,2.82l-0.84,1.13c-0.86,0.85-2.24,0.85-3.1,0l-8.44-8.44c1.52-1.09,2.85-2.42,3.94-3.94L99.13,75.38z
			 M92.66,53.71h8.16v7.6h-7.6c0.23-0.92,0.33-1.87,0.28-2.82C93.52,56.86,93.23,55.24,92.66,53.71z M110.39,61.31h-7.6v-7.6h7.6
			V61.31z"/>
	</g>
</g>
</svg>
