<svg width="1130" height="242" viewBox="0 0 1130 242" fill="none" xmlns="http://www.w3.org/2000/svg">
<rect width="1130" height="242" fill="white"/>
<g clip-path="url(#clip0_271_562)">
<path d="M520.989 42.8669C520.941 42.5345 520.656 42.3446 520.419 42.3446C520.181 42.3446 515.481 42.2497 515.481 42.2497C515.481 42.2497 511.54 38.4513 511.16 38.024C510.781 37.6442 510.021 37.7392 509.736 37.8341C509.736 37.8341 508.976 38.0715 507.742 38.4513C507.552 37.7866 507.22 36.9795 506.792 36.1249C505.415 33.466 503.326 32.0417 500.857 32.0417C500.668 32.0417 500.525 32.0417 500.335 32.0892C500.24 31.9942 500.193 31.8992 500.098 31.8518C499.006 30.7123 497.629 30.1425 495.967 30.19C492.786 30.285 489.605 32.6114 486.994 36.6946C485.189 39.5908 483.812 43.1992 483.385 46.0005C479.729 47.14 477.165 47.9471 477.07 47.9471C475.219 48.5169 475.171 48.5644 474.934 50.3211C474.839 51.6505 469.996 89.1114 469.996 89.1114L510.638 96.1383L528.253 91.7703C528.205 91.7703 521.036 43.1992 520.989 42.8669ZM505.7 39.116C504.751 39.4009 503.706 39.7333 502.567 40.1131C502.567 38.4988 502.329 36.2198 501.617 34.3207C504.039 34.7005 505.226 37.4543 505.7 39.116ZM500.43 40.7303C498.294 41.395 495.967 42.1072 493.641 42.8194C494.305 40.303 495.54 37.8341 497.059 36.1724C497.629 35.5551 498.436 34.8904 499.338 34.5106C500.288 36.3623 500.478 38.9736 500.43 40.7303ZM496.062 32.3266C496.822 32.3266 497.439 32.469 497.961 32.8488C497.107 33.2761 496.252 33.9408 495.492 34.7955C493.451 36.9795 491.884 40.3505 491.267 43.6266C489.32 44.2438 487.421 44.8135 485.712 45.3358C486.851 40.1606 491.172 32.469 496.062 32.3266Z" fill="#95BF47"/>
<path d="M520.417 42.3448C520.18 42.3448 515.48 42.2499 515.48 42.2499C515.48 42.2499 511.539 38.4516 511.159 38.0243C511.017 37.8818 510.827 37.7869 510.637 37.7869V96.1385L528.251 91.7705C528.251 91.7705 521.082 43.1995 521.035 42.8671C520.94 42.5348 520.655 42.3448 520.417 42.3448Z" fill="#5E8E3E"/>
<path d="M500.856 51.4135L498.815 59.0576C498.815 59.0576 496.536 58.0131 493.83 58.203C489.841 58.4404 489.841 60.9568 489.841 61.574C490.079 64.9925 499.052 65.7521 499.575 73.7761C499.954 80.0908 496.251 84.4114 490.838 84.7437C484.381 85.0761 480.82 81.2778 480.82 81.2778L482.197 75.4379C482.197 75.4379 485.806 78.1442 488.654 77.9542C490.506 77.8593 491.218 76.2925 491.123 75.2479C490.838 70.7849 483.527 71.0698 483.052 63.7105C482.672 57.5383 486.708 51.3185 495.634 50.7488C499.1 50.5114 500.856 51.4135 500.856 51.4135Z" fill="white"/>
<path d="M552.09 67.6985C550.048 66.6065 549.004 65.6569 549.004 64.3749C549.004 62.7607 550.475 61.7161 552.754 61.7161C555.413 61.7161 557.787 62.8081 557.787 62.8081L559.639 57.1107C559.639 57.1107 557.93 55.7812 552.897 55.7812C545.87 55.7812 540.98 59.817 540.98 65.467C540.98 68.6955 543.259 71.117 546.297 72.8737C548.766 74.2506 549.621 75.2476 549.621 76.7195C549.621 78.2388 548.386 79.4733 546.107 79.4733C542.736 79.4733 539.508 77.7165 539.508 77.7165L537.514 83.414C537.514 83.414 540.457 85.4081 545.443 85.4081C552.659 85.4081 557.882 81.8472 557.882 75.4375C557.835 71.9716 555.223 69.5027 552.09 67.6985Z" fill="black"/>
<path d="M580.862 55.6868C577.301 55.6868 574.499 57.396 572.363 59.9599L572.268 59.9124L575.354 43.7695H567.33L559.496 84.8863H567.52L570.179 70.8326C571.223 65.5149 573.977 62.2389 576.541 62.2389C578.345 62.2389 579.057 63.4733 579.057 65.23C579.057 66.3221 578.962 67.6989 578.725 68.791L575.686 84.8863H583.71L586.844 68.2687C587.176 66.512 587.414 64.4229 587.414 62.9985C587.461 58.4405 585.087 55.6868 580.862 55.6868Z" fill="black"/>
<path d="M605.644 55.6863C595.958 55.6863 589.549 64.4224 589.549 74.1556C589.549 80.3754 593.395 85.4081 600.611 85.4081C610.107 85.4081 616.517 76.9094 616.517 66.9388C616.564 61.1938 613.193 55.6863 605.644 55.6863ZM601.703 79.2833C598.95 79.2833 597.81 76.9569 597.81 74.0132C597.81 69.4077 600.184 61.906 604.552 61.906C607.401 61.906 608.351 64.3749 608.351 66.7489C608.351 71.6867 605.929 79.2833 601.703 79.2833Z" fill="black"/>
<path d="M637.124 55.6863C631.711 55.6863 628.625 60.4817 628.625 60.4817H628.53L629.005 56.1611H621.883C621.55 59.0573 620.886 63.5203 620.269 66.8438L614.666 96.2808H622.69L624.921 84.3636H625.111C625.111 84.3636 626.773 85.4081 629.812 85.4081C639.26 85.4081 645.432 75.7224 645.432 65.9417C645.432 60.5291 643.011 55.6863 637.124 55.6863ZM629.432 79.3783C627.343 79.3783 626.108 78.1913 626.108 78.1913L627.438 70.6896C628.387 65.6569 630.999 62.3333 633.8 62.3333C636.269 62.3333 637.029 64.6123 637.029 66.7489C637.029 71.9716 633.942 79.3783 629.432 79.3783Z" fill="black"/>
<path d="M656.924 44.1492C654.36 44.1492 652.318 46.1908 652.318 48.8021C652.318 51.1761 653.838 52.8378 656.117 52.8378H656.212C658.728 52.8378 660.865 51.1286 660.912 48.1849C660.912 45.8584 659.345 44.1492 656.924 44.1492Z" fill="black"/>
<path d="M645.672 84.8385H653.696L659.156 56.3511H651.084L645.672 84.8385Z" fill="black"/>
<path d="M679.62 56.3037H674.018L674.303 54.9743C674.778 52.2205 676.392 49.799 679.098 49.799C680.523 49.799 681.662 50.2264 681.662 50.2264L683.229 43.9116C683.229 43.9116 681.852 43.1995 678.861 43.1995C676.012 43.1995 673.163 44.0066 670.979 45.8583C668.226 48.1848 666.944 51.5558 666.326 54.9743L666.089 56.3037H662.338L661.151 62.381H664.902L660.629 84.886H668.653L672.926 62.381H678.481L679.62 56.3037Z" fill="black"/>
<path d="M698.99 56.3511C698.99 56.3511 693.957 69.028 691.726 75.9599H691.631C691.488 73.7284 689.636 56.3511 689.636 56.3511H681.185L686.028 82.512C686.123 83.0817 686.076 83.4616 685.838 83.8414C684.889 85.6456 683.322 87.4023 681.47 88.6843C679.951 89.7763 678.242 90.4885 676.912 90.9632L679.144 97.8002C680.758 97.4679 684.176 96.091 687.025 93.4322C690.681 90.0137 694.1 84.696 697.565 77.4792L707.394 56.3511H698.99Z" fill="black"/>
</g>
<path d="M956.05 45.1921H951.297L951.319 80.6218H970.571V76.2394H956.072L956.05 45.1921Z" fill="#8C929D"/>
<path d="M988.892 74.4048C987.693 75.6475 985.708 76.8903 983.005 76.8903C979.386 76.8903 977.925 75.1025 977.925 72.7696C977.925 69.2593 980.367 67.5805 985.556 67.5805C986.537 67.5805 988.107 67.6895 988.913 67.8421V74.4048H988.892V74.4048ZM983.964 52.929C980.127 52.929 976.595 54.2807 973.848 56.57L975.527 59.4916C977.467 58.3579 979.844 57.2241 983.267 57.2241C987.169 57.2241 988.892 59.23 988.892 62.5876V64.31C988.129 64.1574 986.559 64.0484 985.599 64.0484C977.271 64.0484 973.041 66.97 973.041 73.0748C973.041 78.5473 976.399 81.2945 981.479 81.2945C984.902 81.2945 988.194 79.7247 989.328 77.1737L990.2 80.6404H993.558V62.5004C993.536 56.7663 991.05 52.929 983.964 52.929Z" fill="#8C929D"/>
<path d="M1008.89 77.053C1007.11 77.053 1005.54 76.8349 1004.36 76.2899V61.6165V59.9159C1005.97 58.5641 1007.98 57.583 1010.53 57.583C1015.13 57.583 1016.9 60.8316 1016.9 66.0861C1016.9 73.5427 1014.04 77.053 1008.89 77.053ZM1010.9 52.939C1006.65 52.939 1004.36 55.8388 1004.36 55.8388V51.2602L1004.34 45.199H1002.2H999.693L999.715 79.7565C1002.05 80.7376 1005.23 81.2609 1008.7 81.2609C1017.57 81.2609 1021.85 75.5922 1021.85 65.8027C1021.82 58.0627 1017.88 52.939 1010.9 52.939Z" fill="#8C929D"/>
<path d="M904.301 49.0358C908.509 49.0358 911.234 50.4312 913 51.8484L915.05 48.2945C912.281 45.8526 908.531 44.5444 904.519 44.5444C894.402 44.5444 887.316 50.7146 887.316 63.1641C887.316 76.2022 894.969 81.2822 903.712 81.2822C908.095 81.2822 911.823 80.2575 914.265 79.2328L914.156 65.3008V63.6655V60.9184H901.183V65.3008H909.468L909.577 75.8751C908.487 76.4202 906.612 76.8563 904.061 76.8563C897.04 76.8563 892.331 72.4303 892.331 63.1205C892.309 53.6362 897.171 49.0358 904.301 49.0358Z" fill="#8C929D"/>
<path d="M937.773 45.1873H933.129L933.151 51.1394V53.5814V54.9985V57.4841V71.6559V71.6995C933.151 77.4337 935.636 81.271 942.722 81.271C943.703 81.271 944.663 81.1838 945.578 81.0094V76.845C944.902 76.954 944.183 76.9976 943.42 76.9976C939.517 76.9976 937.795 74.9918 937.795 71.6341V57.4623H945.578V53.5814H937.795L937.773 45.1873Z" fill="#8C929D"/>
<path d="M921.318 80.6217H925.962V53.5862H921.318V80.6217Z" fill="#8C929D"/>
<path d="M921.318 49.8581H925.962V45.2141H921.318V49.8581Z" fill="#8C929D"/>
<path d="M836.803 96.8001L850.364 55.0864H823.262L836.803 96.8001Z" fill="#E24329"/>
<path d="M804.267 55.0864L800.138 67.7596C799.764 68.9103 800.167 70.1805 801.154 70.8979L836.803 96.7999L804.267 55.0864Z" fill="#FCA326"/>
<path d="M804.268 55.0861H823.262L815.087 29.964C814.669 28.6787 812.846 28.6787 812.412 29.964L804.268 55.0861Z" fill="#E24329"/>
<path d="M869.359 55.0864L873.473 67.7596C873.847 68.9103 873.444 70.1805 872.457 70.8979L836.803 96.8001L869.359 55.0864Z" fill="#FCA326"/>
<path d="M869.358 55.0861H850.363L858.523 29.964C858.941 28.6787 860.765 28.6787 861.198 29.964L869.358 55.0861Z" fill="#E24329"/>
<path d="M836.803 96.8001L850.364 55.0864H869.359L836.803 96.8001Z" fill="#FC6D26"/>
<path d="M836.804 96.8001L804.268 55.0864H823.262L836.804 96.8001Z" fill="#FC6D26"/>
<path d="M366.478 146.705C370.578 142.433 376.286 139.783 382.599 139.783C390.99 139.783 398.312 144.463 402.211 151.409C405.599 149.895 409.349 149.053 413.295 149.053C428.431 149.053 440.701 161.431 440.701 176.698C440.701 191.968 428.431 204.345 413.295 204.345C411.448 204.345 409.642 204.161 407.897 203.808C404.463 209.932 397.921 214.07 390.411 214.07C387.267 214.07 384.294 213.344 381.646 212.053C378.165 220.24 370.056 225.98 360.605 225.98C350.763 225.98 342.375 219.753 339.155 211.019C337.748 211.317 336.29 211.473 334.794 211.473C323.076 211.473 313.576 201.875 313.576 190.034C313.576 182.099 317.844 175.17 324.186 171.463C322.881 168.459 322.154 165.143 322.154 161.657C322.154 148.039 333.21 137 346.846 137C354.852 137 361.967 140.806 366.478 146.705Z" fill="#00A1E0"/>
<path d="M331.99 183.143C331.91 183.351 332.019 183.394 332.044 183.431C332.283 183.605 332.526 183.729 332.77 183.869C334.067 184.557 335.291 184.758 336.571 184.758C339.179 184.758 340.798 183.371 340.798 181.138V181.095C340.798 179.03 338.971 178.28 337.256 177.739L337.033 177.667C335.74 177.246 334.625 176.884 334.625 176.033V175.988C334.625 175.26 335.276 174.724 336.287 174.724C337.41 174.724 338.743 175.097 339.601 175.571C339.601 175.571 339.853 175.734 339.945 175.49C339.996 175.359 340.43 174.19 340.476 174.063C340.524 173.925 340.438 173.824 340.349 173.77C339.369 173.174 338.015 172.766 336.613 172.766L336.352 172.768C333.965 172.768 332.299 174.21 332.299 176.276V176.319C332.299 178.498 334.137 179.204 335.86 179.697L336.137 179.782C337.392 180.167 338.473 180.499 338.473 181.383V181.426C338.473 182.234 337.77 182.835 336.636 182.835C336.196 182.835 334.793 182.826 333.277 181.868C333.094 181.761 332.987 181.683 332.846 181.598C332.772 181.551 332.585 181.469 332.504 181.716L331.99 183.143Z" fill="white"/>
<path d="M370.163 183.143C370.084 183.351 370.192 183.394 370.218 183.431C370.457 183.605 370.7 183.729 370.944 183.869C372.241 184.557 373.465 184.758 374.745 184.758C377.353 184.758 378.972 183.371 378.972 181.138V181.095C378.972 179.03 377.145 178.28 375.43 177.739L375.207 177.667C373.914 177.246 372.798 176.884 372.798 176.033V175.988C372.798 175.26 373.45 174.724 374.461 174.724C375.584 174.724 376.916 175.097 377.775 175.571C377.775 175.571 378.026 175.734 378.119 175.49C378.169 175.359 378.604 174.19 378.649 174.063C378.698 173.925 378.611 173.824 378.523 173.77C377.543 173.174 376.188 172.766 374.787 172.766L374.526 172.768C372.139 172.768 370.473 174.21 370.473 176.276V176.319C370.473 178.498 372.311 179.204 374.033 179.697L374.31 179.782C375.565 180.167 376.648 180.499 376.648 181.383V181.426C376.648 182.234 375.944 182.835 374.81 182.835C374.37 182.835 372.967 182.826 371.451 181.868C371.268 181.761 371.159 181.687 371.022 181.598C370.975 181.567 370.754 181.482 370.678 181.716L370.163 183.143Z" fill="white"/>
<path d="M396.224 178.769C396.224 180.031 395.989 181.025 395.525 181.728C395.067 182.423 394.374 182.762 393.407 182.762C392.438 182.762 391.748 182.425 391.297 181.728C390.841 181.027 390.609 180.031 390.609 178.769C390.609 177.509 390.841 176.516 391.297 175.821C391.748 175.133 392.438 174.798 393.407 174.798C394.374 174.798 395.067 175.133 395.527 175.821C395.989 176.516 396.224 177.509 396.224 178.769ZM398.401 176.429C398.187 175.707 397.854 175.069 397.411 174.539C396.967 174.006 396.405 173.579 395.739 173.268C395.074 172.958 394.289 172.8 393.407 172.8C392.523 172.8 391.737 172.958 391.072 173.268C390.406 173.579 389.845 174.006 389.399 174.539C388.957 175.071 388.624 175.709 388.409 176.429C388.197 177.148 388.09 177.934 388.09 178.769C388.09 179.604 388.197 180.392 388.409 181.109C388.624 181.829 388.955 182.467 389.401 182.999C389.845 183.532 390.408 183.957 391.072 184.26C391.739 184.562 392.523 184.716 393.407 184.716C394.289 184.716 395.073 184.562 395.739 184.26C396.404 183.957 396.967 183.532 397.411 182.999C397.854 182.469 398.187 181.831 398.401 181.109C398.615 180.39 398.722 179.602 398.722 178.769C398.722 177.936 398.615 177.148 398.401 176.429Z" fill="white"/>
<path d="M416.277 182.425C416.205 182.213 416 182.293 416 182.293C415.683 182.414 415.346 182.527 414.988 182.583C414.624 182.639 414.224 182.668 413.794 182.668C412.74 182.668 411.904 182.354 411.304 181.735C410.703 181.116 410.366 180.114 410.37 178.76C410.374 177.527 410.671 176.599 411.205 175.893C411.735 175.191 412.543 174.83 413.621 174.83C414.519 174.83 415.203 174.933 415.92 175.16C415.92 175.16 416.092 175.234 416.174 175.009C416.364 174.481 416.505 174.102 416.708 173.521C416.766 173.356 416.625 173.285 416.574 173.266C416.292 173.155 415.625 172.976 415.122 172.9C414.651 172.827 414.1 172.789 413.488 172.789C412.574 172.789 411.759 172.945 411.062 173.257C410.366 173.566 409.776 173.994 409.309 174.526C408.842 175.058 408.487 175.696 408.249 176.417C408.014 177.135 407.895 177.925 407.895 178.76C407.895 180.565 408.382 182.025 409.343 183.093C410.307 184.165 411.754 184.71 413.641 184.71C414.756 184.71 415.901 184.484 416.723 184.16C416.723 184.16 416.88 184.084 416.811 183.901L416.277 182.425Z" fill="white"/>
<path d="M420.087 177.56C420.19 176.859 420.384 176.276 420.683 175.821C421.134 175.131 421.822 174.753 422.789 174.753C423.756 174.753 424.395 175.133 424.853 175.821C425.157 176.276 425.29 176.884 425.342 177.56H420.087ZM427.416 176.019C427.231 175.322 426.773 174.617 426.472 174.295C425.998 173.784 425.534 173.427 425.074 173.228C424.473 172.971 423.752 172.801 422.963 172.801C422.043 172.801 421.208 172.955 420.53 173.273C419.851 173.592 419.281 174.027 418.834 174.568C418.386 175.108 418.05 175.751 417.836 176.48C417.62 177.207 417.512 177.998 417.512 178.833C417.512 179.682 417.624 180.474 417.847 181.185C418.071 181.902 418.43 182.534 418.915 183.058C419.399 183.585 420.022 183.998 420.768 184.285C421.508 184.572 422.408 184.72 423.442 184.718C425.57 184.711 426.691 184.237 427.153 183.981C427.234 183.936 427.312 183.856 427.215 183.628L426.733 182.279C426.66 182.078 426.456 182.152 426.456 182.152C425.929 182.348 425.179 182.699 423.432 182.695C422.289 182.694 421.441 182.357 420.911 181.83C420.366 181.29 420.099 180.497 420.052 179.378L427.421 179.385C427.421 179.385 427.615 179.382 427.635 179.193C427.642 179.114 427.888 177.679 427.416 176.019Z" fill="white"/>
<path d="M361.073 177.56C361.178 176.859 361.37 176.276 361.669 175.821C362.12 175.131 362.808 174.753 363.775 174.753C364.742 174.753 365.381 175.133 365.841 175.821C366.144 176.276 366.276 176.884 366.328 177.56H361.073ZM368.4 176.019C368.215 175.322 367.759 174.617 367.458 174.295C366.984 173.784 366.52 173.427 366.06 173.228C365.459 172.971 364.738 172.801 363.949 172.801C363.031 172.801 362.194 172.955 361.517 173.273C360.838 173.592 360.267 174.027 359.82 174.568C359.373 175.108 359.036 175.751 358.822 176.48C358.609 177.207 358.498 177.998 358.498 178.833C358.498 179.682 358.61 180.474 358.833 181.185C359.058 181.902 359.416 182.534 359.901 183.058C360.385 183.585 361.008 183.998 361.754 184.285C362.495 184.572 363.395 184.72 364.429 184.718C366.557 184.711 367.677 184.237 368.139 183.981C368.221 183.936 368.299 183.856 368.201 183.628L367.721 182.279C367.647 182.078 367.442 182.152 367.442 182.152C366.915 182.348 366.167 182.699 364.416 182.695C363.275 182.694 362.428 182.357 361.897 181.83C361.352 181.29 361.086 180.497 361.039 179.378L368.407 179.385C368.407 179.385 368.601 179.382 368.621 179.193C368.628 179.114 368.874 177.679 368.4 176.019Z" fill="white"/>
<path d="M345.148 182.385C344.861 182.155 344.821 182.097 344.723 181.948C344.578 181.722 344.504 181.4 344.504 180.99C344.504 180.342 344.717 179.877 345.161 179.563C345.156 179.565 345.795 179.011 347.298 179.031C348.354 179.046 349.297 179.201 349.297 179.201V182.551H349.299C349.299 182.551 348.363 182.752 347.309 182.816C345.809 182.906 345.143 182.383 345.148 182.385ZM348.08 177.207C347.782 177.186 347.394 177.173 346.93 177.173C346.298 177.173 345.688 177.253 345.116 177.407C344.54 177.561 344.022 177.801 343.577 178.12C343.129 178.441 342.769 178.85 342.508 179.335C342.247 179.821 342.115 180.393 342.115 181.034C342.115 181.686 342.228 182.253 342.452 182.716C342.677 183.182 343.001 183.569 343.414 183.868C343.823 184.167 344.328 184.386 344.915 184.518C345.493 184.65 346.148 184.717 346.865 184.717C347.62 184.717 348.374 184.656 349.103 184.531C349.826 184.408 350.713 184.228 350.96 184.172C351.204 184.114 351.476 184.04 351.476 184.04C351.659 183.995 351.644 183.799 351.644 183.799L351.641 177.061C351.641 175.583 351.246 174.488 350.469 173.808C349.696 173.131 348.557 172.789 347.084 172.789C346.532 172.789 345.643 172.865 345.11 172.972C345.11 172.972 343.501 173.283 342.838 173.801C342.838 173.801 342.693 173.892 342.773 174.095L343.294 175.496C343.359 175.677 343.535 175.616 343.535 175.616C343.535 175.616 343.591 175.594 343.656 175.556C345.074 174.785 346.867 174.808 346.867 174.808C347.664 174.808 348.276 174.967 348.689 175.284C349.091 175.592 349.295 176.058 349.295 177.039V177.351C348.662 177.26 348.08 177.207 348.08 177.207Z" fill="white"/>
<path d="M407.509 173.411C407.565 173.244 407.447 173.164 407.398 173.146C407.273 173.097 406.647 172.965 406.163 172.934C405.238 172.878 404.723 173.034 404.263 173.24C403.807 173.447 403.3 173.78 403.018 174.159V173.262C403.018 173.137 402.929 173.038 402.806 173.038H400.917C400.794 173.038 400.705 173.137 400.705 173.262V184.253C400.705 184.376 400.806 184.477 400.93 184.477H402.865C402.989 184.477 403.088 184.376 403.088 184.253V178.762C403.088 178.025 403.17 177.29 403.333 176.828C403.492 176.371 403.709 176.006 403.977 175.743C404.247 175.482 404.553 175.299 404.888 175.196C405.231 175.091 405.609 175.057 405.877 175.057C406.263 175.057 406.686 175.156 406.686 175.156C406.828 175.173 406.907 175.086 406.954 174.957C407.081 174.62 407.44 173.612 407.509 173.411Z" fill="white"/>
<path d="M389.34 168.317C389.104 168.245 388.891 168.196 388.612 168.143C388.329 168.092 387.992 168.067 387.61 168.067C386.277 168.067 385.227 168.444 384.49 169.186C383.757 169.925 383.259 171.05 383.009 172.529L382.918 173.027H381.245C381.245 173.027 381.042 173.02 380.999 173.241L380.725 174.775C380.705 174.92 380.769 175.012 380.964 175.012H382.592L380.941 184.233C380.812 184.975 380.664 185.586 380.499 186.049C380.338 186.506 380.18 186.848 379.985 187.098C379.796 187.337 379.619 187.514 379.311 187.618C379.057 187.703 378.764 187.743 378.444 187.743C378.266 187.743 378.029 187.714 377.853 187.677C377.679 187.643 377.587 187.605 377.455 187.549C377.455 187.549 377.265 187.476 377.189 187.666C377.129 187.824 376.694 189.017 376.642 189.164C376.591 189.311 376.663 189.425 376.756 189.459C376.973 189.535 377.134 189.586 377.429 189.657C377.839 189.753 378.185 189.758 378.509 189.758C379.186 189.758 379.805 189.662 380.318 189.477C380.832 189.291 381.281 188.967 381.68 188.528C382.109 188.054 382.379 187.558 382.636 186.879C382.891 186.209 383.11 185.376 383.284 184.405L384.945 175.012H387.371C387.371 175.012 387.576 175.019 387.618 174.796L387.893 173.264C387.911 173.118 387.849 173.027 387.652 173.027H385.296C385.309 172.975 385.415 172.145 385.685 171.365C385.801 171.033 386.019 170.764 386.201 170.579C386.383 170.398 386.591 170.269 386.819 170.195C387.053 170.119 387.319 170.083 387.61 170.083C387.831 170.083 388.05 170.108 388.215 170.142C388.443 170.191 388.532 170.217 388.592 170.235C388.833 170.307 388.865 170.237 388.912 170.121L389.476 168.574C389.533 168.408 389.39 168.337 389.34 168.317Z" fill="white"/>
<path d="M356.423 184.253C356.423 184.376 356.334 184.476 356.211 184.476H354.257C354.134 184.476 354.047 184.376 354.047 184.253V168.527C354.047 168.404 354.134 168.304 354.257 168.304H356.211C356.334 168.304 356.423 168.404 356.423 168.527V184.253Z" fill="white"/>
<path d="M934.863 169.896C934.863 171.944 933.201 173.606 931.15 173.606C929.106 173.606 927.443 171.946 927.443 169.896C927.443 167.846 929.106 166.186 931.151 166.186C933.203 166.186 934.863 167.847 934.863 169.896ZM931.153 166.804C930.747 166.804 930.345 166.884 929.97 167.04C929.595 167.195 929.254 167.423 928.967 167.71C928.681 167.997 928.453 168.338 928.298 168.713C928.143 169.088 928.063 169.49 928.063 169.896C928.063 171.603 929.444 172.988 931.153 172.988C932.862 172.988 934.248 171.603 934.248 169.896C934.247 169.076 933.921 168.289 933.34 167.709C932.76 167.129 931.973 166.804 931.153 166.804ZM932.759 169.112C932.759 169.661 932.185 170.171 931.607 170.171C931.93 170.281 932.183 170.573 933.024 171.956H932.236C931.616 170.904 931.393 170.262 930.733 170.262H930.309V171.956H929.672V167.959H931.28C932.492 167.959 932.759 168.56 932.759 169.111V169.112ZM930.309 169.71H931.177C931.732 169.71 932.082 169.558 932.082 169.102C932.082 168.648 931.729 168.496 931.177 168.496H930.309V169.71ZM924.228 204.402H883.437V166.5H923.527V173.29H892.591V181.601H913.848V188.413H892.591V197.23H924.228V204.402ZM623.218 197.23H591.581V188.412H612.836V181.6H591.581V173.29H622.517V166.5H582.428V204.402H623.218V197.23ZM700.288 173.646H718.524V166.5H672.969V173.645H691.1V204.402H700.29V173.645L700.288 173.646ZM829.928 166.5H854.123C868.926 166.5 876.893 172.964 876.893 185.404C876.893 192.895 873.521 197.902 868.019 201.276C864.194 203.691 858.828 204.4 851.779 204.4H829.928V166.5ZM850.477 196.872C862.129 196.872 867.774 195.166 867.774 185.225C867.774 177.091 862.97 173.644 854.304 173.644H839.221V196.871L850.477 196.872ZM782.2 204.403H773.01L795.248 166.5H804.301L826.922 204.403H816.571L811.841 196.872H786.793L782.2 204.403ZM790.721 189.663H808.021L799.534 174.32L790.721 189.663ZM733.595 204.402H724.512V166.5H755.105C763.623 166.5 769.202 171.547 769.202 178.893C769.202 184.864 766.32 188.741 760.678 190.295L770.212 204.4H759.962L750.784 190.972H733.597V204.402H733.595ZM733.595 183.689H754.114C757.978 183.689 760.222 181.776 760.222 178.646C760.222 175.771 757.942 173.778 754.082 173.778H733.597V183.689H733.595Z" fill="black"/>
<path d="M673.546 190.555H657.556L665.552 204.402L656.715 209.507L648.719 195.655L642.826 185.452L648.719 175.247L656.715 161.4L665.552 166.5L657.556 180.352H673.546V190.555Z" fill="#99CC00"/>
<path d="M623.889 190.555H639.882L631.888 204.402L640.725 209.507L648.719 195.655L654.611 185.452L648.719 175.247L640.725 161.4L631.888 166.5L639.881 180.352H623.889L623.889 190.555Z" fill="#6633CC"/>
<path d="M63.2213 64.4944C62.6184 63.8295 61.7142 63.8901 61.2921 64.6758L51.526 84.3171C51.1643 85.1028 51.7069 86.0094 52.5508 86.0094H66.1752C66.5972 86.0094 67.0192 85.7677 67.2001 85.3447C70.2143 79.2406 68.4058 69.9939 63.2213 64.4944Z" fill="url(#paint0_linear_271_562)"/>
<path d="M70.3936 46.6052C64.9078 55.3078 65.2695 64.9171 68.8865 72.1692C72.5037 79.4216 75.2767 84.9211 75.4577 85.3441C75.6385 85.7673 76.0605 86.009 76.4824 86.009H90.1068C90.9508 86.009 91.5536 85.1024 91.1316 84.3167C91.1316 84.3167 72.8051 47.5721 72.3227 46.6656C72.0213 45.8195 70.9362 45.7591 70.3936 46.6052Z" fill="#2684FF"/>
<path d="M255.594 76.2785C255.594 70.5371 252.52 67.8175 243.959 65.9441C239.197 64.9167 238.051 63.8288 238.051 62.318C238.051 60.4445 239.74 59.5984 242.875 59.5984C246.672 59.5984 250.41 60.7466 253.967 62.3784V54.824C251.495 53.5548 247.637 52.5879 243.115 52.5879C234.616 52.5879 230.214 56.2744 230.214 62.3784C230.214 67.2132 232.445 71.0811 241.246 72.7732C246.491 73.8611 247.577 74.7072 247.577 76.4598C247.577 78.1519 246.491 79.2399 242.754 79.2399C238.474 79.2399 233.349 77.7895 230.033 75.7951V83.712C232.687 85.0416 236.182 86.492 242.694 86.492C251.918 86.492 255.594 82.3825 255.594 76.2785Z" fill="#0052CC"/>
<path d="M348.311 53.0715V86.0088H355.303V60.9281L358.257 67.576L368.143 86.0088H376.946V53.0715H369.953V74.3447L367.3 68.1803L359.342 53.0715H348.311Z" fill="#0052CC"/>
<path d="M303.882 53.0715H296.225V85.9484H303.882V53.0715Z" fill="#0052CC"/>
<path d="M287.362 76.2785C287.362 70.5371 284.287 67.8175 275.726 65.9441C270.964 64.9167 269.818 63.8288 269.818 62.318C269.818 60.4445 271.508 59.5984 274.641 59.5984C278.44 59.5984 282.177 60.7466 285.735 62.3784V54.824C283.262 53.5548 279.404 52.5879 274.882 52.5879C266.383 52.5879 261.982 56.2744 261.982 62.3784C261.982 67.2132 264.213 71.0811 273.014 72.7732C278.259 73.8611 279.344 74.7072 279.344 76.4598C279.344 78.1519 278.259 79.2399 274.522 79.2399C270.241 79.2399 265.117 77.7895 261.801 75.7951V83.712C264.453 85.0416 267.95 86.492 274.461 86.492C283.744 86.492 287.362 82.3825 287.362 76.2785Z" fill="#0052CC"/>
<path d="M170.895 53.0715V86.0088H186.569L189.04 78.8774H178.551V53.0715H170.895Z" fill="#0052CC"/>
<path d="M139.846 53.0728V60.2041H148.346V86.0101H156.002V60.2041H165.105V53.0728H139.846Z" fill="#0052CC"/>
<path d="M128.692 53.0725H118.624L107.17 85.9493H115.911L117.539 80.3892C119.468 80.9332 121.518 81.2958 123.688 81.2958C125.798 81.2958 127.848 80.9936 129.837 80.3892L131.465 85.9493H140.206L128.692 53.0725ZM123.628 74.5271C122.181 74.5271 120.734 74.2854 119.408 73.9227L123.628 59.5391L127.848 73.9227C126.521 74.2854 125.135 74.5271 123.628 74.5271Z" fill="#0052CC"/>
<path d="M213.694 53.071H203.626L192.172 85.9479H200.913L202.541 80.3879C204.47 80.9317 206.52 81.2943 208.69 81.2943C210.8 81.2943 212.85 80.9922 214.839 80.3879L216.467 85.9479H225.208L213.694 53.071ZM208.63 74.5256C207.183 74.5256 205.736 74.2839 204.41 73.9212L208.63 59.5376L212.849 73.9212C211.523 74.2839 210.077 74.5256 208.63 74.5256Z" fill="#0052CC"/>
<path d="M331.37 53.071H321.301L309.848 85.9479H318.588L320.215 80.3879C322.146 80.9317 324.196 81.2943 326.364 81.2943C328.475 81.2943 330.524 80.9922 332.514 80.3879L334.142 85.9479H342.883L331.37 53.071ZM326.364 74.5256C324.919 74.5256 323.471 74.2839 322.146 73.9212L326.364 59.5376L330.585 73.9212C329.199 74.2839 327.812 74.5256 326.364 74.5256Z" fill="#0052CC"/>
<defs>
<linearGradient id="paint0_linear_271_562" x1="68.6089" y1="67.4986" x2="58.2426" y2="85.4087" gradientUnits="userSpaceOnUse">
<stop stop-color="#0052CC"/>
<stop offset="0.9228" stop-color="#2684FF"/>
</linearGradient>
<clipPath id="clip0_271_562">
<rect width="237.395" height="67.8" fill="white" transform="translate(470 30)"/>
</clipPath>
</defs>
</svg>
