<svg width="1134" height="304" viewBox="0 0 1134 304" fill="none" xmlns="http://www.w3.org/2000/svg">
<rect width="1134" height="304" fill="white"/>
<rect x="65" y="112" width="203" height="105" rx="8" fill="#152145"/>
<path d="M87.624 148L86.664 145.264H82.216L81.272 148H79.816L83.784 136.8H85.08L89.048 148H87.624ZM86.232 144.032L84.792 139.888C84.6107 139.365 84.4933 138.987 84.44 138.752C84.3227 139.168 84.2053 139.547 84.088 139.888L82.632 144.032H86.232Z" fill="#152145"/>
<path d="M95.193 148V136.8H101.929V138.112H96.585V141.552H100.121V142.864H96.585V148H95.193ZM109.108 148L108.148 145.264H103.7L102.756 148H101.3L105.268 136.8H106.564L110.532 148H109.108ZM107.716 144.032L106.276 139.888C106.095 139.365 105.978 138.987 105.924 138.752C105.807 139.168 105.69 139.547 105.572 139.888L104.116 144.032H107.716ZM112.631 148V136.8H114.023V148H112.631ZM117.193 148V136.8H118.585V146.656H124.089V148H117.193Z" fill="white"/>
<path d="M87.624 170L86.664 167.264H82.216L81.272 170H79.816L83.784 158.8H85.08L89.048 170H87.624ZM86.232 166.032L84.792 161.888C84.6107 161.365 84.4933 160.987 84.44 160.752C84.3227 161.168 84.2053 161.547 84.088 161.888L82.632 166.032H86.232ZM94.5524 170V158.8H98.8404C99.491 158.8 100.056 158.896 100.536 159.088C101.027 159.28 101.406 159.541 101.672 159.872C101.939 160.192 102.136 160.544 102.264 160.928C102.392 161.312 102.456 161.723 102.456 162.16C102.456 163.045 102.152 163.824 101.544 164.496C100.947 165.168 100.046 165.504 98.8404 165.504H95.9444V170H94.5524ZM98.9364 164.208C99.6617 164.208 100.195 164.005 100.536 163.6C100.888 163.195 101.064 162.715 101.064 162.16C101.064 161.616 100.899 161.136 100.568 160.72C100.238 160.304 99.6937 160.096 98.9364 160.096H95.9444V164.208H98.9364ZM110.046 170L109.086 167.264H104.638L103.694 170H102.238L106.206 158.8H107.502L111.47 170H110.046ZM108.654 166.032L107.214 161.888C107.033 161.365 106.915 160.987 106.862 160.752C106.745 161.168 106.627 161.547 106.51 161.888L105.054 166.032H108.654ZM116.738 170.192C115.789 170.192 114.962 169.963 114.258 169.504C113.565 169.035 113.09 168.432 112.834 167.696L114.146 167.216C114.381 167.728 114.728 168.133 115.186 168.432C115.645 168.731 116.173 168.88 116.77 168.88C117.453 168.88 117.992 168.72 118.386 168.4C118.781 168.069 118.978 167.6 118.978 166.992C118.978 166.405 118.754 165.936 118.306 165.584C117.869 165.232 117.25 164.912 116.45 164.624C116.066 164.485 115.746 164.363 115.49 164.256C115.245 164.149 114.957 164 114.626 163.808C114.306 163.605 114.05 163.403 113.858 163.2C113.666 162.987 113.501 162.725 113.362 162.416C113.234 162.096 113.17 161.749 113.17 161.376C113.17 160.597 113.48 159.941 114.098 159.408C114.717 158.875 115.554 158.608 116.61 158.608C117.474 158.608 118.194 158.795 118.77 159.168C119.346 159.531 119.72 160.011 119.89 160.608L118.61 161.04C118.461 160.709 118.205 160.437 117.842 160.224C117.48 160.011 117.037 159.904 116.514 159.904C115.928 159.904 115.464 160.037 115.122 160.304C114.781 160.56 114.61 160.917 114.61 161.376C114.61 161.621 114.669 161.845 114.786 162.048C114.914 162.251 115.106 162.432 115.362 162.592C115.629 162.752 115.874 162.88 116.098 162.976C116.322 163.072 116.632 163.195 117.026 163.344C117.517 163.525 117.922 163.701 118.242 163.872C118.562 164.032 118.909 164.251 119.282 164.528C119.656 164.805 119.938 165.152 120.13 165.568C120.322 165.973 120.418 166.437 120.418 166.96C120.418 167.963 120.077 168.752 119.394 169.328C118.712 169.904 117.826 170.192 116.738 170.192ZM126.316 170.192C125.367 170.192 124.54 169.963 123.836 169.504C123.143 169.035 122.668 168.432 122.412 167.696L123.724 167.216C123.959 167.728 124.306 168.133 124.764 168.432C125.223 168.731 125.751 168.88 126.348 168.88C127.031 168.88 127.57 168.72 127.964 168.4C128.359 168.069 128.556 167.6 128.556 166.992C128.556 166.405 128.332 165.936 127.884 165.584C127.447 165.232 126.828 164.912 126.028 164.624C125.644 164.485 125.324 164.363 125.068 164.256C124.823 164.149 124.535 164 124.204 163.808C123.884 163.605 123.628 163.403 123.436 163.2C123.244 162.987 123.079 162.725 122.94 162.416C122.812 162.096 122.748 161.749 122.748 161.376C122.748 160.597 123.058 159.941 123.676 159.408C124.295 158.875 125.132 158.608 126.188 158.608C127.052 158.608 127.772 158.795 128.348 159.168C128.924 159.531 129.298 160.011 129.468 160.608L128.188 161.04C128.039 160.709 127.783 160.437 127.42 160.224C127.058 160.011 126.615 159.904 126.092 159.904C125.506 159.904 125.042 160.037 124.7 160.304C124.359 160.56 124.188 160.917 124.188 161.376C124.188 161.621 124.247 161.845 124.364 162.048C124.492 162.251 124.684 162.432 124.94 162.592C125.207 162.752 125.452 162.88 125.676 162.976C125.9 163.072 126.21 163.195 126.604 163.344C127.095 163.525 127.5 163.701 127.82 163.872C128.14 164.032 128.487 164.251 128.86 164.528C129.234 164.805 129.516 165.152 129.708 165.568C129.9 165.973 129.996 166.437 129.996 166.96C129.996 167.963 129.655 168.752 128.972 169.328C128.29 169.904 127.404 170.192 126.316 170.192Z" fill="white"/>
<path d="M68.9463 79.2031V92H66.3184V79.2031H68.9463ZM73.7363 84.5205V92H71.2051V82.4902H73.5781L73.7363 84.5205ZM73.3672 86.9111H72.6816C72.6816 86.208 72.7725 85.5752 72.9541 85.0127C73.1357 84.4443 73.3906 83.9609 73.7188 83.5625C74.0469 83.1582 74.4365 82.8506 74.8877 82.6396C75.3447 82.4229 75.8545 82.3145 76.417 82.3145C76.8623 82.3145 77.2695 82.3789 77.6387 82.5078C78.0078 82.6367 78.3242 82.8418 78.5879 83.123C78.8574 83.4043 79.0625 83.7764 79.2031 84.2393C79.3496 84.7021 79.4229 85.2676 79.4229 85.9355V92H76.874V85.9268C76.874 85.5049 76.8154 85.1768 76.6982 84.9424C76.5811 84.708 76.4082 84.5439 76.1797 84.4502C75.957 84.3506 75.6816 84.3008 75.3535 84.3008C75.0137 84.3008 74.7178 84.3682 74.4658 84.5029C74.2197 84.6377 74.0146 84.8252 73.8506 85.0654C73.6924 85.2998 73.5723 85.5752 73.4902 85.8916C73.4082 86.208 73.3672 86.5479 73.3672 86.9111ZM84.0195 82.4902V92H81.4795V82.4902H84.0195ZM81.3213 80.0117C81.3213 79.6426 81.4502 79.3379 81.708 79.0977C81.9658 78.8574 82.3115 78.7373 82.7451 78.7373C83.1729 78.7373 83.5156 78.8574 83.7734 79.0977C84.0371 79.3379 84.1689 79.6426 84.1689 80.0117C84.1689 80.3809 84.0371 80.6855 83.7734 80.9258C83.5156 81.166 83.1729 81.2861 82.7451 81.2861C82.3115 81.2861 81.9658 81.166 81.708 80.9258C81.4502 80.6855 81.3213 80.3809 81.3213 80.0117ZM90.7695 82.4902V84.2832H85.2324V82.4902H90.7695ZM86.6035 80.1436H89.1348V89.1348C89.1348 89.4102 89.1699 89.6211 89.2402 89.7676C89.3164 89.9141 89.4277 90.0166 89.5742 90.0752C89.7207 90.1279 89.9053 90.1543 90.1279 90.1543C90.2861 90.1543 90.4268 90.1484 90.5498 90.1367C90.6787 90.1191 90.7871 90.1016 90.875 90.084L90.8838 91.9473C90.667 92.0176 90.4326 92.0732 90.1807 92.1143C89.9287 92.1553 89.6504 92.1758 89.3457 92.1758C88.7891 92.1758 88.3027 92.085 87.8867 91.9033C87.4766 91.7158 87.1602 91.417 86.9375 91.0068C86.7148 90.5967 86.6035 90.0576 86.6035 89.3896V80.1436ZM94.8828 82.4902V92H92.3428V82.4902H94.8828ZM92.1846 80.0117C92.1846 79.6426 92.3135 79.3379 92.5713 79.0977C92.8291 78.8574 93.1748 78.7373 93.6084 78.7373C94.0361 78.7373 94.3789 78.8574 94.6367 79.0977C94.9004 79.3379 95.0322 79.6426 95.0322 80.0117C95.0322 80.3809 94.9004 80.6855 94.6367 80.9258C94.3789 81.166 94.0361 81.2861 93.6084 81.2861C93.1748 81.2861 92.8291 81.166 92.5713 80.9258C92.3135 80.6855 92.1846 80.3809 92.1846 80.0117ZM102.107 89.8555V85.6191C102.107 85.3145 102.058 85.0537 101.958 84.8369C101.858 84.6143 101.703 84.4414 101.492 84.3184C101.287 84.1953 101.021 84.1338 100.692 84.1338C100.411 84.1338 100.168 84.1836 99.9629 84.2832C99.7578 84.377 99.5996 84.5146 99.4883 84.6963C99.377 84.8721 99.3213 85.0801 99.3213 85.3203H96.79C96.79 84.916 96.8838 84.5322 97.0713 84.1689C97.2588 83.8057 97.5312 83.4863 97.8887 83.2109C98.2461 82.9297 98.6709 82.71 99.1631 82.5518C99.6611 82.3936 100.218 82.3145 100.833 82.3145C101.571 82.3145 102.228 82.4375 102.802 82.6836C103.376 82.9297 103.827 83.2988 104.155 83.791C104.489 84.2832 104.656 84.8984 104.656 85.6367V89.7061C104.656 90.2275 104.688 90.6553 104.753 90.9893C104.817 91.3174 104.911 91.6045 105.034 91.8506V92H102.477C102.354 91.7422 102.26 91.4199 102.195 91.0332C102.137 90.6406 102.107 90.248 102.107 89.8555ZM102.441 86.208L102.459 87.6406H101.044C100.71 87.6406 100.42 87.6787 100.174 87.7549C99.9277 87.8311 99.7256 87.9395 99.5674 88.0801C99.4092 88.2148 99.292 88.373 99.2158 88.5547C99.1455 88.7363 99.1104 88.9355 99.1104 89.1523C99.1104 89.3691 99.1602 89.5654 99.2598 89.7412C99.3594 89.9111 99.5029 90.0459 99.6904 90.1455C99.8779 90.2393 100.098 90.2861 100.35 90.2861C100.73 90.2861 101.062 90.21 101.343 90.0576C101.624 89.9053 101.841 89.7178 101.993 89.4951C102.151 89.2725 102.233 89.0615 102.239 88.8623L102.907 89.9346C102.813 90.1748 102.685 90.4238 102.521 90.6816C102.362 90.9395 102.16 91.1826 101.914 91.4111C101.668 91.6338 101.372 91.8184 101.026 91.9648C100.681 92.1055 100.271 92.1758 99.7959 92.1758C99.1924 92.1758 98.6445 92.0557 98.1523 91.8154C97.666 91.5693 97.2793 91.2324 96.9922 90.8047C96.7109 90.3711 96.5703 89.8789 96.5703 89.3281C96.5703 88.8301 96.6641 88.3877 96.8516 88.001C97.0391 87.6143 97.3145 87.2891 97.6777 87.0254C98.0469 86.7559 98.5068 86.5537 99.0576 86.4189C99.6084 86.2783 100.247 86.208 100.974 86.208H102.441ZM109.279 78.5V92H106.739V78.5H109.279ZM122.674 88.6514C122.674 88.4229 122.639 88.2178 122.568 88.0361C122.504 87.8486 122.381 87.6787 122.199 87.5264C122.018 87.3682 121.763 87.2129 121.435 87.0605C121.106 86.9082 120.682 86.75 120.16 86.5859C119.58 86.3984 119.029 86.1875 118.508 85.9531C117.992 85.7188 117.535 85.4463 117.137 85.1357C116.744 84.8193 116.434 84.4531 116.205 84.0371C115.982 83.6211 115.871 83.1377 115.871 82.5869C115.871 82.0537 115.988 81.5703 116.223 81.1367C116.457 80.6973 116.785 80.3223 117.207 80.0117C117.629 79.6953 118.127 79.4521 118.701 79.2822C119.281 79.1123 119.917 79.0273 120.608 79.0273C121.552 79.0273 122.375 79.1973 123.078 79.5371C123.781 79.877 124.326 80.3428 124.713 80.9346C125.105 81.5264 125.302 82.2031 125.302 82.9648H122.683C122.683 82.5898 122.604 82.2617 122.445 81.9805C122.293 81.6934 122.059 81.4678 121.742 81.3037C121.432 81.1396 121.039 81.0576 120.564 81.0576C120.107 81.0576 119.727 81.1279 119.422 81.2686C119.117 81.4033 118.889 81.5879 118.736 81.8223C118.584 82.0508 118.508 82.3086 118.508 82.5957C118.508 82.8125 118.561 83.0088 118.666 83.1846C118.777 83.3604 118.941 83.5244 119.158 83.6768C119.375 83.8291 119.642 83.9727 119.958 84.1074C120.274 84.2422 120.641 84.374 121.057 84.5029C121.754 84.7139 122.366 84.9512 122.894 85.2148C123.427 85.4785 123.872 85.7744 124.229 86.1025C124.587 86.4307 124.856 86.8027 125.038 87.2188C125.22 87.6348 125.311 88.1064 125.311 88.6338C125.311 89.1904 125.202 89.6885 124.985 90.1279C124.769 90.5674 124.455 90.9395 124.045 91.2441C123.635 91.5488 123.146 91.7803 122.577 91.9385C122.009 92.0967 121.373 92.1758 120.67 92.1758C120.037 92.1758 119.413 92.0938 118.798 91.9297C118.183 91.7598 117.623 91.5049 117.119 91.165C116.621 90.8252 116.223 90.3916 115.924 89.8643C115.625 89.3369 115.476 88.7129 115.476 87.9922H118.121C118.121 88.3906 118.183 88.7275 118.306 89.0029C118.429 89.2783 118.602 89.501 118.824 89.6709C119.053 89.8408 119.322 89.9639 119.633 90.04C119.949 90.1162 120.295 90.1543 120.67 90.1543C121.127 90.1543 121.502 90.0898 121.795 89.9609C122.094 89.832 122.313 89.6533 122.454 89.4248C122.601 89.1963 122.674 88.9385 122.674 88.6514ZM131.604 82.4902V84.2832H126.066V82.4902H131.604ZM127.438 80.1436H129.969V89.1348C129.969 89.4102 130.004 89.6211 130.074 89.7676C130.15 89.9141 130.262 90.0166 130.408 90.0752C130.555 90.1279 130.739 90.1543 130.962 90.1543C131.12 90.1543 131.261 90.1484 131.384 90.1367C131.513 90.1191 131.621 90.1016 131.709 90.084L131.718 91.9473C131.501 92.0176 131.267 92.0732 131.015 92.1143C130.763 92.1553 130.484 92.1758 130.18 92.1758C129.623 92.1758 129.137 92.085 128.721 91.9033C128.311 91.7158 127.994 91.417 127.771 91.0068C127.549 90.5967 127.438 90.0576 127.438 89.3896V80.1436ZM138.178 89.8555V85.6191C138.178 85.3145 138.128 85.0537 138.028 84.8369C137.929 84.6143 137.773 84.4414 137.562 84.3184C137.357 84.1953 137.091 84.1338 136.763 84.1338C136.481 84.1338 136.238 84.1836 136.033 84.2832C135.828 84.377 135.67 84.5146 135.559 84.6963C135.447 84.8721 135.392 85.0801 135.392 85.3203H132.86C132.86 84.916 132.954 84.5322 133.142 84.1689C133.329 83.8057 133.602 83.4863 133.959 83.2109C134.316 82.9297 134.741 82.71 135.233 82.5518C135.731 82.3936 136.288 82.3145 136.903 82.3145C137.642 82.3145 138.298 82.4375 138.872 82.6836C139.446 82.9297 139.897 83.2988 140.226 83.791C140.56 84.2832 140.727 84.8984 140.727 85.6367V89.7061C140.727 90.2275 140.759 90.6553 140.823 90.9893C140.888 91.3174 140.981 91.6045 141.104 91.8506V92H138.547C138.424 91.7422 138.33 91.4199 138.266 91.0332C138.207 90.6406 138.178 90.248 138.178 89.8555ZM138.512 86.208L138.529 87.6406H137.114C136.78 87.6406 136.49 87.6787 136.244 87.7549C135.998 87.8311 135.796 87.9395 135.638 88.0801C135.479 88.2148 135.362 88.373 135.286 88.5547C135.216 88.7363 135.181 88.9355 135.181 89.1523C135.181 89.3691 135.23 89.5654 135.33 89.7412C135.43 89.9111 135.573 90.0459 135.761 90.1455C135.948 90.2393 136.168 90.2861 136.42 90.2861C136.801 90.2861 137.132 90.21 137.413 90.0576C137.694 89.9053 137.911 89.7178 138.063 89.4951C138.222 89.2725 138.304 89.0615 138.31 88.8623L138.978 89.9346C138.884 90.1748 138.755 90.4238 138.591 90.6816C138.433 90.9395 138.23 91.1826 137.984 91.4111C137.738 91.6338 137.442 91.8184 137.097 91.9648C136.751 92.1055 136.341 92.1758 135.866 92.1758C135.263 92.1758 134.715 92.0557 134.223 91.8154C133.736 91.5693 133.35 91.2324 133.062 90.8047C132.781 90.3711 132.641 89.8789 132.641 89.3281C132.641 88.8301 132.734 88.3877 132.922 88.001C133.109 87.6143 133.385 87.2891 133.748 87.0254C134.117 86.7559 134.577 86.5537 135.128 86.4189C135.679 86.2783 136.317 86.208 137.044 86.208H138.512ZM147.336 82.4902V84.2832H141.799V82.4902H147.336ZM143.17 80.1436H145.701V89.1348C145.701 89.4102 145.736 89.6211 145.807 89.7676C145.883 89.9141 145.994 90.0166 146.141 90.0752C146.287 90.1279 146.472 90.1543 146.694 90.1543C146.853 90.1543 146.993 90.1484 147.116 90.1367C147.245 90.1191 147.354 90.1016 147.441 90.084L147.45 91.9473C147.233 92.0176 146.999 92.0732 146.747 92.1143C146.495 92.1553 146.217 92.1758 145.912 92.1758C145.355 92.1758 144.869 92.085 144.453 91.9033C144.043 91.7158 143.727 91.417 143.504 91.0068C143.281 90.5967 143.17 90.0576 143.17 89.3896V80.1436ZM153.154 92.1758C152.416 92.1758 151.754 92.0586 151.168 91.8242C150.582 91.584 150.084 91.2529 149.674 90.8311C149.27 90.4092 148.959 89.9199 148.742 89.3633C148.525 88.8008 148.417 88.2031 148.417 87.5703V87.2188C148.417 86.498 148.52 85.8389 148.725 85.2412C148.93 84.6436 149.223 84.125 149.604 83.6855C149.99 83.2461 150.459 82.9092 151.01 82.6748C151.561 82.4346 152.182 82.3145 152.873 82.3145C153.547 82.3145 154.145 82.4258 154.666 82.6484C155.188 82.8711 155.624 83.1875 155.976 83.5977C156.333 84.0078 156.603 84.5 156.784 85.0742C156.966 85.6426 157.057 86.2754 157.057 86.9727V88.0273H149.498V86.3398H154.569V86.1465C154.569 85.7949 154.505 85.4814 154.376 85.2061C154.253 84.9248 154.065 84.7021 153.813 84.5381C153.562 84.374 153.239 84.292 152.847 84.292C152.513 84.292 152.226 84.3652 151.985 84.5117C151.745 84.6582 151.549 84.8633 151.396 85.127C151.25 85.3906 151.139 85.7012 151.062 86.0586C150.992 86.4102 150.957 86.7969 150.957 87.2188V87.5703C150.957 87.9512 151.01 88.3027 151.115 88.625C151.227 88.9473 151.382 89.2256 151.581 89.46C151.786 89.6943 152.032 89.876 152.319 90.0049C152.612 90.1338 152.943 90.1982 153.312 90.1982C153.77 90.1982 154.194 90.1104 154.587 89.9346C154.985 89.7529 155.328 89.4805 155.615 89.1172L156.846 90.4531C156.646 90.7402 156.374 91.0156 156.028 91.2793C155.688 91.543 155.278 91.7598 154.798 91.9297C154.317 92.0938 153.77 92.1758 153.154 92.1758Z" fill="black"/>
<path d="M451.677 84.415V86.4717H444.997V84.415H451.677ZM445.779 79.2031V92H443.143V79.2031H445.779ZM453.558 79.2031V92H450.93V79.2031H453.558ZM455.289 87.3418V87.1572C455.289 86.46 455.389 85.8184 455.588 85.2324C455.787 84.6406 456.077 84.1279 456.458 83.6943C456.839 83.2607 457.308 82.9238 457.864 82.6836C458.421 82.4375 459.06 82.3145 459.78 82.3145C460.501 82.3145 461.143 82.4375 461.705 82.6836C462.268 82.9238 462.739 83.2607 463.12 83.6943C463.507 84.1279 463.8 84.6406 463.999 85.2324C464.198 85.8184 464.298 86.46 464.298 87.1572V87.3418C464.298 88.0332 464.198 88.6748 463.999 89.2666C463.8 89.8525 463.507 90.3652 463.12 90.8047C462.739 91.2383 462.271 91.5752 461.714 91.8154C461.157 92.0557 460.519 92.1758 459.798 92.1758C459.077 92.1758 458.436 92.0557 457.873 91.8154C457.316 91.5752 456.845 91.2383 456.458 90.8047C456.077 90.3652 455.787 89.8525 455.588 89.2666C455.389 88.6748 455.289 88.0332 455.289 87.3418ZM457.82 87.1572V87.3418C457.82 87.7402 457.855 88.1123 457.926 88.458C457.996 88.8037 458.107 89.1084 458.26 89.3721C458.418 89.6299 458.623 89.832 458.875 89.9785C459.127 90.125 459.435 90.1982 459.798 90.1982C460.149 90.1982 460.451 90.125 460.703 89.9785C460.955 89.832 461.157 89.6299 461.31 89.3721C461.462 89.1084 461.573 88.8037 461.644 88.458C461.72 88.1123 461.758 87.7402 461.758 87.3418V87.1572C461.758 86.7705 461.72 86.4072 461.644 86.0674C461.573 85.7217 461.459 85.417 461.301 85.1533C461.148 84.8838 460.946 84.6729 460.694 84.5205C460.442 84.3682 460.138 84.292 459.78 84.292C459.423 84.292 459.118 84.3682 458.866 84.5205C458.62 84.6729 458.418 84.8838 458.26 85.1533C458.107 85.417 457.996 85.7217 457.926 86.0674C457.855 86.4072 457.82 86.7705 457.82 87.1572ZM468.947 90.1543L471.057 82.4902H473.702L470.494 92H468.895L468.947 90.1543ZM467.497 82.4902L469.615 90.1631L469.659 92H468.051L464.843 82.4902H467.497ZM479.09 92.1758C478.352 92.1758 477.689 92.0586 477.104 91.8242C476.518 91.584 476.02 91.2529 475.609 90.8311C475.205 90.4092 474.895 89.9199 474.678 89.3633C474.461 88.8008 474.353 88.2031 474.353 87.5703V87.2188C474.353 86.498 474.455 85.8389 474.66 85.2412C474.865 84.6436 475.158 84.125 475.539 83.6855C475.926 83.2461 476.395 82.9092 476.945 82.6748C477.496 82.4346 478.117 82.3145 478.809 82.3145C479.482 82.3145 480.08 82.4258 480.602 82.6484C481.123 82.8711 481.56 83.1875 481.911 83.5977C482.269 84.0078 482.538 84.5 482.72 85.0742C482.901 85.6426 482.992 86.2754 482.992 86.9727V88.0273H475.434V86.3398H480.505V86.1465C480.505 85.7949 480.44 85.4814 480.312 85.2061C480.188 84.9248 480.001 84.7021 479.749 84.5381C479.497 84.374 479.175 84.292 478.782 84.292C478.448 84.292 478.161 84.3652 477.921 84.5117C477.681 84.6582 477.484 84.8633 477.332 85.127C477.186 85.3906 477.074 85.7012 476.998 86.0586C476.928 86.4102 476.893 86.7969 476.893 87.2188V87.5703C476.893 87.9512 476.945 88.3027 477.051 88.625C477.162 88.9473 477.317 89.2256 477.517 89.46C477.722 89.6943 477.968 89.876 478.255 90.0049C478.548 90.1338 478.879 90.1982 479.248 90.1982C479.705 90.1982 480.13 90.1104 480.522 89.9346C480.921 89.7529 481.264 89.4805 481.551 89.1172L482.781 90.4531C482.582 90.7402 482.31 91.0156 481.964 91.2793C481.624 91.543 481.214 91.7598 480.733 91.9297C480.253 92.0938 479.705 92.1758 479.09 92.1758ZM486.965 84.5645V92H484.434V82.4902H486.815L486.965 84.5645ZM489.83 82.4287L489.786 84.7754C489.663 84.7578 489.514 84.7432 489.338 84.7314C489.168 84.7139 489.013 84.7051 488.872 84.7051C488.515 84.7051 488.204 84.752 487.94 84.8457C487.683 84.9336 487.466 85.0654 487.29 85.2412C487.12 85.417 486.991 85.6309 486.903 85.8828C486.821 86.1348 486.774 86.4219 486.763 86.7441L486.253 86.5859C486.253 85.9707 486.314 85.4053 486.438 84.8896C486.561 84.3682 486.739 83.9141 486.974 83.5273C487.214 83.1406 487.507 82.8418 487.853 82.6309C488.198 82.4199 488.594 82.3145 489.039 82.3145C489.18 82.3145 489.323 82.3262 489.47 82.3496C489.616 82.3672 489.736 82.3936 489.83 82.4287ZM502.328 88.6514C502.328 88.4229 502.293 88.2178 502.223 88.0361C502.158 87.8486 502.035 87.6787 501.854 87.5264C501.672 87.3682 501.417 87.2129 501.089 87.0605C500.761 86.9082 500.336 86.75 499.814 86.5859C499.234 86.3984 498.684 86.1875 498.162 85.9531C497.646 85.7188 497.189 85.4463 496.791 85.1357C496.398 84.8193 496.088 84.4531 495.859 84.0371C495.637 83.6211 495.525 83.1377 495.525 82.5869C495.525 82.0537 495.643 81.5703 495.877 81.1367C496.111 80.6973 496.439 80.3223 496.861 80.0117C497.283 79.6953 497.781 79.4521 498.355 79.2822C498.936 79.1123 499.571 79.0273 500.263 79.0273C501.206 79.0273 502.029 79.1973 502.732 79.5371C503.436 79.877 503.98 80.3428 504.367 80.9346C504.76 81.5264 504.956 82.2031 504.956 82.9648H502.337C502.337 82.5898 502.258 82.2617 502.1 81.9805C501.947 81.6934 501.713 81.4678 501.396 81.3037C501.086 81.1396 500.693 81.0576 500.219 81.0576C499.762 81.0576 499.381 81.1279 499.076 81.2686C498.771 81.4033 498.543 81.5879 498.391 81.8223C498.238 82.0508 498.162 82.3086 498.162 82.5957C498.162 82.8125 498.215 83.0088 498.32 83.1846C498.432 83.3604 498.596 83.5244 498.812 83.6768C499.029 83.8291 499.296 83.9727 499.612 84.1074C499.929 84.2422 500.295 84.374 500.711 84.5029C501.408 84.7139 502.021 84.9512 502.548 85.2148C503.081 85.4785 503.526 85.7744 503.884 86.1025C504.241 86.4307 504.511 86.8027 504.692 87.2188C504.874 87.6348 504.965 88.1064 504.965 88.6338C504.965 89.1904 504.856 89.6885 504.64 90.1279C504.423 90.5674 504.109 90.9395 503.699 91.2441C503.289 91.5488 502.8 91.7803 502.231 91.9385C501.663 92.0967 501.027 92.1758 500.324 92.1758C499.691 92.1758 499.067 92.0938 498.452 91.9297C497.837 91.7598 497.277 91.5049 496.773 91.165C496.275 90.8252 495.877 90.3916 495.578 89.8643C495.279 89.3369 495.13 88.7129 495.13 87.9922H497.775C497.775 88.3906 497.837 88.7275 497.96 89.0029C498.083 89.2783 498.256 89.501 498.479 89.6709C498.707 89.8408 498.977 89.9639 499.287 90.04C499.604 90.1162 499.949 90.1543 500.324 90.1543C500.781 90.1543 501.156 90.0898 501.449 89.9609C501.748 89.832 501.968 89.6533 502.108 89.4248C502.255 89.1963 502.328 88.9385 502.328 88.6514ZM511.258 82.4902V84.2832H505.721V82.4902H511.258ZM507.092 80.1436H509.623V89.1348C509.623 89.4102 509.658 89.6211 509.729 89.7676C509.805 89.9141 509.916 90.0166 510.062 90.0752C510.209 90.1279 510.394 90.1543 510.616 90.1543C510.774 90.1543 510.915 90.1484 511.038 90.1367C511.167 90.1191 511.275 90.1016 511.363 90.084L511.372 91.9473C511.155 92.0176 510.921 92.0732 510.669 92.1143C510.417 92.1553 510.139 92.1758 509.834 92.1758C509.277 92.1758 508.791 92.085 508.375 91.9033C507.965 91.7158 507.648 91.417 507.426 91.0068C507.203 90.5967 507.092 90.0576 507.092 89.3896V80.1436ZM517.832 89.8555V85.6191C517.832 85.3145 517.782 85.0537 517.683 84.8369C517.583 84.6143 517.428 84.4414 517.217 84.3184C517.012 84.1953 516.745 84.1338 516.417 84.1338C516.136 84.1338 515.893 84.1836 515.688 84.2832C515.482 84.377 515.324 84.5146 515.213 84.6963C515.102 84.8721 515.046 85.0801 515.046 85.3203H512.515C512.515 84.916 512.608 84.5322 512.796 84.1689C512.983 83.8057 513.256 83.4863 513.613 83.2109C513.971 82.9297 514.396 82.71 514.888 82.5518C515.386 82.3936 515.942 82.3145 516.558 82.3145C517.296 82.3145 517.952 82.4375 518.526 82.6836C519.101 82.9297 519.552 83.2988 519.88 83.791C520.214 84.2832 520.381 84.8984 520.381 85.6367V89.7061C520.381 90.2275 520.413 90.6553 520.478 90.9893C520.542 91.3174 520.636 91.6045 520.759 91.8506V92H518.201C518.078 91.7422 517.984 91.4199 517.92 91.0332C517.861 90.6406 517.832 90.248 517.832 89.8555ZM518.166 86.208L518.184 87.6406H516.769C516.435 87.6406 516.145 87.6787 515.898 87.7549C515.652 87.8311 515.45 87.9395 515.292 88.0801C515.134 88.2148 515.017 88.373 514.94 88.5547C514.87 88.7363 514.835 88.9355 514.835 89.1523C514.835 89.3691 514.885 89.5654 514.984 89.7412C515.084 89.9111 515.228 90.0459 515.415 90.1455C515.603 90.2393 515.822 90.2861 516.074 90.2861C516.455 90.2861 516.786 90.21 517.067 90.0576C517.349 89.9053 517.565 89.7178 517.718 89.4951C517.876 89.2725 517.958 89.0615 517.964 88.8623L518.632 89.9346C518.538 90.1748 518.409 90.4238 518.245 90.6816C518.087 90.9395 517.885 91.1826 517.639 91.4111C517.393 91.6338 517.097 91.8184 516.751 91.9648C516.405 92.1055 515.995 92.1758 515.521 92.1758C514.917 92.1758 514.369 92.0557 513.877 91.8154C513.391 91.5693 513.004 91.2324 512.717 90.8047C512.436 90.3711 512.295 89.8789 512.295 89.3281C512.295 88.8301 512.389 88.3877 512.576 88.001C512.764 87.6143 513.039 87.2891 513.402 87.0254C513.771 86.7559 514.231 86.5537 514.782 86.4189C515.333 86.2783 515.972 86.208 516.698 86.208H518.166ZM526.99 82.4902V84.2832H521.453V82.4902H526.99ZM522.824 80.1436H525.355V89.1348C525.355 89.4102 525.391 89.6211 525.461 89.7676C525.537 89.9141 525.648 90.0166 525.795 90.0752C525.941 90.1279 526.126 90.1543 526.349 90.1543C526.507 90.1543 526.647 90.1484 526.771 90.1367C526.899 90.1191 527.008 90.1016 527.096 90.084L527.104 91.9473C526.888 92.0176 526.653 92.0732 526.401 92.1143C526.149 92.1553 525.871 92.1758 525.566 92.1758C525.01 92.1758 524.523 92.085 524.107 91.9033C523.697 91.7158 523.381 91.417 523.158 91.0068C522.936 90.5967 522.824 90.0576 522.824 89.3896V80.1436ZM532.809 92.1758C532.07 92.1758 531.408 92.0586 530.822 91.8242C530.236 91.584 529.738 91.2529 529.328 90.8311C528.924 90.4092 528.613 89.9199 528.396 89.3633C528.18 88.8008 528.071 88.2031 528.071 87.5703V87.2188C528.071 86.498 528.174 85.8389 528.379 85.2412C528.584 84.6436 528.877 84.125 529.258 83.6855C529.645 83.2461 530.113 82.9092 530.664 82.6748C531.215 82.4346 531.836 82.3145 532.527 82.3145C533.201 82.3145 533.799 82.4258 534.32 82.6484C534.842 82.8711 535.278 83.1875 535.63 83.5977C535.987 84.0078 536.257 84.5 536.438 85.0742C536.62 85.6426 536.711 86.2754 536.711 86.9727V88.0273H529.152V86.3398H534.224V86.1465C534.224 85.7949 534.159 85.4814 534.03 85.2061C533.907 84.9248 533.72 84.7021 533.468 84.5381C533.216 84.374 532.894 84.292 532.501 84.292C532.167 84.292 531.88 84.3652 531.64 84.5117C531.399 84.6582 531.203 84.8633 531.051 85.127C530.904 85.3906 530.793 85.7012 530.717 86.0586C530.646 86.4102 530.611 86.7969 530.611 87.2188V87.5703C530.611 87.9512 530.664 88.3027 530.77 88.625C530.881 88.9473 531.036 89.2256 531.235 89.46C531.44 89.6943 531.687 89.876 531.974 90.0049C532.267 90.1338 532.598 90.1982 532.967 90.1982C533.424 90.1982 533.849 90.1104 534.241 89.9346C534.64 89.7529 534.982 89.4805 535.27 89.1172L536.5 90.4531C536.301 90.7402 536.028 91.0156 535.683 91.2793C535.343 91.543 534.933 91.7598 534.452 91.9297C533.972 92.0938 533.424 92.1758 532.809 92.1758Z" fill="black"/>
<path d="M848.677 84.415V86.4717H841.997V84.415H848.677ZM842.779 79.2031V92H840.143V79.2031H842.779ZM850.558 79.2031V92H847.93V79.2031H850.558ZM852.289 87.3418V87.1572C852.289 86.46 852.389 85.8184 852.588 85.2324C852.787 84.6406 853.077 84.1279 853.458 83.6943C853.839 83.2607 854.308 82.9238 854.864 82.6836C855.421 82.4375 856.06 82.3145 856.78 82.3145C857.501 82.3145 858.143 82.4375 858.705 82.6836C859.268 82.9238 859.739 83.2607 860.12 83.6943C860.507 84.1279 860.8 84.6406 860.999 85.2324C861.198 85.8184 861.298 86.46 861.298 87.1572V87.3418C861.298 88.0332 861.198 88.6748 860.999 89.2666C860.8 89.8525 860.507 90.3652 860.12 90.8047C859.739 91.2383 859.271 91.5752 858.714 91.8154C858.157 92.0557 857.519 92.1758 856.798 92.1758C856.077 92.1758 855.436 92.0557 854.873 91.8154C854.316 91.5752 853.845 91.2383 853.458 90.8047C853.077 90.3652 852.787 89.8525 852.588 89.2666C852.389 88.6748 852.289 88.0332 852.289 87.3418ZM854.82 87.1572V87.3418C854.82 87.7402 854.855 88.1123 854.926 88.458C854.996 88.8037 855.107 89.1084 855.26 89.3721C855.418 89.6299 855.623 89.832 855.875 89.9785C856.127 90.125 856.435 90.1982 856.798 90.1982C857.149 90.1982 857.451 90.125 857.703 89.9785C857.955 89.832 858.157 89.6299 858.31 89.3721C858.462 89.1084 858.573 88.8037 858.644 88.458C858.72 88.1123 858.758 87.7402 858.758 87.3418V87.1572C858.758 86.7705 858.72 86.4072 858.644 86.0674C858.573 85.7217 858.459 85.417 858.301 85.1533C858.148 84.8838 857.946 84.6729 857.694 84.5205C857.442 84.3682 857.138 84.292 856.78 84.292C856.423 84.292 856.118 84.3682 855.866 84.5205C855.62 84.6729 855.418 84.8838 855.26 85.1533C855.107 85.417 854.996 85.7217 854.926 86.0674C854.855 86.4072 854.82 86.7705 854.82 87.1572ZM865.947 90.1543L868.057 82.4902H870.702L867.494 92H865.895L865.947 90.1543ZM864.497 82.4902L866.615 90.1631L866.659 92H865.051L861.843 82.4902H864.497ZM876.09 92.1758C875.352 92.1758 874.689 92.0586 874.104 91.8242C873.518 91.584 873.02 91.2529 872.609 90.8311C872.205 90.4092 871.895 89.9199 871.678 89.3633C871.461 88.8008 871.353 88.2031 871.353 87.5703V87.2188C871.353 86.498 871.455 85.8389 871.66 85.2412C871.865 84.6436 872.158 84.125 872.539 83.6855C872.926 83.2461 873.395 82.9092 873.945 82.6748C874.496 82.4346 875.117 82.3145 875.809 82.3145C876.482 82.3145 877.08 82.4258 877.602 82.6484C878.123 82.8711 878.56 83.1875 878.911 83.5977C879.269 84.0078 879.538 84.5 879.72 85.0742C879.901 85.6426 879.992 86.2754 879.992 86.9727V88.0273H872.434V86.3398H877.505V86.1465C877.505 85.7949 877.44 85.4814 877.312 85.2061C877.188 84.9248 877.001 84.7021 876.749 84.5381C876.497 84.374 876.175 84.292 875.782 84.292C875.448 84.292 875.161 84.3652 874.921 84.5117C874.681 84.6582 874.484 84.8633 874.332 85.127C874.186 85.3906 874.074 85.7012 873.998 86.0586C873.928 86.4102 873.893 86.7969 873.893 87.2188V87.5703C873.893 87.9512 873.945 88.3027 874.051 88.625C874.162 88.9473 874.317 89.2256 874.517 89.46C874.722 89.6943 874.968 89.876 875.255 90.0049C875.548 90.1338 875.879 90.1982 876.248 90.1982C876.705 90.1982 877.13 90.1104 877.522 89.9346C877.921 89.7529 878.264 89.4805 878.551 89.1172L879.781 90.4531C879.582 90.7402 879.31 91.0156 878.964 91.2793C878.624 91.543 878.214 91.7598 877.733 91.9297C877.253 92.0938 876.705 92.1758 876.09 92.1758ZM883.965 84.5645V92H881.434V82.4902H883.815L883.965 84.5645ZM886.83 82.4287L886.786 84.7754C886.663 84.7578 886.514 84.7432 886.338 84.7314C886.168 84.7139 886.013 84.7051 885.872 84.7051C885.515 84.7051 885.204 84.752 884.94 84.8457C884.683 84.9336 884.466 85.0654 884.29 85.2412C884.12 85.417 883.991 85.6309 883.903 85.8828C883.821 86.1348 883.774 86.4219 883.763 86.7441L883.253 86.5859C883.253 85.9707 883.314 85.4053 883.438 84.8896C883.561 84.3682 883.739 83.9141 883.974 83.5273C884.214 83.1406 884.507 82.8418 884.853 82.6309C885.198 82.4199 885.594 82.3145 886.039 82.3145C886.18 82.3145 886.323 82.3262 886.47 82.3496C886.616 82.3672 886.736 82.3936 886.83 82.4287ZM899.328 88.6514C899.328 88.4229 899.293 88.2178 899.223 88.0361C899.158 87.8486 899.035 87.6787 898.854 87.5264C898.672 87.3682 898.417 87.2129 898.089 87.0605C897.761 86.9082 897.336 86.75 896.814 86.5859C896.234 86.3984 895.684 86.1875 895.162 85.9531C894.646 85.7188 894.189 85.4463 893.791 85.1357C893.398 84.8193 893.088 84.4531 892.859 84.0371C892.637 83.6211 892.525 83.1377 892.525 82.5869C892.525 82.0537 892.643 81.5703 892.877 81.1367C893.111 80.6973 893.439 80.3223 893.861 80.0117C894.283 79.6953 894.781 79.4521 895.355 79.2822C895.936 79.1123 896.571 79.0273 897.263 79.0273C898.206 79.0273 899.029 79.1973 899.732 79.5371C900.436 79.877 900.98 80.3428 901.367 80.9346C901.76 81.5264 901.956 82.2031 901.956 82.9648H899.337C899.337 82.5898 899.258 82.2617 899.1 81.9805C898.947 81.6934 898.713 81.4678 898.396 81.3037C898.086 81.1396 897.693 81.0576 897.219 81.0576C896.762 81.0576 896.381 81.1279 896.076 81.2686C895.771 81.4033 895.543 81.5879 895.391 81.8223C895.238 82.0508 895.162 82.3086 895.162 82.5957C895.162 82.8125 895.215 83.0088 895.32 83.1846C895.432 83.3604 895.596 83.5244 895.812 83.6768C896.029 83.8291 896.296 83.9727 896.612 84.1074C896.929 84.2422 897.295 84.374 897.711 84.5029C898.408 84.7139 899.021 84.9512 899.548 85.2148C900.081 85.4785 900.526 85.7744 900.884 86.1025C901.241 86.4307 901.511 86.8027 901.692 87.2188C901.874 87.6348 901.965 88.1064 901.965 88.6338C901.965 89.1904 901.856 89.6885 901.64 90.1279C901.423 90.5674 901.109 90.9395 900.699 91.2441C900.289 91.5488 899.8 91.7803 899.231 91.9385C898.663 92.0967 898.027 92.1758 897.324 92.1758C896.691 92.1758 896.067 92.0938 895.452 91.9297C894.837 91.7598 894.277 91.5049 893.773 91.165C893.275 90.8252 892.877 90.3916 892.578 89.8643C892.279 89.3369 892.13 88.7129 892.13 87.9922H894.775C894.775 88.3906 894.837 88.7275 894.96 89.0029C895.083 89.2783 895.256 89.501 895.479 89.6709C895.707 89.8408 895.977 89.9639 896.287 90.04C896.604 90.1162 896.949 90.1543 897.324 90.1543C897.781 90.1543 898.156 90.0898 898.449 89.9609C898.748 89.832 898.968 89.6533 899.108 89.4248C899.255 89.1963 899.328 88.9385 899.328 88.6514ZM908.258 82.4902V84.2832H902.721V82.4902H908.258ZM904.092 80.1436H906.623V89.1348C906.623 89.4102 906.658 89.6211 906.729 89.7676C906.805 89.9141 906.916 90.0166 907.062 90.0752C907.209 90.1279 907.394 90.1543 907.616 90.1543C907.774 90.1543 907.915 90.1484 908.038 90.1367C908.167 90.1191 908.275 90.1016 908.363 90.084L908.372 91.9473C908.155 92.0176 907.921 92.0732 907.669 92.1143C907.417 92.1553 907.139 92.1758 906.834 92.1758C906.277 92.1758 905.791 92.085 905.375 91.9033C904.965 91.7158 904.648 91.417 904.426 91.0068C904.203 90.5967 904.092 90.0576 904.092 89.3896V80.1436ZM914.832 89.8555V85.6191C914.832 85.3145 914.782 85.0537 914.683 84.8369C914.583 84.6143 914.428 84.4414 914.217 84.3184C914.012 84.1953 913.745 84.1338 913.417 84.1338C913.136 84.1338 912.893 84.1836 912.688 84.2832C912.482 84.377 912.324 84.5146 912.213 84.6963C912.102 84.8721 912.046 85.0801 912.046 85.3203H909.515C909.515 84.916 909.608 84.5322 909.796 84.1689C909.983 83.8057 910.256 83.4863 910.613 83.2109C910.971 82.9297 911.396 82.71 911.888 82.5518C912.386 82.3936 912.942 82.3145 913.558 82.3145C914.296 82.3145 914.952 82.4375 915.526 82.6836C916.101 82.9297 916.552 83.2988 916.88 83.791C917.214 84.2832 917.381 84.8984 917.381 85.6367V89.7061C917.381 90.2275 917.413 90.6553 917.478 90.9893C917.542 91.3174 917.636 91.6045 917.759 91.8506V92H915.201C915.078 91.7422 914.984 91.4199 914.92 91.0332C914.861 90.6406 914.832 90.248 914.832 89.8555ZM915.166 86.208L915.184 87.6406H913.769C913.435 87.6406 913.145 87.6787 912.898 87.7549C912.652 87.8311 912.45 87.9395 912.292 88.0801C912.134 88.2148 912.017 88.373 911.94 88.5547C911.87 88.7363 911.835 88.9355 911.835 89.1523C911.835 89.3691 911.885 89.5654 911.984 89.7412C912.084 89.9111 912.228 90.0459 912.415 90.1455C912.603 90.2393 912.822 90.2861 913.074 90.2861C913.455 90.2861 913.786 90.21 914.067 90.0576C914.349 89.9053 914.565 89.7178 914.718 89.4951C914.876 89.2725 914.958 89.0615 914.964 88.8623L915.632 89.9346C915.538 90.1748 915.409 90.4238 915.245 90.6816C915.087 90.9395 914.885 91.1826 914.639 91.4111C914.393 91.6338 914.097 91.8184 913.751 91.9648C913.405 92.1055 912.995 92.1758 912.521 92.1758C911.917 92.1758 911.369 92.0557 910.877 91.8154C910.391 91.5693 910.004 91.2324 909.717 90.8047C909.436 90.3711 909.295 89.8789 909.295 89.3281C909.295 88.8301 909.389 88.3877 909.576 88.001C909.764 87.6143 910.039 87.2891 910.402 87.0254C910.771 86.7559 911.231 86.5537 911.782 86.4189C912.333 86.2783 912.972 86.208 913.698 86.208H915.166ZM923.99 82.4902V84.2832H918.453V82.4902H923.99ZM919.824 80.1436H922.355V89.1348C922.355 89.4102 922.391 89.6211 922.461 89.7676C922.537 89.9141 922.648 90.0166 922.795 90.0752C922.941 90.1279 923.126 90.1543 923.349 90.1543C923.507 90.1543 923.647 90.1484 923.771 90.1367C923.899 90.1191 924.008 90.1016 924.096 90.084L924.104 91.9473C923.888 92.0176 923.653 92.0732 923.401 92.1143C923.149 92.1553 922.871 92.1758 922.566 92.1758C922.01 92.1758 921.523 92.085 921.107 91.9033C920.697 91.7158 920.381 91.417 920.158 91.0068C919.936 90.5967 919.824 90.0576 919.824 89.3896V80.1436ZM929.809 92.1758C929.07 92.1758 928.408 92.0586 927.822 91.8242C927.236 91.584 926.738 91.2529 926.328 90.8311C925.924 90.4092 925.613 89.9199 925.396 89.3633C925.18 88.8008 925.071 88.2031 925.071 87.5703V87.2188C925.071 86.498 925.174 85.8389 925.379 85.2412C925.584 84.6436 925.877 84.125 926.258 83.6855C926.645 83.2461 927.113 82.9092 927.664 82.6748C928.215 82.4346 928.836 82.3145 929.527 82.3145C930.201 82.3145 930.799 82.4258 931.32 82.6484C931.842 82.8711 932.278 83.1875 932.63 83.5977C932.987 84.0078 933.257 84.5 933.438 85.0742C933.62 85.6426 933.711 86.2754 933.711 86.9727V88.0273H926.152V86.3398H931.224V86.1465C931.224 85.7949 931.159 85.4814 931.03 85.2061C930.907 84.9248 930.72 84.7021 930.468 84.5381C930.216 84.374 929.894 84.292 929.501 84.292C929.167 84.292 928.88 84.3652 928.64 84.5117C928.399 84.6582 928.203 84.8633 928.051 85.127C927.904 85.3906 927.793 85.7012 927.717 86.0586C927.646 86.4102 927.611 86.7969 927.611 87.2188V87.5703C927.611 87.9512 927.664 88.3027 927.77 88.625C927.881 88.9473 928.036 89.2256 928.235 89.46C928.44 89.6943 928.687 89.876 928.974 90.0049C929.267 90.1338 929.598 90.1982 929.967 90.1982C930.424 90.1982 930.849 90.1104 931.241 89.9346C931.64 89.7529 931.982 89.4805 932.27 89.1172L933.5 90.4531C933.301 90.7402 933.028 91.0156 932.683 91.2793C932.343 91.543 931.933 91.7598 931.452 91.9297C930.972 92.0938 930.424 92.1758 929.809 92.1758Z" fill="black"/>
<rect x="442" y="112" width="224.267" height="116" rx="8.8381" fill="#152145"/>
<path d="M520.24 174.212C519.497 174.212 518.826 174.088 518.225 173.841C517.624 173.593 517.129 173.263 516.74 172.851C516.363 172.439 516.045 171.95 515.785 171.384C515.526 170.818 515.337 170.241 515.22 169.652C515.114 169.062 515.061 168.45 515.061 167.813C515.061 167.059 515.155 166.323 515.343 165.604C515.532 164.885 515.821 164.207 516.21 163.571C516.598 162.923 517.14 162.404 517.836 162.016C518.531 161.615 519.332 161.415 520.24 161.415C521.336 161.415 522.255 161.674 522.997 162.192C523.74 162.699 524.258 163.318 524.553 164.048L522.644 164.914C522.314 164.408 521.966 164.037 521.601 163.801C521.247 163.565 520.794 163.447 520.24 163.447C519.698 163.447 519.22 163.583 518.808 163.854C518.407 164.113 518.095 164.467 517.871 164.914C517.659 165.35 517.5 165.816 517.394 166.311C517.3 166.794 517.252 167.295 517.252 167.813C517.252 168.968 517.506 169.982 518.012 170.854C518.531 171.726 519.273 172.162 520.24 172.162C521.182 172.162 521.972 171.631 522.608 170.571L524.57 171.313C523.71 173.246 522.267 174.212 520.24 174.212ZM530.361 174.212C529.088 174.212 528.081 173.794 527.338 172.957C526.596 172.12 526.225 170.966 526.225 169.493C526.225 168.02 526.596 166.865 527.338 166.028C528.081 165.18 529.088 164.755 530.361 164.755C531.634 164.755 532.641 165.18 533.384 166.028C534.138 166.865 534.515 168.02 534.515 169.493C534.515 170.966 534.144 172.12 533.401 172.957C532.659 173.794 531.646 174.212 530.361 174.212ZM530.361 172.232C531.009 172.232 531.516 171.991 531.881 171.508C532.258 171.025 532.447 170.353 532.447 169.493C532.447 168.632 532.258 167.955 531.881 167.46C531.516 166.965 531.009 166.717 530.361 166.717C529.737 166.717 529.236 166.971 528.859 167.477C528.482 167.972 528.293 168.644 528.293 169.493C528.293 170.341 528.476 171.013 528.841 171.508C529.218 171.991 529.725 172.232 530.361 172.232ZM540.849 174.212C539.977 174.212 539.294 173.9 538.799 173.275V176.598L536.73 177.553V164.967H538.799V165.657C539.294 165.056 539.983 164.755 540.867 164.755C542.01 164.755 542.911 165.174 543.571 166.01C544.243 166.835 544.579 167.996 544.579 169.493C544.579 170.954 544.237 172.109 543.553 172.957C542.87 173.794 541.969 174.212 540.849 174.212ZM540.549 172.232C541.173 172.232 541.656 171.997 541.998 171.525C542.34 171.054 542.511 170.376 542.511 169.493C542.511 168.656 542.34 167.984 541.998 167.477C541.656 166.971 541.173 166.717 540.549 166.717C539.783 166.717 539.199 167.012 538.799 167.601V171.349C539.211 171.938 539.794 172.232 540.549 172.232ZM547.821 177.429L549.218 173.859L545.824 164.967H547.91L550.013 170.518C550.119 170.777 550.208 171.048 550.278 171.331C550.337 171.072 550.42 170.801 550.526 170.518L552.647 164.967H554.733L549.96 177.429H547.821ZM568.535 174V168.626H563.126V174H561.005V161.627H563.126V166.629H568.535V161.627H570.638V174H568.535ZM573.641 174V161.627H581.701V163.624H575.762V166.611H579.421V168.609H575.762V172.003H582.09V174H573.641ZM591.587 174L588.918 169.616L586.231 174H583.774L587.68 167.601L584.039 161.627H586.496L588.918 165.604L591.339 161.627H593.796L590.137 167.601L594.044 174H591.587Z" fill="white"/>
<rect x="496.5" y="146.5" width="117" height="42" stroke="white" stroke-width="3"/>
<rect x="839" y="112" width="224.267" height="116" rx="8.8381" fill="#152145"/>
<path d="M913.033 174V168.626H907.624V174H905.502V161.627H907.624V166.629H913.033V161.627H915.136V174H913.033ZM918.138 174V161.627H926.199V163.624H920.259V166.611H923.918V168.609H920.259V172.003H926.587V174H918.138ZM936.084 174L933.415 169.616L930.729 174H928.272L932.178 167.601L928.537 161.627H930.994L933.415 165.604L935.837 161.627H938.294L934.635 167.601L938.541 174H936.084ZM949.908 174.212C949.165 174.212 948.493 174.088 947.892 173.841C947.291 173.593 946.797 173.263 946.408 172.851C946.031 172.439 945.712 171.95 945.453 171.384C945.194 170.818 945.005 170.241 944.888 169.652C944.781 169.062 944.728 168.45 944.728 167.813C944.728 167.059 944.823 166.323 945.011 165.604C945.2 164.885 945.489 164.207 945.877 163.571C946.266 162.923 946.808 162.404 947.504 162.016C948.199 161.615 949 161.415 949.908 161.415C951.003 161.415 951.923 161.674 952.665 162.192C953.407 162.699 953.926 163.318 954.221 164.048L952.312 164.914C951.982 164.408 951.634 164.037 951.269 163.801C950.915 163.565 950.461 163.447 949.908 163.447C949.365 163.447 948.888 163.583 948.476 163.854C948.075 164.113 947.763 164.467 947.539 164.914C947.327 165.35 947.168 165.816 947.062 166.311C946.967 166.794 946.92 167.295 946.92 167.813C946.92 168.968 947.174 169.982 947.68 170.854C948.199 171.726 948.941 172.162 949.908 172.162C950.85 172.162 951.64 171.631 952.276 170.571L954.238 171.313C953.378 173.246 951.934 174.212 949.908 174.212ZM960.029 174.212C958.756 174.212 957.749 173.794 957.006 172.957C956.264 172.12 955.893 170.966 955.893 169.493C955.893 168.02 956.264 166.865 957.006 166.028C957.749 165.18 958.756 164.755 960.029 164.755C961.302 164.755 962.309 165.18 963.052 166.028C963.806 166.865 964.183 168.02 964.183 169.493C964.183 170.966 963.812 172.12 963.069 172.957C962.327 173.794 961.313 174.212 960.029 174.212ZM960.029 172.232C960.677 172.232 961.184 171.991 961.549 171.508C961.926 171.025 962.115 170.353 962.115 169.493C962.115 168.632 961.926 167.955 961.549 167.46C961.184 166.965 960.677 166.717 960.029 166.717C959.404 166.717 958.904 166.971 958.526 167.477C958.149 167.972 957.961 168.644 957.961 169.493C957.961 170.341 958.144 171.013 958.509 171.508C958.886 171.991 959.393 172.232 960.029 172.232ZM970.517 174.212C969.645 174.212 968.961 173.9 968.466 173.275V176.598L966.398 177.553V164.967H968.466V165.657C968.961 165.056 969.651 164.755 970.535 164.755C971.678 164.755 972.579 165.174 973.239 166.01C973.911 166.835 974.247 167.996 974.247 169.493C974.247 170.954 973.905 172.109 973.221 172.957C972.538 173.794 971.636 174.212 970.517 174.212ZM970.216 172.232C970.841 172.232 971.324 171.997 971.666 171.525C972.008 171.054 972.178 170.376 972.178 169.493C972.178 168.656 972.008 167.984 971.666 167.477C971.324 166.971 970.841 166.717 970.216 166.717C969.45 166.717 968.867 167.012 968.466 167.601V171.349C968.879 171.938 969.462 172.232 970.216 172.232ZM978.389 163.377C978.153 163.612 977.864 163.73 977.523 163.73C977.181 163.73 976.886 163.612 976.639 163.377C976.403 163.129 976.285 162.835 976.285 162.493C976.285 162.151 976.403 161.862 976.639 161.627C976.886 161.391 977.181 161.273 977.523 161.273C977.864 161.273 978.153 161.391 978.389 161.627C978.624 161.862 978.742 162.151 978.742 162.493C978.742 162.835 978.624 163.129 978.389 163.377ZM976.48 174V164.967H978.548V174H976.48ZM984.939 174.212C983.654 174.212 982.635 173.794 981.881 172.957C981.138 172.109 980.767 170.948 980.767 169.475C980.767 168.014 981.144 166.865 981.898 166.028C982.653 165.18 983.666 164.755 984.939 164.755C986.094 164.755 987.036 165.115 987.767 165.834C988.509 166.552 988.881 167.607 988.881 168.998C988.881 169.481 988.857 169.905 988.81 170.27H982.818C982.853 170.907 983.071 171.419 983.472 171.808C983.884 172.197 984.373 172.391 984.939 172.391C985.74 172.391 986.376 172.079 986.848 171.455L988.156 172.798C987.366 173.741 986.294 174.212 984.939 174.212ZM982.835 168.556H986.83C986.783 167.908 986.583 167.419 986.229 167.089C985.876 166.747 985.445 166.576 984.939 166.576C984.35 166.576 983.86 166.741 983.472 167.071C983.095 167.389 982.882 167.884 982.835 168.556ZM994.302 174.212C993.147 174.212 992.234 173.794 991.562 172.957C990.89 172.12 990.555 170.96 990.555 169.475C990.555 168.025 990.902 166.876 991.598 166.028C992.293 165.18 993.194 164.755 994.302 164.755C995.174 164.755 995.852 165.038 996.335 165.604V162.175L998.403 161.238V174H996.335V173.346C995.887 173.923 995.209 174.212 994.302 174.212ZM994.62 172.232C995.386 172.232 995.958 171.944 996.335 171.366V167.584C995.946 167.006 995.374 166.717 994.62 166.717C993.984 166.717 993.489 166.959 993.135 167.442C992.794 167.913 992.623 168.591 992.623 169.475C992.623 170.312 992.8 170.983 993.153 171.49C993.507 171.985 993.996 172.232 994.62 172.232Z" fill="white"/>
<rect x="893.5" y="146.5" width="117" height="42" stroke="white" stroke-width="3"/>
</svg>
