<svg width="699" height="560" viewBox="0 0 699 560" fill="none" xmlns="http://www.w3.org/2000/svg">
<rect width="699" height="560" fill="white"/>
<path d="M71.8643 43.2031V56H69.2363V43.2031H71.8643ZM75.8018 43.2031V45.2686H65.3604V43.2031H75.8018ZM80.6973 56.1758C79.959 56.1758 79.2969 56.0586 78.7109 55.8242C78.125 55.584 77.627 55.2529 77.2168 54.8311C76.8125 54.4092 76.502 53.9199 76.2852 53.3633C76.0684 52.8008 75.96 52.2031 75.96 51.5703V51.2188C75.96 50.498 76.0625 49.8389 76.2676 49.2412C76.4727 48.6436 76.7656 48.125 77.1465 47.6855C77.5332 47.2461 78.002 46.9092 78.5527 46.6748C79.1035 46.4346 79.7246 46.3145 80.416 46.3145C81.0898 46.3145 81.6875 46.4258 82.209 46.6484C82.7305 46.8711 83.167 47.1875 83.5186 47.5977C83.876 48.0078 84.1455 48.5 84.3271 49.0742C84.5088 49.6426 84.5996 50.2754 84.5996 50.9727V52.0273H77.041V50.3398H82.1123V50.1465C82.1123 49.7949 82.0479 49.4814 81.9189 49.2061C81.7959 48.9248 81.6084 48.7021 81.3564 48.5381C81.1045 48.374 80.7822 48.292 80.3896 48.292C80.0557 48.292 79.7686 48.3652 79.5283 48.5117C79.2881 48.6582 79.0918 48.8633 78.9395 49.127C78.793 49.3906 78.6816 49.7012 78.6055 50.0586C78.5352 50.4102 78.5 50.7969 78.5 51.2188V51.5703C78.5 51.9512 78.5527 52.3027 78.6582 52.625C78.7695 52.9473 78.9248 53.2256 79.124 53.46C79.3291 53.6943 79.5752 53.876 79.8623 54.0049C80.1553 54.1338 80.4863 54.1982 80.8555 54.1982C81.3125 54.1982 81.7373 54.1104 82.1299 53.9346C82.5283 53.7529 82.8711 53.4805 83.1582 53.1172L84.3887 54.4531C84.1895 54.7402 83.917 55.0156 83.5713 55.2793C83.2314 55.543 82.8213 55.7598 82.3408 55.9297C81.8604 56.0938 81.3125 56.1758 80.6973 56.1758ZM88.0801 46.4902L89.6533 49.3818L91.2705 46.4902H93.9688L91.2793 51.1396L94.0918 56H91.3848L89.6709 52.9414L87.957 56H85.25L88.0625 51.1396L85.373 46.4902H88.0801ZM99.8574 46.4902V48.2832H94.3203V46.4902H99.8574ZM95.6914 44.1436H98.2227V53.1348C98.2227 53.4102 98.2578 53.6211 98.3281 53.7676C98.4043 53.9141 98.5156 54.0166 98.6621 54.0752C98.8086 54.1279 98.9932 54.1543 99.2158 54.1543C99.374 54.1543 99.5146 54.1484 99.6377 54.1367C99.7666 54.1191 99.875 54.1016 99.9629 54.084L99.9717 55.9473C99.7549 56.0176 99.5205 56.0732 99.2686 56.1143C99.0166 56.1553 98.7383 56.1758 98.4336 56.1758C97.877 56.1758 97.3906 56.085 96.9746 55.9033C96.5645 55.7158 96.248 55.417 96.0254 55.0068C95.8027 54.5967 95.6914 54.0576 95.6914 53.3896V44.1436ZM109.71 54.1982C110.021 54.1982 110.296 54.1396 110.536 54.0225C110.776 53.8994 110.964 53.7295 111.099 53.5127C111.239 53.29 111.312 53.0293 111.318 52.7305H113.7C113.694 53.3984 113.516 53.9932 113.164 54.5146C112.812 55.0303 112.341 55.4375 111.749 55.7363C111.157 56.0293 110.495 56.1758 109.763 56.1758C109.024 56.1758 108.38 56.0527 107.829 55.8066C107.284 55.5605 106.83 55.2207 106.467 54.7871C106.104 54.3477 105.831 53.8379 105.649 53.2578C105.468 52.6719 105.377 52.0449 105.377 51.377V51.1221C105.377 50.4482 105.468 49.8213 105.649 49.2412C105.831 48.6553 106.104 48.1455 106.467 47.7119C106.83 47.2725 107.284 46.9297 107.829 46.6836C108.374 46.4375 109.013 46.3145 109.745 46.3145C110.524 46.3145 111.207 46.4639 111.793 46.7627C112.385 47.0615 112.848 47.4893 113.182 48.0459C113.521 48.5967 113.694 49.25 113.7 50.0059H111.318C111.312 49.6895 111.245 49.4023 111.116 49.1445C110.993 48.8867 110.812 48.6816 110.571 48.5293C110.337 48.3711 110.047 48.292 109.701 48.292C109.332 48.292 109.03 48.3711 108.796 48.5293C108.562 48.6816 108.38 48.8926 108.251 49.1621C108.122 49.4258 108.031 49.7275 107.979 50.0674C107.932 50.4014 107.908 50.7529 107.908 51.1221V51.377C107.908 51.7461 107.932 52.1006 107.979 52.4404C108.025 52.7803 108.113 53.082 108.242 53.3457C108.377 53.6094 108.562 53.8174 108.796 53.9697C109.03 54.1221 109.335 54.1982 109.71 54.1982ZM114.764 51.3418V51.1572C114.764 50.46 114.863 49.8184 115.062 49.2324C115.262 48.6406 115.552 48.1279 115.933 47.6943C116.313 47.2607 116.782 46.9238 117.339 46.6836C117.896 46.4375 118.534 46.3145 119.255 46.3145C119.976 46.3145 120.617 46.4375 121.18 46.6836C121.742 46.9238 122.214 47.2607 122.595 47.6943C122.981 48.1279 123.274 48.6406 123.474 49.2324C123.673 49.8184 123.772 50.46 123.772 51.1572V51.3418C123.772 52.0332 123.673 52.6748 123.474 53.2666C123.274 53.8525 122.981 54.3652 122.595 54.8047C122.214 55.2383 121.745 55.5752 121.188 55.8154C120.632 56.0557 119.993 56.1758 119.272 56.1758C118.552 56.1758 117.91 56.0557 117.348 55.8154C116.791 55.5752 116.319 55.2383 115.933 54.8047C115.552 54.3652 115.262 53.8525 115.062 53.2666C114.863 52.6748 114.764 52.0332 114.764 51.3418ZM117.295 51.1572V51.3418C117.295 51.7402 117.33 52.1123 117.4 52.458C117.471 52.8037 117.582 53.1084 117.734 53.3721C117.893 53.6299 118.098 53.832 118.35 53.9785C118.602 54.125 118.909 54.1982 119.272 54.1982C119.624 54.1982 119.926 54.125 120.178 53.9785C120.43 53.832 120.632 53.6299 120.784 53.3721C120.937 53.1084 121.048 52.8037 121.118 52.458C121.194 52.1123 121.232 51.7402 121.232 51.3418V51.1572C121.232 50.7705 121.194 50.4072 121.118 50.0674C121.048 49.7217 120.934 49.417 120.775 49.1533C120.623 48.8838 120.421 48.6729 120.169 48.5205C119.917 48.3682 119.612 48.292 119.255 48.292C118.897 48.292 118.593 48.3682 118.341 48.5205C118.095 48.6729 117.893 48.8838 117.734 49.1533C117.582 49.417 117.471 49.7217 117.4 50.0674C117.33 50.4072 117.295 50.7705 117.295 51.1572ZM128 42.5V56H125.46V42.5H128ZM129.688 51.3418V51.1572C129.688 50.46 129.787 49.8184 129.986 49.2324C130.186 48.6406 130.476 48.1279 130.856 47.6943C131.237 47.2607 131.706 46.9238 132.263 46.6836C132.819 46.4375 133.458 46.3145 134.179 46.3145C134.899 46.3145 135.541 46.4375 136.104 46.6836C136.666 46.9238 137.138 47.2607 137.519 47.6943C137.905 48.1279 138.198 48.6406 138.397 49.2324C138.597 49.8184 138.696 50.46 138.696 51.1572V51.3418C138.696 52.0332 138.597 52.6748 138.397 53.2666C138.198 53.8525 137.905 54.3652 137.519 54.8047C137.138 55.2383 136.669 55.5752 136.112 55.8154C135.556 56.0557 134.917 56.1758 134.196 56.1758C133.476 56.1758 132.834 56.0557 132.271 55.8154C131.715 55.5752 131.243 55.2383 130.856 54.8047C130.476 54.3652 130.186 53.8525 129.986 53.2666C129.787 52.6748 129.688 52.0332 129.688 51.3418ZM132.219 51.1572V51.3418C132.219 51.7402 132.254 52.1123 132.324 52.458C132.395 52.8037 132.506 53.1084 132.658 53.3721C132.816 53.6299 133.021 53.832 133.273 53.9785C133.525 54.125 133.833 54.1982 134.196 54.1982C134.548 54.1982 134.85 54.125 135.102 53.9785C135.354 53.832 135.556 53.6299 135.708 53.3721C135.86 53.1084 135.972 52.8037 136.042 52.458C136.118 52.1123 136.156 51.7402 136.156 51.3418V51.1572C136.156 50.7705 136.118 50.4072 136.042 50.0674C135.972 49.7217 135.857 49.417 135.699 49.1533C135.547 48.8838 135.345 48.6729 135.093 48.5205C134.841 48.3682 134.536 48.292 134.179 48.292C133.821 48.292 133.517 48.3682 133.265 48.5205C133.019 48.6729 132.816 48.8838 132.658 49.1533C132.506 49.417 132.395 49.7217 132.324 50.0674C132.254 50.4072 132.219 50.7705 132.219 51.1572ZM142.783 48.5645V56H140.252V46.4902H142.634L142.783 48.5645ZM145.648 46.4287L145.604 48.7754C145.481 48.7578 145.332 48.7432 145.156 48.7314C144.986 48.7139 144.831 48.7051 144.69 48.7051C144.333 48.7051 144.022 48.752 143.759 48.8457C143.501 48.9336 143.284 49.0654 143.108 49.2412C142.938 49.417 142.81 49.6309 142.722 49.8828C142.64 50.1348 142.593 50.4219 142.581 50.7441L142.071 50.5859C142.071 49.9707 142.133 49.4053 142.256 48.8896C142.379 48.3682 142.558 47.9141 142.792 47.5273C143.032 47.1406 143.325 46.8418 143.671 46.6309C144.017 46.4199 144.412 46.3145 144.857 46.3145C144.998 46.3145 145.142 46.3262 145.288 46.3496C145.435 46.3672 145.555 46.3936 145.648 46.4287ZM153.998 46.4902V56H151.458V46.4902H153.998ZM151.3 44.0117C151.3 43.6426 151.429 43.3379 151.687 43.0977C151.944 42.8574 152.29 42.7373 152.724 42.7373C153.151 42.7373 153.494 42.8574 153.752 43.0977C154.016 43.3379 154.147 43.6426 154.147 44.0117C154.147 44.3809 154.016 44.6855 153.752 44.9258C153.494 45.166 153.151 45.2861 152.724 45.2861C152.29 45.2861 151.944 45.166 151.687 44.9258C151.429 44.6855 151.3 44.3809 151.3 44.0117ZM161.231 53.3721C161.231 53.1904 161.179 53.0264 161.073 52.8799C160.968 52.7334 160.771 52.5986 160.484 52.4756C160.203 52.3467 159.796 52.2295 159.263 52.124C158.782 52.0186 158.334 51.8867 157.918 51.7285C157.508 51.5645 157.15 51.3682 156.846 51.1396C156.547 50.9111 156.312 50.6416 156.143 50.3311C155.973 50.0146 155.888 49.6543 155.888 49.25C155.888 48.8516 155.973 48.4766 156.143 48.125C156.318 47.7734 156.567 47.4629 156.89 47.1934C157.218 46.918 157.616 46.7041 158.085 46.5518C158.56 46.3936 159.093 46.3145 159.685 46.3145C160.511 46.3145 161.22 46.4463 161.812 46.71C162.409 46.9736 162.866 47.3369 163.183 47.7998C163.505 48.2568 163.666 48.7783 163.666 49.3643H161.135C161.135 49.1182 161.082 48.8984 160.977 48.7051C160.877 48.5059 160.719 48.3506 160.502 48.2393C160.291 48.1221 160.016 48.0635 159.676 48.0635C159.395 48.0635 159.151 48.1133 158.946 48.2129C158.741 48.3066 158.583 48.4355 158.472 48.5996C158.366 48.7578 158.313 48.9336 158.313 49.127C158.313 49.2734 158.343 49.4053 158.401 49.5225C158.466 49.6338 158.568 49.7363 158.709 49.8301C158.85 49.9238 159.031 50.0117 159.254 50.0938C159.482 50.1699 159.764 50.2402 160.098 50.3047C160.783 50.4453 161.396 50.6299 161.935 50.8584C162.474 51.0811 162.901 51.3857 163.218 51.7725C163.534 52.1533 163.692 52.6543 163.692 53.2754C163.692 53.6973 163.599 54.084 163.411 54.4355C163.224 54.7871 162.954 55.0947 162.603 55.3584C162.251 55.6162 161.829 55.8184 161.337 55.9648C160.851 56.1055 160.303 56.1758 159.693 56.1758C158.809 56.1758 158.059 56.0176 157.443 55.7012C156.834 55.3848 156.371 54.9834 156.055 54.4971C155.744 54.0049 155.589 53.501 155.589 52.9854H157.988C158 53.3311 158.088 53.6094 158.252 53.8203C158.422 54.0312 158.636 54.1836 158.894 54.2773C159.157 54.3711 159.441 54.418 159.746 54.418C160.074 54.418 160.347 54.374 160.563 54.2861C160.78 54.1924 160.944 54.0693 161.056 53.917C161.173 53.7588 161.231 53.5771 161.231 53.3721ZM169.818 42.5H172.35V53.8203L172.095 56H169.818V42.5ZM178.37 51.1484V51.333C178.37 52.042 178.294 52.6924 178.142 53.2842C177.995 53.876 177.767 54.3887 177.456 54.8223C177.146 55.25 176.759 55.584 176.296 55.8242C175.839 56.0586 175.3 56.1758 174.679 56.1758C174.099 56.1758 173.595 56.0586 173.167 55.8242C172.745 55.5898 172.391 55.2588 172.104 54.8311C171.816 54.4033 171.585 53.9023 171.409 53.3281C171.233 52.7539 171.102 52.127 171.014 51.4473V51.043C171.102 50.3633 171.233 49.7363 171.409 49.1621C171.585 48.5879 171.816 48.0869 172.104 47.6592C172.391 47.2314 172.745 46.9004 173.167 46.666C173.589 46.4316 174.087 46.3145 174.661 46.3145C175.288 46.3145 175.833 46.4346 176.296 46.6748C176.765 46.9092 177.151 47.2432 177.456 47.6768C177.767 48.1045 177.995 48.6143 178.142 49.2061C178.294 49.792 178.37 50.4395 178.37 51.1484ZM175.839 51.333V51.1484C175.839 50.7617 175.81 50.3984 175.751 50.0586C175.698 49.7129 175.604 49.4111 175.47 49.1533C175.335 48.8896 175.15 48.6816 174.916 48.5293C174.688 48.377 174.392 48.3008 174.028 48.3008C173.683 48.3008 173.39 48.3594 173.149 48.4766C172.909 48.5938 172.71 48.7578 172.552 48.9688C172.399 49.1797 172.285 49.4316 172.209 49.7246C172.133 50.0117 172.086 50.3281 172.068 50.6738V51.8252C172.086 52.2881 172.162 52.6982 172.297 53.0557C172.438 53.4072 172.648 53.6855 172.93 53.8906C173.217 54.0898 173.589 54.1895 174.046 54.1895C174.403 54.1895 174.699 54.1191 174.934 53.9785C175.168 53.8379 175.35 53.6387 175.479 53.3809C175.613 53.123 175.707 52.8213 175.76 52.4756C175.812 52.124 175.839 51.7432 175.839 51.333ZM182.615 42.5V56H180.075V42.5H182.615ZM189.84 53.8555V49.6191C189.84 49.3145 189.79 49.0537 189.69 48.8369C189.591 48.6143 189.436 48.4414 189.225 48.3184C189.02 48.1953 188.753 48.1338 188.425 48.1338C188.144 48.1338 187.9 48.1836 187.695 48.2832C187.49 48.377 187.332 48.5146 187.221 48.6963C187.109 48.8721 187.054 49.0801 187.054 49.3203H184.522C184.522 48.916 184.616 48.5322 184.804 48.1689C184.991 47.8057 185.264 47.4863 185.621 47.2109C185.979 46.9297 186.403 46.71 186.896 46.5518C187.394 46.3936 187.95 46.3145 188.565 46.3145C189.304 46.3145 189.96 46.4375 190.534 46.6836C191.108 46.9297 191.56 47.2988 191.888 47.791C192.222 48.2832 192.389 48.8984 192.389 49.6367V53.7061C192.389 54.2275 192.421 54.6553 192.485 54.9893C192.55 55.3174 192.644 55.6045 192.767 55.8506V56H190.209C190.086 55.7422 189.992 55.4199 189.928 55.0332C189.869 54.6406 189.84 54.248 189.84 53.8555ZM190.174 50.208L190.191 51.6406H188.776C188.442 51.6406 188.152 51.6787 187.906 51.7549C187.66 51.8311 187.458 51.9395 187.3 52.0801C187.142 52.2148 187.024 52.373 186.948 52.5547C186.878 52.7363 186.843 52.9355 186.843 53.1523C186.843 53.3691 186.893 53.5654 186.992 53.7412C187.092 53.9111 187.235 54.0459 187.423 54.1455C187.61 54.2393 187.83 54.2861 188.082 54.2861C188.463 54.2861 188.794 54.21 189.075 54.0576C189.356 53.9053 189.573 53.7178 189.726 53.4951C189.884 53.2725 189.966 53.0615 189.972 52.8623L190.64 53.9346C190.546 54.1748 190.417 54.4238 190.253 54.6816C190.095 54.9395 189.893 55.1826 189.646 55.4111C189.4 55.6338 189.104 55.8184 188.759 55.9648C188.413 56.1055 188.003 56.1758 187.528 56.1758C186.925 56.1758 186.377 56.0557 185.885 55.8154C185.398 55.5693 185.012 55.2324 184.725 54.8047C184.443 54.3711 184.303 53.8789 184.303 53.3281C184.303 52.8301 184.396 52.3877 184.584 52.001C184.771 51.6143 185.047 51.2891 185.41 51.0254C185.779 50.7559 186.239 50.5537 186.79 50.4189C187.341 50.2783 187.979 50.208 188.706 50.208H190.174ZM198.269 54.1982C198.579 54.1982 198.854 54.1396 199.095 54.0225C199.335 53.8994 199.522 53.7295 199.657 53.5127C199.798 53.29 199.871 53.0293 199.877 52.7305H202.259C202.253 53.3984 202.074 53.9932 201.723 54.5146C201.371 55.0303 200.899 55.4375 200.308 55.7363C199.716 56.0293 199.054 56.1758 198.321 56.1758C197.583 56.1758 196.938 56.0527 196.388 55.8066C195.843 55.5605 195.389 55.2207 195.025 54.7871C194.662 54.3477 194.39 53.8379 194.208 53.2578C194.026 52.6719 193.936 52.0449 193.936 51.377V51.1221C193.936 50.4482 194.026 49.8213 194.208 49.2412C194.39 48.6553 194.662 48.1455 195.025 47.7119C195.389 47.2725 195.843 46.9297 196.388 46.6836C196.933 46.4375 197.571 46.3145 198.304 46.3145C199.083 46.3145 199.766 46.4639 200.352 46.7627C200.943 47.0615 201.406 47.4893 201.74 48.0459C202.08 48.5967 202.253 49.25 202.259 50.0059H199.877C199.871 49.6895 199.804 49.4023 199.675 49.1445C199.552 48.8867 199.37 48.6816 199.13 48.5293C198.896 48.3711 198.605 48.292 198.26 48.292C197.891 48.292 197.589 48.3711 197.354 48.5293C197.12 48.6816 196.938 48.8926 196.81 49.1621C196.681 49.4258 196.59 49.7275 196.537 50.0674C196.49 50.4014 196.467 50.7529 196.467 51.1221V51.377C196.467 51.7461 196.49 52.1006 196.537 52.4404C196.584 52.7803 196.672 53.082 196.801 53.3457C196.936 53.6094 197.12 53.8174 197.354 53.9697C197.589 54.1221 197.894 54.1982 198.269 54.1982ZM206.258 42.4912V56H203.727V42.4912H206.258ZM212.252 46.4902L208.121 51.2012L205.906 53.4424L204.983 51.6143L206.741 49.3818L209.211 46.4902H212.252ZM209.624 56L206.812 51.6055L208.561 50.0762L212.542 56H209.624ZM222.957 53.8555V49.6191C222.957 49.3145 222.907 49.0537 222.808 48.8369C222.708 48.6143 222.553 48.4414 222.342 48.3184C222.137 48.1953 221.87 48.1338 221.542 48.1338C221.261 48.1338 221.018 48.1836 220.812 48.2832C220.607 48.377 220.449 48.5146 220.338 48.6963C220.227 48.8721 220.171 49.0801 220.171 49.3203H217.64C217.64 48.916 217.733 48.5322 217.921 48.1689C218.108 47.8057 218.381 47.4863 218.738 47.2109C219.096 46.9297 219.521 46.71 220.013 46.5518C220.511 46.3936 221.067 46.3145 221.683 46.3145C222.421 46.3145 223.077 46.4375 223.651 46.6836C224.226 46.9297 224.677 47.2988 225.005 47.791C225.339 48.2832 225.506 48.8984 225.506 49.6367V53.7061C225.506 54.2275 225.538 54.6553 225.603 54.9893C225.667 55.3174 225.761 55.6045 225.884 55.8506V56H223.326C223.203 55.7422 223.109 55.4199 223.045 55.0332C222.986 54.6406 222.957 54.248 222.957 53.8555ZM223.291 50.208L223.309 51.6406H221.894C221.56 51.6406 221.27 51.6787 221.023 51.7549C220.777 51.8311 220.575 51.9395 220.417 52.0801C220.259 52.2148 220.142 52.373 220.065 52.5547C219.995 52.7363 219.96 52.9355 219.96 53.1523C219.96 53.3691 220.01 53.5654 220.109 53.7412C220.209 53.9111 220.353 54.0459 220.54 54.1455C220.728 54.2393 220.947 54.2861 221.199 54.2861C221.58 54.2861 221.911 54.21 222.192 54.0576C222.474 53.9053 222.69 53.7178 222.843 53.4951C223.001 53.2725 223.083 53.0615 223.089 52.8623L223.757 53.9346C223.663 54.1748 223.534 54.4238 223.37 54.6816C223.212 54.9395 223.01 55.1826 222.764 55.4111C222.518 55.6338 222.222 55.8184 221.876 55.9648C221.53 56.1055 221.12 56.1758 220.646 56.1758C220.042 56.1758 219.494 56.0557 219.002 55.8154C218.516 55.5693 218.129 55.2324 217.842 54.8047C217.561 54.3711 217.42 53.8789 217.42 53.3281C217.42 52.8301 217.514 52.3877 217.701 52.001C217.889 51.6143 218.164 51.2891 218.527 51.0254C218.896 50.7559 219.356 50.5537 219.907 50.4189C220.458 50.2783 221.097 50.208 221.823 50.208H223.291ZM229.936 48.5205V56H227.404V46.4902H229.777L229.936 48.5205ZM229.566 50.9111H228.881C228.881 50.208 228.972 49.5752 229.153 49.0127C229.335 48.4443 229.59 47.9609 229.918 47.5625C230.246 47.1582 230.636 46.8506 231.087 46.6396C231.544 46.4229 232.054 46.3145 232.616 46.3145C233.062 46.3145 233.469 46.3789 233.838 46.5078C234.207 46.6367 234.523 46.8418 234.787 47.123C235.057 47.4043 235.262 47.7764 235.402 48.2393C235.549 48.7021 235.622 49.2676 235.622 49.9355V56H233.073V49.9268C233.073 49.5049 233.015 49.1768 232.897 48.9424C232.78 48.708 232.607 48.5439 232.379 48.4502C232.156 48.3506 231.881 48.3008 231.553 48.3008C231.213 48.3008 230.917 48.3682 230.665 48.5029C230.419 48.6377 230.214 48.8252 230.05 49.0654C229.892 49.2998 229.771 49.5752 229.689 49.8916C229.607 50.208 229.566 50.5479 229.566 50.9111ZM243.163 53.9258V42.5H245.712V56H243.418L243.163 53.9258ZM237.151 51.3594V51.1748C237.151 50.4482 237.233 49.7891 237.397 49.1973C237.562 48.5996 237.802 48.0869 238.118 47.6592C238.435 47.2314 238.824 46.9004 239.287 46.666C239.75 46.4316 240.277 46.3145 240.869 46.3145C241.426 46.3145 241.912 46.4316 242.328 46.666C242.75 46.9004 243.107 47.2344 243.4 47.668C243.699 48.0957 243.939 48.6025 244.121 49.1885C244.303 49.7686 244.435 50.4043 244.517 51.0957V51.5C244.435 52.1621 244.303 52.7773 244.121 53.3457C243.939 53.9141 243.699 54.4121 243.4 54.8398C243.107 55.2617 242.75 55.5898 242.328 55.8242C241.906 56.0586 241.414 56.1758 240.852 56.1758C240.26 56.1758 239.732 56.0557 239.27 55.8154C238.812 55.5752 238.426 55.2383 238.109 54.8047C237.799 54.3711 237.562 53.8613 237.397 53.2754C237.233 52.6895 237.151 52.0508 237.151 51.3594ZM239.683 51.1748V51.3594C239.683 51.752 239.712 52.1182 239.771 52.458C239.835 52.7979 239.938 53.0996 240.078 53.3633C240.225 53.6211 240.412 53.8232 240.641 53.9697C240.875 54.1104 241.159 54.1807 241.493 54.1807C241.927 54.1807 242.284 54.084 242.565 53.8906C242.847 53.6914 243.061 53.4189 243.207 53.0732C243.359 52.7275 243.447 52.3291 243.471 51.8779V50.7266C243.453 50.3574 243.4 50.0264 243.312 49.7334C243.23 49.4346 243.107 49.1797 242.943 48.9688C242.785 48.7578 242.586 48.5938 242.346 48.4766C242.111 48.3594 241.833 48.3008 241.511 48.3008C241.183 48.3008 240.901 48.377 240.667 48.5293C240.433 48.6758 240.242 48.8779 240.096 49.1357C239.955 49.3936 239.85 49.6982 239.779 50.0498C239.715 50.3955 239.683 50.7705 239.683 51.1748ZM254.888 53.5391L256.865 46.4902H258.474L257.955 49.2588L255.978 56H254.633L254.888 53.5391ZM253.886 46.4902L255.301 53.5303L255.433 56H253.851L251.442 46.4902H253.886ZM260.284 53.416L261.664 46.4902H264.116L261.708 56H260.135L260.284 53.416ZM258.693 46.4902L260.662 53.4863L260.935 56H259.581L257.604 49.2676L257.103 46.4902H258.693ZM267.86 42.5V56H265.329V42.5H267.86ZM267.5 50.9111H266.806C266.812 50.249 266.899 49.6396 267.069 49.083C267.239 48.5205 267.482 48.0342 267.799 47.624C268.115 47.208 268.493 46.8857 268.933 46.6572C269.378 46.4287 269.87 46.3145 270.409 46.3145C270.878 46.3145 271.303 46.3818 271.684 46.5166C272.07 46.6455 272.401 46.8564 272.677 47.1494C272.958 47.4365 273.175 47.8145 273.327 48.2832C273.479 48.752 273.556 49.3203 273.556 49.9883V56H271.007V49.9707C271.007 49.5488 270.945 49.2178 270.822 48.9775C270.705 48.7314 270.532 48.5586 270.304 48.459C270.081 48.3535 269.806 48.3008 269.478 48.3008C269.114 48.3008 268.804 48.3682 268.546 48.5029C268.294 48.6377 268.092 48.8252 267.939 49.0654C267.787 49.2998 267.676 49.5752 267.605 49.8916C267.535 50.208 267.5 50.5479 267.5 50.9111ZM278.152 46.4902V56H275.612V46.4902H278.152ZM275.454 44.0117C275.454 43.6426 275.583 43.3379 275.841 43.0977C276.099 42.8574 276.444 42.7373 276.878 42.7373C277.306 42.7373 277.648 42.8574 277.906 43.0977C278.17 43.3379 278.302 43.6426 278.302 44.0117C278.302 44.3809 278.17 44.6855 277.906 44.9258C277.648 45.166 277.306 45.2861 276.878 45.2861C276.444 45.2861 276.099 45.166 275.841 44.9258C275.583 44.6855 275.454 44.3809 275.454 44.0117ZM284.902 46.4902V48.2832H279.365V46.4902H284.902ZM280.736 44.1436H283.268V53.1348C283.268 53.4102 283.303 53.6211 283.373 53.7676C283.449 53.9141 283.561 54.0166 283.707 54.0752C283.854 54.1279 284.038 54.1543 284.261 54.1543C284.419 54.1543 284.56 54.1484 284.683 54.1367C284.812 54.1191 284.92 54.1016 285.008 54.084L285.017 55.9473C284.8 56.0176 284.565 56.0732 284.313 56.1143C284.062 56.1553 283.783 56.1758 283.479 56.1758C282.922 56.1758 282.436 56.085 282.02 55.9033C281.609 55.7158 281.293 55.417 281.07 55.0068C280.848 54.5967 280.736 54.0576 280.736 53.3896V44.1436ZM290.721 56.1758C289.982 56.1758 289.32 56.0586 288.734 55.8242C288.148 55.584 287.65 55.2529 287.24 54.8311C286.836 54.4092 286.525 53.9199 286.309 53.3633C286.092 52.8008 285.983 52.2031 285.983 51.5703V51.2188C285.983 50.498 286.086 49.8389 286.291 49.2412C286.496 48.6436 286.789 48.125 287.17 47.6855C287.557 47.2461 288.025 46.9092 288.576 46.6748C289.127 46.4346 289.748 46.3145 290.439 46.3145C291.113 46.3145 291.711 46.4258 292.232 46.6484C292.754 46.8711 293.19 47.1875 293.542 47.5977C293.899 48.0078 294.169 48.5 294.351 49.0742C294.532 49.6426 294.623 50.2754 294.623 50.9727V52.0273H287.064V50.3398H292.136V50.1465C292.136 49.7949 292.071 49.4814 291.942 49.2061C291.819 48.9248 291.632 48.7021 291.38 48.5381C291.128 48.374 290.806 48.292 290.413 48.292C290.079 48.292 289.792 48.3652 289.552 48.5117C289.312 48.6582 289.115 48.8633 288.963 49.127C288.816 49.3906 288.705 49.7012 288.629 50.0586C288.559 50.4102 288.523 50.7969 288.523 51.2188V51.5703C288.523 51.9512 288.576 52.3027 288.682 52.625C288.793 52.9473 288.948 53.2256 289.147 53.46C289.353 53.6943 289.599 53.876 289.886 54.0049C290.179 54.1338 290.51 54.1982 290.879 54.1982C291.336 54.1982 291.761 54.1104 292.153 53.9346C292.552 53.7529 292.895 53.4805 293.182 53.1172L294.412 54.4531C294.213 54.7402 293.94 55.0156 293.595 55.2793C293.255 55.543 292.845 55.7598 292.364 55.9297C291.884 56.0938 291.336 56.1758 290.721 56.1758Z" fill="black"/>
<path d="M71.1523 291.384H67.8652L67.8477 289.573H70.6074C71.0938 289.573 71.4922 289.512 71.8027 289.389C72.1133 289.26 72.3447 289.075 72.4971 288.835C72.6553 288.589 72.7344 288.29 72.7344 287.938C72.7344 287.54 72.6582 287.218 72.5059 286.972C72.3594 286.726 72.1279 286.547 71.8115 286.436C71.501 286.324 71.0996 286.269 70.6074 286.269H68.7793V297H66.1426V284.203H70.6074C71.3516 284.203 72.0166 284.273 72.6025 284.414C73.1943 284.555 73.6953 284.769 74.1055 285.056C74.5156 285.343 74.8291 285.706 75.0459 286.146C75.2627 286.579 75.3711 287.095 75.3711 287.692C75.3711 288.22 75.251 288.706 75.0107 289.151C74.7764 289.597 74.4043 289.96 73.8945 290.241C73.3906 290.522 72.7314 290.678 71.917 290.707L71.1523 291.384ZM71.0381 297H67.1445L68.1729 294.943H71.0381C71.501 294.943 71.8789 294.87 72.1719 294.724C72.4648 294.571 72.6816 294.366 72.8223 294.108C72.9629 293.851 73.0332 293.555 73.0332 293.221C73.0332 292.846 72.9688 292.521 72.8398 292.245C72.7168 291.97 72.5176 291.759 72.2422 291.612C71.9668 291.46 71.6035 291.384 71.1523 291.384H68.6123L68.6299 289.573H71.7939L72.4004 290.285C73.1797 290.273 73.8066 290.411 74.2812 290.698C74.7617 290.979 75.1104 291.346 75.3271 291.797C75.5498 292.248 75.6611 292.731 75.6611 293.247C75.6611 294.067 75.4824 294.759 75.125 295.321C74.7676 295.878 74.2432 296.297 73.5518 296.578C72.8662 296.859 72.0283 297 71.0381 297ZM80.1523 283.5V297H77.6123V283.5H80.1523ZM87.377 294.855V290.619C87.377 290.314 87.3271 290.054 87.2275 289.837C87.1279 289.614 86.9727 289.441 86.7617 289.318C86.5566 289.195 86.29 289.134 85.9619 289.134C85.6807 289.134 85.4375 289.184 85.2324 289.283C85.0273 289.377 84.8691 289.515 84.7578 289.696C84.6465 289.872 84.5908 290.08 84.5908 290.32H82.0596C82.0596 289.916 82.1533 289.532 82.3408 289.169C82.5283 288.806 82.8008 288.486 83.1582 288.211C83.5156 287.93 83.9404 287.71 84.4326 287.552C84.9307 287.394 85.4873 287.314 86.1025 287.314C86.8408 287.314 87.4971 287.438 88.0713 287.684C88.6455 287.93 89.0967 288.299 89.4248 288.791C89.7588 289.283 89.9258 289.898 89.9258 290.637V294.706C89.9258 295.228 89.958 295.655 90.0225 295.989C90.0869 296.317 90.1807 296.604 90.3037 296.851V297H87.7461C87.623 296.742 87.5293 296.42 87.4648 296.033C87.4062 295.641 87.377 295.248 87.377 294.855ZM87.7109 291.208L87.7285 292.641H86.3135C85.9795 292.641 85.6895 292.679 85.4434 292.755C85.1973 292.831 84.9951 292.939 84.8369 293.08C84.6787 293.215 84.5615 293.373 84.4854 293.555C84.415 293.736 84.3799 293.936 84.3799 294.152C84.3799 294.369 84.4297 294.565 84.5293 294.741C84.6289 294.911 84.7725 295.046 84.96 295.146C85.1475 295.239 85.3672 295.286 85.6191 295.286C86 295.286 86.3311 295.21 86.6123 295.058C86.8936 294.905 87.1104 294.718 87.2627 294.495C87.4209 294.272 87.5029 294.062 87.5088 293.862L88.1768 294.935C88.083 295.175 87.9541 295.424 87.79 295.682C87.6318 295.939 87.4297 296.183 87.1836 296.411C86.9375 296.634 86.6416 296.818 86.2959 296.965C85.9502 297.105 85.54 297.176 85.0654 297.176C84.4619 297.176 83.9141 297.056 83.4219 296.815C82.9355 296.569 82.5488 296.232 82.2617 295.805C81.9805 295.371 81.8398 294.879 81.8398 294.328C81.8398 293.83 81.9336 293.388 82.1211 293.001C82.3086 292.614 82.584 292.289 82.9473 292.025C83.3164 291.756 83.7764 291.554 84.3271 291.419C84.8779 291.278 85.5166 291.208 86.2432 291.208H87.7109ZM95.8057 295.198C96.1162 295.198 96.3916 295.14 96.6318 295.022C96.8721 294.899 97.0596 294.729 97.1943 294.513C97.335 294.29 97.4082 294.029 97.4141 293.73H99.7959C99.79 294.398 99.6113 294.993 99.2598 295.515C98.9082 296.03 98.4365 296.438 97.8447 296.736C97.2529 297.029 96.5908 297.176 95.8584 297.176C95.1201 297.176 94.4756 297.053 93.9248 296.807C93.3799 296.561 92.9258 296.221 92.5625 295.787C92.1992 295.348 91.9268 294.838 91.7451 294.258C91.5635 293.672 91.4727 293.045 91.4727 292.377V292.122C91.4727 291.448 91.5635 290.821 91.7451 290.241C91.9268 289.655 92.1992 289.146 92.5625 288.712C92.9258 288.272 93.3799 287.93 93.9248 287.684C94.4697 287.438 95.1084 287.314 95.8408 287.314C96.6201 287.314 97.3027 287.464 97.8887 287.763C98.4805 288.062 98.9434 288.489 99.2773 289.046C99.6172 289.597 99.79 290.25 99.7959 291.006H97.4141C97.4082 290.689 97.3408 290.402 97.2119 290.145C97.0889 289.887 96.9072 289.682 96.667 289.529C96.4326 289.371 96.1426 289.292 95.7969 289.292C95.4277 289.292 95.126 289.371 94.8916 289.529C94.6572 289.682 94.4756 289.893 94.3467 290.162C94.2178 290.426 94.127 290.728 94.0742 291.067C94.0273 291.401 94.0039 291.753 94.0039 292.122V292.377C94.0039 292.746 94.0273 293.101 94.0742 293.44C94.1211 293.78 94.209 294.082 94.3379 294.346C94.4727 294.609 94.6572 294.817 94.8916 294.97C95.126 295.122 95.4307 295.198 95.8057 295.198ZM103.795 283.491V297H101.264V283.491H103.795ZM109.789 287.49L105.658 292.201L103.443 294.442L102.521 292.614L104.278 290.382L106.748 287.49H109.789ZM107.161 297L104.349 292.605L106.098 291.076L110.079 297H107.161ZM114.957 292.342V292.157C114.957 291.46 115.057 290.818 115.256 290.232C115.455 289.641 115.745 289.128 116.126 288.694C116.507 288.261 116.976 287.924 117.532 287.684C118.089 287.438 118.728 287.314 119.448 287.314C120.169 287.314 120.811 287.438 121.373 287.684C121.936 287.924 122.407 288.261 122.788 288.694C123.175 289.128 123.468 289.641 123.667 290.232C123.866 290.818 123.966 291.46 123.966 292.157V292.342C123.966 293.033 123.866 293.675 123.667 294.267C123.468 294.853 123.175 295.365 122.788 295.805C122.407 296.238 121.938 296.575 121.382 296.815C120.825 297.056 120.187 297.176 119.466 297.176C118.745 297.176 118.104 297.056 117.541 296.815C116.984 296.575 116.513 296.238 116.126 295.805C115.745 295.365 115.455 294.853 115.256 294.267C115.057 293.675 114.957 293.033 114.957 292.342ZM117.488 292.157V292.342C117.488 292.74 117.523 293.112 117.594 293.458C117.664 293.804 117.775 294.108 117.928 294.372C118.086 294.63 118.291 294.832 118.543 294.979C118.795 295.125 119.103 295.198 119.466 295.198C119.817 295.198 120.119 295.125 120.371 294.979C120.623 294.832 120.825 294.63 120.978 294.372C121.13 294.108 121.241 293.804 121.312 293.458C121.388 293.112 121.426 292.74 121.426 292.342V292.157C121.426 291.771 121.388 291.407 121.312 291.067C121.241 290.722 121.127 290.417 120.969 290.153C120.816 289.884 120.614 289.673 120.362 289.521C120.11 289.368 119.806 289.292 119.448 289.292C119.091 289.292 118.786 289.368 118.534 289.521C118.288 289.673 118.086 289.884 117.928 290.153C117.775 290.417 117.664 290.722 117.594 291.067C117.523 291.407 117.488 291.771 117.488 292.157ZM128.053 289.564V297H125.521V287.49H127.903L128.053 289.564ZM130.918 287.429L130.874 289.775C130.751 289.758 130.602 289.743 130.426 289.731C130.256 289.714 130.101 289.705 129.96 289.705C129.603 289.705 129.292 289.752 129.028 289.846C128.771 289.934 128.554 290.065 128.378 290.241C128.208 290.417 128.079 290.631 127.991 290.883C127.909 291.135 127.862 291.422 127.851 291.744L127.341 291.586C127.341 290.971 127.402 290.405 127.525 289.89C127.648 289.368 127.827 288.914 128.062 288.527C128.302 288.141 128.595 287.842 128.94 287.631C129.286 287.42 129.682 287.314 130.127 287.314C130.268 287.314 130.411 287.326 130.558 287.35C130.704 287.367 130.824 287.394 130.918 287.429ZM139.312 294.539L141.289 287.49H142.897L142.379 290.259L140.401 297H139.057L139.312 294.539ZM138.31 287.49L139.725 294.53L139.856 297H138.274L135.866 287.49H138.31ZM144.708 294.416L146.088 287.49H148.54L146.132 297H144.559L144.708 294.416ZM143.117 287.49L145.086 294.486L145.358 297H144.005L142.027 290.268L141.526 287.49H143.117ZM152.284 283.5V297H149.753V283.5H152.284ZM151.924 291.911H151.229C151.235 291.249 151.323 290.64 151.493 290.083C151.663 289.521 151.906 289.034 152.223 288.624C152.539 288.208 152.917 287.886 153.356 287.657C153.802 287.429 154.294 287.314 154.833 287.314C155.302 287.314 155.727 287.382 156.107 287.517C156.494 287.646 156.825 287.856 157.101 288.149C157.382 288.437 157.599 288.814 157.751 289.283C157.903 289.752 157.979 290.32 157.979 290.988V297H155.431V290.971C155.431 290.549 155.369 290.218 155.246 289.978C155.129 289.731 154.956 289.559 154.728 289.459C154.505 289.354 154.229 289.301 153.901 289.301C153.538 289.301 153.228 289.368 152.97 289.503C152.718 289.638 152.516 289.825 152.363 290.065C152.211 290.3 152.1 290.575 152.029 290.892C151.959 291.208 151.924 291.548 151.924 291.911ZM162.576 287.49V297H160.036V287.49H162.576ZM159.878 285.012C159.878 284.643 160.007 284.338 160.265 284.098C160.522 283.857 160.868 283.737 161.302 283.737C161.729 283.737 162.072 283.857 162.33 284.098C162.594 284.338 162.726 284.643 162.726 285.012C162.726 285.381 162.594 285.686 162.33 285.926C162.072 286.166 161.729 286.286 161.302 286.286C160.868 286.286 160.522 286.166 160.265 285.926C160.007 285.686 159.878 285.381 159.878 285.012ZM169.326 287.49V289.283H163.789V287.49H169.326ZM165.16 285.144H167.691V294.135C167.691 294.41 167.727 294.621 167.797 294.768C167.873 294.914 167.984 295.017 168.131 295.075C168.277 295.128 168.462 295.154 168.685 295.154C168.843 295.154 168.983 295.148 169.106 295.137C169.235 295.119 169.344 295.102 169.432 295.084L169.44 296.947C169.224 297.018 168.989 297.073 168.737 297.114C168.485 297.155 168.207 297.176 167.902 297.176C167.346 297.176 166.859 297.085 166.443 296.903C166.033 296.716 165.717 296.417 165.494 296.007C165.271 295.597 165.16 295.058 165.16 294.39V285.144ZM175.145 297.176C174.406 297.176 173.744 297.059 173.158 296.824C172.572 296.584 172.074 296.253 171.664 295.831C171.26 295.409 170.949 294.92 170.732 294.363C170.516 293.801 170.407 293.203 170.407 292.57V292.219C170.407 291.498 170.51 290.839 170.715 290.241C170.92 289.644 171.213 289.125 171.594 288.686C171.98 288.246 172.449 287.909 173 287.675C173.551 287.435 174.172 287.314 174.863 287.314C175.537 287.314 176.135 287.426 176.656 287.648C177.178 287.871 177.614 288.188 177.966 288.598C178.323 289.008 178.593 289.5 178.774 290.074C178.956 290.643 179.047 291.275 179.047 291.973V293.027H171.488V291.34H176.56V291.146C176.56 290.795 176.495 290.481 176.366 290.206C176.243 289.925 176.056 289.702 175.804 289.538C175.552 289.374 175.229 289.292 174.837 289.292C174.503 289.292 174.216 289.365 173.976 289.512C173.735 289.658 173.539 289.863 173.387 290.127C173.24 290.391 173.129 290.701 173.053 291.059C172.982 291.41 172.947 291.797 172.947 292.219V292.57C172.947 292.951 173 293.303 173.105 293.625C173.217 293.947 173.372 294.226 173.571 294.46C173.776 294.694 174.022 294.876 174.31 295.005C174.603 295.134 174.934 295.198 175.303 295.198C175.76 295.198 176.185 295.11 176.577 294.935C176.976 294.753 177.318 294.48 177.605 294.117L178.836 295.453C178.637 295.74 178.364 296.016 178.019 296.279C177.679 296.543 177.269 296.76 176.788 296.93C176.308 297.094 175.76 297.176 175.145 297.176ZM189.629 287.49V289.283H184.092V287.49H189.629ZM185.463 285.144H187.994V294.135C187.994 294.41 188.029 294.621 188.1 294.768C188.176 294.914 188.287 295.017 188.434 295.075C188.58 295.128 188.765 295.154 188.987 295.154C189.146 295.154 189.286 295.148 189.409 295.137C189.538 295.119 189.646 295.102 189.734 295.084L189.743 296.947C189.526 297.018 189.292 297.073 189.04 297.114C188.788 297.155 188.51 297.176 188.205 297.176C187.648 297.176 187.162 297.085 186.746 296.903C186.336 296.716 186.02 296.417 185.797 296.007C185.574 295.597 185.463 295.058 185.463 294.39V285.144ZM195.447 297.176C194.709 297.176 194.047 297.059 193.461 296.824C192.875 296.584 192.377 296.253 191.967 295.831C191.562 295.409 191.252 294.92 191.035 294.363C190.818 293.801 190.71 293.203 190.71 292.57V292.219C190.71 291.498 190.812 290.839 191.018 290.241C191.223 289.644 191.516 289.125 191.896 288.686C192.283 288.246 192.752 287.909 193.303 287.675C193.854 287.435 194.475 287.314 195.166 287.314C195.84 287.314 196.438 287.426 196.959 287.648C197.48 287.871 197.917 288.188 198.269 288.598C198.626 289.008 198.896 289.5 199.077 290.074C199.259 290.643 199.35 291.275 199.35 291.973V293.027H191.791V291.34H196.862V291.146C196.862 290.795 196.798 290.481 196.669 290.206C196.546 289.925 196.358 289.702 196.106 289.538C195.854 289.374 195.532 289.292 195.14 289.292C194.806 289.292 194.519 289.365 194.278 289.512C194.038 289.658 193.842 289.863 193.689 290.127C193.543 290.391 193.432 290.701 193.355 291.059C193.285 291.41 193.25 291.797 193.25 292.219V292.57C193.25 292.951 193.303 293.303 193.408 293.625C193.52 293.947 193.675 294.226 193.874 294.46C194.079 294.694 194.325 294.876 194.612 295.005C194.905 295.134 195.236 295.198 195.605 295.198C196.062 295.198 196.487 295.11 196.88 294.935C197.278 294.753 197.621 294.48 197.908 294.117L199.139 295.453C198.939 295.74 198.667 296.016 198.321 296.279C197.981 296.543 197.571 296.76 197.091 296.93C196.61 297.094 196.062 297.176 195.447 297.176ZM202.83 287.49L204.403 290.382L206.021 287.49H208.719L206.029 292.14L208.842 297H206.135L204.421 293.941L202.707 297H200L202.812 292.14L200.123 287.49H202.83ZM214.607 287.49V289.283H209.07V287.49H214.607ZM210.441 285.144H212.973V294.135C212.973 294.41 213.008 294.621 213.078 294.768C213.154 294.914 213.266 295.017 213.412 295.075C213.559 295.128 213.743 295.154 213.966 295.154C214.124 295.154 214.265 295.148 214.388 295.137C214.517 295.119 214.625 295.102 214.713 295.084L214.722 296.947C214.505 297.018 214.271 297.073 214.019 297.114C213.767 297.155 213.488 297.176 213.184 297.176C212.627 297.176 212.141 297.085 211.725 296.903C211.314 296.716 210.998 296.417 210.775 296.007C210.553 295.597 210.441 295.058 210.441 294.39V285.144ZM223.203 287.49V297H220.663V287.49H223.203ZM220.505 285.012C220.505 284.643 220.634 284.338 220.892 284.098C221.149 283.857 221.495 283.737 221.929 283.737C222.356 283.737 222.699 283.857 222.957 284.098C223.221 284.338 223.353 284.643 223.353 285.012C223.353 285.381 223.221 285.686 222.957 285.926C222.699 286.166 222.356 286.286 221.929 286.286C221.495 286.286 221.149 286.166 220.892 285.926C220.634 285.686 220.505 285.381 220.505 285.012ZM230.437 294.372C230.437 294.19 230.384 294.026 230.278 293.88C230.173 293.733 229.977 293.599 229.689 293.476C229.408 293.347 229.001 293.229 228.468 293.124C227.987 293.019 227.539 292.887 227.123 292.729C226.713 292.564 226.355 292.368 226.051 292.14C225.752 291.911 225.518 291.642 225.348 291.331C225.178 291.015 225.093 290.654 225.093 290.25C225.093 289.852 225.178 289.477 225.348 289.125C225.523 288.773 225.772 288.463 226.095 288.193C226.423 287.918 226.821 287.704 227.29 287.552C227.765 287.394 228.298 287.314 228.89 287.314C229.716 287.314 230.425 287.446 231.017 287.71C231.614 287.974 232.071 288.337 232.388 288.8C232.71 289.257 232.871 289.778 232.871 290.364H230.34C230.34 290.118 230.287 289.898 230.182 289.705C230.082 289.506 229.924 289.351 229.707 289.239C229.496 289.122 229.221 289.063 228.881 289.063C228.6 289.063 228.356 289.113 228.151 289.213C227.946 289.307 227.788 289.436 227.677 289.6C227.571 289.758 227.519 289.934 227.519 290.127C227.519 290.273 227.548 290.405 227.606 290.522C227.671 290.634 227.773 290.736 227.914 290.83C228.055 290.924 228.236 291.012 228.459 291.094C228.688 291.17 228.969 291.24 229.303 291.305C229.988 291.445 230.601 291.63 231.14 291.858C231.679 292.081 232.106 292.386 232.423 292.772C232.739 293.153 232.897 293.654 232.897 294.275C232.897 294.697 232.804 295.084 232.616 295.436C232.429 295.787 232.159 296.095 231.808 296.358C231.456 296.616 231.034 296.818 230.542 296.965C230.056 297.105 229.508 297.176 228.898 297.176C228.014 297.176 227.264 297.018 226.648 296.701C226.039 296.385 225.576 295.983 225.26 295.497C224.949 295.005 224.794 294.501 224.794 293.985H227.193C227.205 294.331 227.293 294.609 227.457 294.82C227.627 295.031 227.841 295.184 228.099 295.277C228.362 295.371 228.646 295.418 228.951 295.418C229.279 295.418 229.552 295.374 229.769 295.286C229.985 295.192 230.149 295.069 230.261 294.917C230.378 294.759 230.437 294.577 230.437 294.372ZM242.249 297H239.7V286.646C239.7 285.926 239.841 285.319 240.122 284.827C240.409 284.329 240.811 283.954 241.326 283.702C241.848 283.444 242.466 283.315 243.181 283.315C243.415 283.315 243.641 283.333 243.857 283.368C244.074 283.397 244.285 283.436 244.49 283.482L244.464 285.39C244.353 285.36 244.235 285.34 244.112 285.328C243.989 285.316 243.846 285.311 243.682 285.311C243.377 285.311 243.116 285.363 242.899 285.469C242.688 285.568 242.527 285.718 242.416 285.917C242.305 286.116 242.249 286.359 242.249 286.646V297ZM244.147 287.49V289.283H238.285V287.49H244.147ZM245.07 292.342V292.157C245.07 291.46 245.17 290.818 245.369 290.232C245.568 289.641 245.858 289.128 246.239 288.694C246.62 288.261 247.089 287.924 247.646 287.684C248.202 287.438 248.841 287.314 249.562 287.314C250.282 287.314 250.924 287.438 251.486 287.684C252.049 287.924 252.521 288.261 252.901 288.694C253.288 289.128 253.581 289.641 253.78 290.232C253.979 290.818 254.079 291.46 254.079 292.157V292.342C254.079 293.033 253.979 293.675 253.78 294.267C253.581 294.853 253.288 295.365 252.901 295.805C252.521 296.238 252.052 296.575 251.495 296.815C250.938 297.056 250.3 297.176 249.579 297.176C248.858 297.176 248.217 297.056 247.654 296.815C247.098 296.575 246.626 296.238 246.239 295.805C245.858 295.365 245.568 294.853 245.369 294.267C245.17 293.675 245.07 293.033 245.07 292.342ZM247.602 292.157V292.342C247.602 292.74 247.637 293.112 247.707 293.458C247.777 293.804 247.889 294.108 248.041 294.372C248.199 294.63 248.404 294.832 248.656 294.979C248.908 295.125 249.216 295.198 249.579 295.198C249.931 295.198 250.232 295.125 250.484 294.979C250.736 294.832 250.938 294.63 251.091 294.372C251.243 294.108 251.354 293.804 251.425 293.458C251.501 293.112 251.539 292.74 251.539 292.342V292.157C251.539 291.771 251.501 291.407 251.425 291.067C251.354 290.722 251.24 290.417 251.082 290.153C250.93 289.884 250.728 289.673 250.476 289.521C250.224 289.368 249.919 289.292 249.562 289.292C249.204 289.292 248.899 289.368 248.647 289.521C248.401 289.673 248.199 289.884 248.041 290.153C247.889 290.417 247.777 290.722 247.707 291.067C247.637 291.407 247.602 291.771 247.602 292.157ZM258.307 283.5V297H255.767V283.5H258.307ZM263.07 283.5V297H260.53V283.5H263.07ZM264.758 292.342V292.157C264.758 291.46 264.857 290.818 265.057 290.232C265.256 289.641 265.546 289.128 265.927 288.694C266.308 288.261 266.776 287.924 267.333 287.684C267.89 287.438 268.528 287.314 269.249 287.314C269.97 287.314 270.611 287.438 271.174 287.684C271.736 287.924 272.208 288.261 272.589 288.694C272.976 289.128 273.269 289.641 273.468 290.232C273.667 290.818 273.767 291.46 273.767 292.157V292.342C273.767 293.033 273.667 293.675 273.468 294.267C273.269 294.853 272.976 295.365 272.589 295.805C272.208 296.238 271.739 296.575 271.183 296.815C270.626 297.056 269.987 297.176 269.267 297.176C268.546 297.176 267.904 297.056 267.342 296.815C266.785 296.575 266.313 296.238 265.927 295.805C265.546 295.365 265.256 294.853 265.057 294.267C264.857 293.675 264.758 293.033 264.758 292.342ZM267.289 292.157V292.342C267.289 292.74 267.324 293.112 267.395 293.458C267.465 293.804 267.576 294.108 267.729 294.372C267.887 294.63 268.092 294.832 268.344 294.979C268.596 295.125 268.903 295.198 269.267 295.198C269.618 295.198 269.92 295.125 270.172 294.979C270.424 294.832 270.626 294.63 270.778 294.372C270.931 294.108 271.042 293.804 271.112 293.458C271.188 293.112 271.227 292.74 271.227 292.342V292.157C271.227 291.771 271.188 291.407 271.112 291.067C271.042 290.722 270.928 290.417 270.77 290.153C270.617 289.884 270.415 289.673 270.163 289.521C269.911 289.368 269.606 289.292 269.249 289.292C268.892 289.292 268.587 289.368 268.335 289.521C268.089 289.673 267.887 289.884 267.729 290.153C267.576 290.417 267.465 290.722 267.395 291.067C267.324 291.407 267.289 291.771 267.289 292.157ZM278.038 294.539L280.016 287.49H281.624L281.105 290.259L279.128 297H277.783L278.038 294.539ZM277.036 287.49L278.451 294.53L278.583 297H277.001L274.593 287.49H277.036ZM283.435 294.416L284.814 287.49H287.267L284.858 297H283.285L283.435 294.416ZM281.844 287.49L283.812 294.486L284.085 297H282.731L280.754 290.268L280.253 287.49H281.844ZM292.918 297.176C292.18 297.176 291.518 297.059 290.932 296.824C290.346 296.584 289.848 296.253 289.438 295.831C289.033 295.409 288.723 294.92 288.506 294.363C288.289 293.801 288.181 293.203 288.181 292.57V292.219C288.181 291.498 288.283 290.839 288.488 290.241C288.693 289.644 288.986 289.125 289.367 288.686C289.754 288.246 290.223 287.909 290.773 287.675C291.324 287.435 291.945 287.314 292.637 287.314C293.311 287.314 293.908 287.426 294.43 287.648C294.951 287.871 295.388 288.188 295.739 288.598C296.097 289.008 296.366 289.5 296.548 290.074C296.729 290.643 296.82 291.275 296.82 291.973V293.027H289.262V291.34H294.333V291.146C294.333 290.795 294.269 290.481 294.14 290.206C294.017 289.925 293.829 289.702 293.577 289.538C293.325 289.374 293.003 289.292 292.61 289.292C292.276 289.292 291.989 289.365 291.749 289.512C291.509 289.658 291.312 289.863 291.16 290.127C291.014 290.391 290.902 290.701 290.826 291.059C290.756 291.41 290.721 291.797 290.721 292.219V292.57C290.721 292.951 290.773 293.303 290.879 293.625C290.99 293.947 291.146 294.226 291.345 294.46C291.55 294.694 291.796 294.876 292.083 295.005C292.376 295.134 292.707 295.198 293.076 295.198C293.533 295.198 293.958 295.11 294.351 294.935C294.749 294.753 295.092 294.48 295.379 294.117L296.609 295.453C296.41 295.74 296.138 296.016 295.792 296.279C295.452 296.543 295.042 296.76 294.562 296.93C294.081 297.094 293.533 297.176 292.918 297.176ZM303.878 294.926V283.5H306.427V297H304.133L303.878 294.926ZM297.866 292.359V292.175C297.866 291.448 297.948 290.789 298.112 290.197C298.276 289.6 298.517 289.087 298.833 288.659C299.149 288.231 299.539 287.9 300.002 287.666C300.465 287.432 300.992 287.314 301.584 287.314C302.141 287.314 302.627 287.432 303.043 287.666C303.465 287.9 303.822 288.234 304.115 288.668C304.414 289.096 304.654 289.603 304.836 290.188C305.018 290.769 305.149 291.404 305.231 292.096V292.5C305.149 293.162 305.018 293.777 304.836 294.346C304.654 294.914 304.414 295.412 304.115 295.84C303.822 296.262 303.465 296.59 303.043 296.824C302.621 297.059 302.129 297.176 301.566 297.176C300.975 297.176 300.447 297.056 299.984 296.815C299.527 296.575 299.141 296.238 298.824 295.805C298.514 295.371 298.276 294.861 298.112 294.275C297.948 293.689 297.866 293.051 297.866 292.359ZM300.397 292.175V292.359C300.397 292.752 300.427 293.118 300.485 293.458C300.55 293.798 300.652 294.1 300.793 294.363C300.939 294.621 301.127 294.823 301.355 294.97C301.59 295.11 301.874 295.181 302.208 295.181C302.642 295.181 302.999 295.084 303.28 294.891C303.562 294.691 303.775 294.419 303.922 294.073C304.074 293.728 304.162 293.329 304.186 292.878V291.727C304.168 291.357 304.115 291.026 304.027 290.733C303.945 290.435 303.822 290.18 303.658 289.969C303.5 289.758 303.301 289.594 303.061 289.477C302.826 289.359 302.548 289.301 302.226 289.301C301.897 289.301 301.616 289.377 301.382 289.529C301.147 289.676 300.957 289.878 300.811 290.136C300.67 290.394 300.564 290.698 300.494 291.05C300.43 291.396 300.397 291.771 300.397 292.175ZM312.887 283.5H315.418V294.82L315.163 297H312.887V283.5ZM321.438 292.148V292.333C321.438 293.042 321.362 293.692 321.21 294.284C321.063 294.876 320.835 295.389 320.524 295.822C320.214 296.25 319.827 296.584 319.364 296.824C318.907 297.059 318.368 297.176 317.747 297.176C317.167 297.176 316.663 297.059 316.235 296.824C315.813 296.59 315.459 296.259 315.172 295.831C314.885 295.403 314.653 294.902 314.478 294.328C314.302 293.754 314.17 293.127 314.082 292.447V292.043C314.17 291.363 314.302 290.736 314.478 290.162C314.653 289.588 314.885 289.087 315.172 288.659C315.459 288.231 315.813 287.9 316.235 287.666C316.657 287.432 317.155 287.314 317.729 287.314C318.356 287.314 318.901 287.435 319.364 287.675C319.833 287.909 320.22 288.243 320.524 288.677C320.835 289.104 321.063 289.614 321.21 290.206C321.362 290.792 321.438 291.439 321.438 292.148ZM318.907 292.333V292.148C318.907 291.762 318.878 291.398 318.819 291.059C318.767 290.713 318.673 290.411 318.538 290.153C318.403 289.89 318.219 289.682 317.984 289.529C317.756 289.377 317.46 289.301 317.097 289.301C316.751 289.301 316.458 289.359 316.218 289.477C315.978 289.594 315.778 289.758 315.62 289.969C315.468 290.18 315.354 290.432 315.277 290.725C315.201 291.012 315.154 291.328 315.137 291.674V292.825C315.154 293.288 315.23 293.698 315.365 294.056C315.506 294.407 315.717 294.686 315.998 294.891C316.285 295.09 316.657 295.189 317.114 295.189C317.472 295.189 317.768 295.119 318.002 294.979C318.236 294.838 318.418 294.639 318.547 294.381C318.682 294.123 318.775 293.821 318.828 293.476C318.881 293.124 318.907 292.743 318.907 292.333ZM325.728 295.928L328.25 287.49H330.966L327.143 298.433C327.061 298.673 326.949 298.931 326.809 299.206C326.674 299.481 326.489 299.742 326.255 299.988C326.026 300.24 325.736 300.445 325.385 300.604C325.039 300.762 324.614 300.841 324.11 300.841C323.87 300.841 323.674 300.826 323.521 300.797C323.369 300.768 323.188 300.727 322.977 300.674V298.819C323.041 298.819 323.108 298.819 323.179 298.819C323.249 298.825 323.316 298.828 323.381 298.828C323.715 298.828 323.987 298.79 324.198 298.714C324.409 298.638 324.579 298.521 324.708 298.362C324.837 298.21 324.939 298.011 325.016 297.765L325.728 295.928ZM324.673 287.49L326.738 294.381L327.099 297.062L325.376 297.246L321.957 287.49H324.673ZM341.117 287.49V289.283H335.58V287.49H341.117ZM336.951 285.144H339.482V294.135C339.482 294.41 339.518 294.621 339.588 294.768C339.664 294.914 339.775 295.017 339.922 295.075C340.068 295.128 340.253 295.154 340.476 295.154C340.634 295.154 340.774 295.148 340.897 295.137C341.026 295.119 341.135 295.102 341.223 295.084L341.231 296.947C341.015 297.018 340.78 297.073 340.528 297.114C340.276 297.155 339.998 297.176 339.693 297.176C339.137 297.176 338.65 297.085 338.234 296.903C337.824 296.716 337.508 296.417 337.285 296.007C337.062 295.597 336.951 295.058 336.951 294.39V285.144ZM345.028 283.5V297H342.497V283.5H345.028ZM344.668 291.911H343.974C343.979 291.249 344.067 290.64 344.237 290.083C344.407 289.521 344.65 289.034 344.967 288.624C345.283 288.208 345.661 287.886 346.101 287.657C346.546 287.429 347.038 287.314 347.577 287.314C348.046 287.314 348.471 287.382 348.852 287.517C349.238 287.646 349.569 287.856 349.845 288.149C350.126 288.437 350.343 288.814 350.495 289.283C350.647 289.752 350.724 290.32 350.724 290.988V297H348.175V290.971C348.175 290.549 348.113 290.218 347.99 289.978C347.873 289.731 347.7 289.559 347.472 289.459C347.249 289.354 346.974 289.301 346.646 289.301C346.282 289.301 345.972 289.368 345.714 289.503C345.462 289.638 345.26 289.825 345.107 290.065C344.955 290.3 344.844 290.575 344.773 290.892C344.703 291.208 344.668 291.548 344.668 291.911ZM357.025 297.176C356.287 297.176 355.625 297.059 355.039 296.824C354.453 296.584 353.955 296.253 353.545 295.831C353.141 295.409 352.83 294.92 352.613 294.363C352.396 293.801 352.288 293.203 352.288 292.57V292.219C352.288 291.498 352.391 290.839 352.596 290.241C352.801 289.644 353.094 289.125 353.475 288.686C353.861 288.246 354.33 287.909 354.881 287.675C355.432 287.435 356.053 287.314 356.744 287.314C357.418 287.314 358.016 287.426 358.537 287.648C359.059 287.871 359.495 288.188 359.847 288.598C360.204 289.008 360.474 289.5 360.655 290.074C360.837 290.643 360.928 291.275 360.928 291.973V293.027H353.369V291.34H358.44V291.146C358.44 290.795 358.376 290.481 358.247 290.206C358.124 289.925 357.937 289.702 357.685 289.538C357.433 289.374 357.11 289.292 356.718 289.292C356.384 289.292 356.097 289.365 355.856 289.512C355.616 289.658 355.42 289.863 355.268 290.127C355.121 290.391 355.01 290.701 354.934 291.059C354.863 291.41 354.828 291.797 354.828 292.219V292.57C354.828 292.951 354.881 293.303 354.986 293.625C355.098 293.947 355.253 294.226 355.452 294.46C355.657 294.694 355.903 294.876 356.19 295.005C356.483 295.134 356.814 295.198 357.184 295.198C357.641 295.198 358.065 295.11 358.458 294.935C358.856 294.753 359.199 294.48 359.486 294.117L360.717 295.453C360.518 295.74 360.245 296.016 359.899 296.279C359.56 296.543 359.149 296.76 358.669 296.93C358.188 297.094 357.641 297.176 357.025 297.176ZM370.78 295.198C371.091 295.198 371.366 295.14 371.606 295.022C371.847 294.899 372.034 294.729 372.169 294.513C372.31 294.29 372.383 294.029 372.389 293.73H374.771C374.765 294.398 374.586 294.993 374.234 295.515C373.883 296.03 373.411 296.438 372.819 296.736C372.228 297.029 371.565 297.176 370.833 297.176C370.095 297.176 369.45 297.053 368.899 296.807C368.354 296.561 367.9 296.221 367.537 295.787C367.174 295.348 366.901 294.838 366.72 294.258C366.538 293.672 366.447 293.045 366.447 292.377V292.122C366.447 291.448 366.538 290.821 366.72 290.241C366.901 289.655 367.174 289.146 367.537 288.712C367.9 288.272 368.354 287.93 368.899 287.684C369.444 287.438 370.083 287.314 370.815 287.314C371.595 287.314 372.277 287.464 372.863 287.763C373.455 288.062 373.918 288.489 374.252 289.046C374.592 289.597 374.765 290.25 374.771 291.006H372.389C372.383 290.689 372.315 290.402 372.187 290.145C372.063 289.887 371.882 289.682 371.642 289.529C371.407 289.371 371.117 289.292 370.771 289.292C370.402 289.292 370.101 289.371 369.866 289.529C369.632 289.682 369.45 289.893 369.321 290.162C369.192 290.426 369.102 290.728 369.049 291.067C369.002 291.401 368.979 291.753 368.979 292.122V292.377C368.979 292.746 369.002 293.101 369.049 293.44C369.096 293.78 369.184 294.082 369.312 294.346C369.447 294.609 369.632 294.817 369.866 294.97C370.101 295.122 370.405 295.198 370.78 295.198ZM375.834 292.342V292.157C375.834 291.46 375.934 290.818 376.133 290.232C376.332 289.641 376.622 289.128 377.003 288.694C377.384 288.261 377.853 287.924 378.409 287.684C378.966 287.438 379.604 287.314 380.325 287.314C381.046 287.314 381.688 287.438 382.25 287.684C382.812 287.924 383.284 288.261 383.665 288.694C384.052 289.128 384.345 289.641 384.544 290.232C384.743 290.818 384.843 291.46 384.843 292.157V292.342C384.843 293.033 384.743 293.675 384.544 294.267C384.345 294.853 384.052 295.365 383.665 295.805C383.284 296.238 382.815 296.575 382.259 296.815C381.702 297.056 381.063 297.176 380.343 297.176C379.622 297.176 378.98 297.056 378.418 296.815C377.861 296.575 377.39 296.238 377.003 295.805C376.622 295.365 376.332 294.853 376.133 294.267C375.934 293.675 375.834 293.033 375.834 292.342ZM378.365 292.157V292.342C378.365 292.74 378.4 293.112 378.471 293.458C378.541 293.804 378.652 294.108 378.805 294.372C378.963 294.63 379.168 294.832 379.42 294.979C379.672 295.125 379.979 295.198 380.343 295.198C380.694 295.198 380.996 295.125 381.248 294.979C381.5 294.832 381.702 294.63 381.854 294.372C382.007 294.108 382.118 293.804 382.188 293.458C382.265 293.112 382.303 292.74 382.303 292.342V292.157C382.303 291.771 382.265 291.407 382.188 291.067C382.118 290.722 382.004 290.417 381.846 290.153C381.693 289.884 381.491 289.673 381.239 289.521C380.987 289.368 380.683 289.292 380.325 289.292C379.968 289.292 379.663 289.368 379.411 289.521C379.165 289.673 378.963 289.884 378.805 290.153C378.652 290.417 378.541 290.722 378.471 291.067C378.4 291.407 378.365 291.771 378.365 292.157ZM388.877 289.521V297H386.346V287.49H388.719L388.877 289.521ZM388.508 291.911H387.822C387.822 291.208 387.913 290.575 388.095 290.013C388.276 289.444 388.531 288.961 388.859 288.562C389.188 288.158 389.577 287.851 390.028 287.64C390.485 287.423 390.995 287.314 391.558 287.314C392.003 287.314 392.41 287.379 392.779 287.508C393.148 287.637 393.465 287.842 393.729 288.123C393.998 288.404 394.203 288.776 394.344 289.239C394.49 289.702 394.563 290.268 394.563 290.936V297H392.015V290.927C392.015 290.505 391.956 290.177 391.839 289.942C391.722 289.708 391.549 289.544 391.32 289.45C391.098 289.351 390.822 289.301 390.494 289.301C390.154 289.301 389.858 289.368 389.606 289.503C389.36 289.638 389.155 289.825 388.991 290.065C388.833 290.3 388.713 290.575 388.631 290.892C388.549 291.208 388.508 291.548 388.508 291.911ZM401.146 287.49V289.283H395.609V287.49H401.146ZM396.98 285.144H399.512V294.135C399.512 294.41 399.547 294.621 399.617 294.768C399.693 294.914 399.805 295.017 399.951 295.075C400.098 295.128 400.282 295.154 400.505 295.154C400.663 295.154 400.804 295.148 400.927 295.137C401.056 295.119 401.164 295.102 401.252 295.084L401.261 296.947C401.044 297.018 400.81 297.073 400.558 297.114C400.306 297.155 400.027 297.176 399.723 297.176C399.166 297.176 398.68 297.085 398.264 296.903C397.854 296.716 397.537 296.417 397.314 296.007C397.092 295.597 396.98 295.058 396.98 294.39V285.144ZM405.119 289.564V297H402.588V287.49H404.97L405.119 289.564ZM407.984 287.429L407.94 289.775C407.817 289.758 407.668 289.743 407.492 289.731C407.322 289.714 407.167 289.705 407.026 289.705C406.669 289.705 406.358 289.752 406.095 289.846C405.837 289.934 405.62 290.065 405.444 290.241C405.274 290.417 405.146 290.631 405.058 290.883C404.976 291.135 404.929 291.422 404.917 291.744L404.407 291.586C404.407 290.971 404.469 290.405 404.592 289.89C404.715 289.368 404.894 288.914 405.128 288.527C405.368 288.141 405.661 287.842 406.007 287.631C406.353 287.42 406.748 287.314 407.193 287.314C407.334 287.314 407.478 287.326 407.624 287.35C407.771 287.367 407.891 287.394 407.984 287.429ZM414.014 294.855V290.619C414.014 290.314 413.964 290.054 413.864 289.837C413.765 289.614 413.609 289.441 413.398 289.318C413.193 289.195 412.927 289.134 412.599 289.134C412.317 289.134 412.074 289.184 411.869 289.283C411.664 289.377 411.506 289.515 411.395 289.696C411.283 289.872 411.228 290.08 411.228 290.32H408.696C408.696 289.916 408.79 289.532 408.978 289.169C409.165 288.806 409.438 288.486 409.795 288.211C410.152 287.93 410.577 287.71 411.069 287.552C411.567 287.394 412.124 287.314 412.739 287.314C413.478 287.314 414.134 287.438 414.708 287.684C415.282 287.93 415.733 288.299 416.062 288.791C416.396 289.283 416.562 289.898 416.562 290.637V294.706C416.562 295.228 416.595 295.655 416.659 295.989C416.724 296.317 416.817 296.604 416.94 296.851V297H414.383C414.26 296.742 414.166 296.42 414.102 296.033C414.043 295.641 414.014 295.248 414.014 294.855ZM414.348 291.208L414.365 292.641H412.95C412.616 292.641 412.326 292.679 412.08 292.755C411.834 292.831 411.632 292.939 411.474 293.08C411.315 293.215 411.198 293.373 411.122 293.555C411.052 293.736 411.017 293.936 411.017 294.152C411.017 294.369 411.066 294.565 411.166 294.741C411.266 294.911 411.409 295.046 411.597 295.146C411.784 295.239 412.004 295.286 412.256 295.286C412.637 295.286 412.968 295.21 413.249 295.058C413.53 294.905 413.747 294.718 413.899 294.495C414.058 294.272 414.14 294.062 414.146 293.862L414.813 294.935C414.72 295.175 414.591 295.424 414.427 295.682C414.269 295.939 414.066 296.183 413.82 296.411C413.574 296.634 413.278 296.818 412.933 296.965C412.587 297.105 412.177 297.176 411.702 297.176C411.099 297.176 410.551 297.056 410.059 296.815C409.572 296.569 409.186 296.232 408.898 295.805C408.617 295.371 408.477 294.879 408.477 294.328C408.477 293.83 408.57 293.388 408.758 293.001C408.945 292.614 409.221 292.289 409.584 292.025C409.953 291.756 410.413 291.554 410.964 291.419C411.515 291.278 412.153 291.208 412.88 291.208H414.348ZM423.655 294.372C423.655 294.19 423.603 294.026 423.497 293.88C423.392 293.733 423.195 293.599 422.908 293.476C422.627 293.347 422.22 293.229 421.687 293.124C421.206 293.019 420.758 292.887 420.342 292.729C419.932 292.564 419.574 292.368 419.27 292.14C418.971 291.911 418.736 291.642 418.566 291.331C418.396 291.015 418.312 290.654 418.312 290.25C418.312 289.852 418.396 289.477 418.566 289.125C418.742 288.773 418.991 288.463 419.313 288.193C419.642 287.918 420.04 287.704 420.509 287.552C420.983 287.394 421.517 287.314 422.108 287.314C422.935 287.314 423.644 287.446 424.235 287.71C424.833 287.974 425.29 288.337 425.606 288.8C425.929 289.257 426.09 289.778 426.09 290.364H423.559C423.559 290.118 423.506 289.898 423.4 289.705C423.301 289.506 423.143 289.351 422.926 289.239C422.715 289.122 422.439 289.063 422.1 289.063C421.818 289.063 421.575 289.113 421.37 289.213C421.165 289.307 421.007 289.436 420.896 289.6C420.79 289.758 420.737 289.934 420.737 290.127C420.737 290.273 420.767 290.405 420.825 290.522C420.89 290.634 420.992 290.736 421.133 290.83C421.273 290.924 421.455 291.012 421.678 291.094C421.906 291.17 422.188 291.24 422.521 291.305C423.207 291.445 423.819 291.63 424.358 291.858C424.897 292.081 425.325 292.386 425.642 292.772C425.958 293.153 426.116 293.654 426.116 294.275C426.116 294.697 426.022 295.084 425.835 295.436C425.647 295.787 425.378 296.095 425.026 296.358C424.675 296.616 424.253 296.818 423.761 296.965C423.274 297.105 422.727 297.176 422.117 297.176C421.232 297.176 420.482 297.018 419.867 296.701C419.258 296.385 418.795 295.983 418.479 295.497C418.168 295.005 418.013 294.501 418.013 293.985H420.412C420.424 294.331 420.512 294.609 420.676 294.82C420.846 295.031 421.06 295.184 421.317 295.277C421.581 295.371 421.865 295.418 422.17 295.418C422.498 295.418 422.771 295.374 422.987 295.286C423.204 295.192 423.368 295.069 423.479 294.917C423.597 294.759 423.655 294.577 423.655 294.372ZM432.418 287.49V289.283H426.881V287.49H432.418ZM428.252 285.144H430.783V294.135C430.783 294.41 430.818 294.621 430.889 294.768C430.965 294.914 431.076 295.017 431.223 295.075C431.369 295.128 431.554 295.154 431.776 295.154C431.935 295.154 432.075 295.148 432.198 295.137C432.327 295.119 432.436 295.102 432.523 295.084L432.532 296.947C432.315 297.018 432.081 297.073 431.829 297.114C431.577 297.155 431.299 297.176 430.994 297.176C430.438 297.176 429.951 297.085 429.535 296.903C429.125 296.716 428.809 296.417 428.586 296.007C428.363 295.597 428.252 295.058 428.252 294.39V285.144ZM437.938 292.342V292.157C437.938 291.46 438.037 290.818 438.236 290.232C438.436 289.641 438.726 289.128 439.106 288.694C439.487 288.261 439.956 287.924 440.513 287.684C441.069 287.438 441.708 287.314 442.429 287.314C443.149 287.314 443.791 287.438 444.354 287.684C444.916 287.924 445.388 288.261 445.769 288.694C446.155 289.128 446.448 289.641 446.647 290.232C446.847 290.818 446.946 291.46 446.946 292.157V292.342C446.946 293.033 446.847 293.675 446.647 294.267C446.448 294.853 446.155 295.365 445.769 295.805C445.388 296.238 444.919 296.575 444.362 296.815C443.806 297.056 443.167 297.176 442.446 297.176C441.726 297.176 441.084 297.056 440.521 296.815C439.965 296.575 439.493 296.238 439.106 295.805C438.726 295.365 438.436 294.853 438.236 294.267C438.037 293.675 437.938 293.033 437.938 292.342ZM440.469 292.157V292.342C440.469 292.74 440.504 293.112 440.574 293.458C440.645 293.804 440.756 294.108 440.908 294.372C441.066 294.63 441.271 294.832 441.523 294.979C441.775 295.125 442.083 295.198 442.446 295.198C442.798 295.198 443.1 295.125 443.352 294.979C443.604 294.832 443.806 294.63 443.958 294.372C444.11 294.108 444.222 293.804 444.292 293.458C444.368 293.112 444.406 292.74 444.406 292.342V292.157C444.406 291.771 444.368 291.407 444.292 291.067C444.222 290.722 444.107 290.417 443.949 290.153C443.797 289.884 443.595 289.673 443.343 289.521C443.091 289.368 442.786 289.292 442.429 289.292C442.071 289.292 441.767 289.368 441.515 289.521C441.269 289.673 441.066 289.884 440.908 290.153C440.756 290.417 440.645 290.722 440.574 291.067C440.504 291.407 440.469 291.771 440.469 292.157ZM450.98 289.521V297H448.449V287.49H450.822L450.98 289.521ZM450.611 291.911H449.926C449.926 291.208 450.017 290.575 450.198 290.013C450.38 289.444 450.635 288.961 450.963 288.562C451.291 288.158 451.681 287.851 452.132 287.64C452.589 287.423 453.099 287.314 453.661 287.314C454.106 287.314 454.514 287.379 454.883 287.508C455.252 287.637 455.568 287.842 455.832 288.123C456.102 288.404 456.307 288.776 456.447 289.239C456.594 289.702 456.667 290.268 456.667 290.936V297H454.118V290.927C454.118 290.505 454.06 290.177 453.942 289.942C453.825 289.708 453.652 289.544 453.424 289.45C453.201 289.351 452.926 289.301 452.598 289.301C452.258 289.301 451.962 289.368 451.71 289.503C451.464 289.638 451.259 289.825 451.095 290.065C450.937 290.3 450.816 290.575 450.734 290.892C450.652 291.208 450.611 291.548 450.611 291.911ZM468.216 294.372C468.216 294.19 468.163 294.026 468.058 293.88C467.952 293.733 467.756 293.599 467.469 293.476C467.188 293.347 466.78 293.229 466.247 293.124C465.767 293.019 465.318 292.887 464.902 292.729C464.492 292.564 464.135 292.368 463.83 292.14C463.531 291.911 463.297 291.642 463.127 291.331C462.957 291.015 462.872 290.654 462.872 290.25C462.872 289.852 462.957 289.477 463.127 289.125C463.303 288.773 463.552 288.463 463.874 288.193C464.202 287.918 464.601 287.704 465.069 287.552C465.544 287.394 466.077 287.314 466.669 287.314C467.495 287.314 468.204 287.446 468.796 287.71C469.394 287.974 469.851 288.337 470.167 288.8C470.489 289.257 470.65 289.778 470.65 290.364H468.119C468.119 290.118 468.066 289.898 467.961 289.705C467.861 289.506 467.703 289.351 467.486 289.239C467.275 289.122 467 289.063 466.66 289.063C466.379 289.063 466.136 289.113 465.931 289.213C465.726 289.307 465.567 289.436 465.456 289.6C465.351 289.758 465.298 289.934 465.298 290.127C465.298 290.273 465.327 290.405 465.386 290.522C465.45 290.634 465.553 290.736 465.693 290.83C465.834 290.924 466.016 291.012 466.238 291.094C466.467 291.17 466.748 291.24 467.082 291.305C467.768 291.445 468.38 291.63 468.919 291.858C469.458 292.081 469.886 292.386 470.202 292.772C470.519 293.153 470.677 293.654 470.677 294.275C470.677 294.697 470.583 295.084 470.396 295.436C470.208 295.787 469.938 296.095 469.587 296.358C469.235 296.616 468.813 296.818 468.321 296.965C467.835 297.105 467.287 297.176 466.678 297.176C465.793 297.176 465.043 297.018 464.428 296.701C463.818 296.385 463.355 295.983 463.039 295.497C462.729 295.005 462.573 294.501 462.573 293.985H464.973C464.984 294.331 465.072 294.609 465.236 294.82C465.406 295.031 465.62 295.184 465.878 295.277C466.142 295.371 466.426 295.418 466.73 295.418C467.059 295.418 467.331 295.374 467.548 295.286C467.765 295.192 467.929 295.069 468.04 294.917C468.157 294.759 468.216 294.577 468.216 294.372ZM475.036 294.539L477.014 287.49H478.622L478.104 290.259L476.126 297H474.781L475.036 294.539ZM474.034 287.49L475.449 294.53L475.581 297H473.999L471.591 287.49H474.034ZM480.433 294.416L481.812 287.49H484.265L481.856 297H480.283L480.433 294.416ZM478.842 287.49L480.811 294.486L481.083 297H479.729L477.752 290.268L477.251 287.49H478.842ZM490.672 294.855V290.619C490.672 290.314 490.622 290.054 490.522 289.837C490.423 289.614 490.268 289.441 490.057 289.318C489.852 289.195 489.585 289.134 489.257 289.134C488.976 289.134 488.732 289.184 488.527 289.283C488.322 289.377 488.164 289.515 488.053 289.696C487.941 289.872 487.886 290.08 487.886 290.32H485.354C485.354 289.916 485.448 289.532 485.636 289.169C485.823 288.806 486.096 288.486 486.453 288.211C486.811 287.93 487.235 287.71 487.728 287.552C488.226 287.394 488.782 287.314 489.397 287.314C490.136 287.314 490.792 287.438 491.366 287.684C491.94 287.93 492.392 288.299 492.72 288.791C493.054 289.283 493.221 289.898 493.221 290.637V294.706C493.221 295.228 493.253 295.655 493.317 295.989C493.382 296.317 493.476 296.604 493.599 296.851V297H491.041C490.918 296.742 490.824 296.42 490.76 296.033C490.701 295.641 490.672 295.248 490.672 294.855ZM491.006 291.208L491.023 292.641H489.608C489.274 292.641 488.984 292.679 488.738 292.755C488.492 292.831 488.29 292.939 488.132 293.08C487.974 293.215 487.856 293.373 487.78 293.555C487.71 293.736 487.675 293.936 487.675 294.152C487.675 294.369 487.725 294.565 487.824 294.741C487.924 294.911 488.067 295.046 488.255 295.146C488.442 295.239 488.662 295.286 488.914 295.286C489.295 295.286 489.626 295.21 489.907 295.058C490.188 294.905 490.405 294.718 490.558 294.495C490.716 294.272 490.798 294.062 490.804 293.862L491.472 294.935C491.378 295.175 491.249 295.424 491.085 295.682C490.927 295.939 490.725 296.183 490.479 296.411C490.232 296.634 489.937 296.818 489.591 296.965C489.245 297.105 488.835 297.176 488.36 297.176C487.757 297.176 487.209 297.056 486.717 296.815C486.23 296.569 485.844 296.232 485.557 295.805C485.275 295.371 485.135 294.879 485.135 294.328C485.135 293.83 485.229 293.388 485.416 293.001C485.604 292.614 485.879 292.289 486.242 292.025C486.611 291.756 487.071 291.554 487.622 291.419C488.173 291.278 488.812 291.208 489.538 291.208H491.006ZM499.83 287.49V289.283H494.293V287.49H499.83ZM495.664 285.144H498.195V294.135C498.195 294.41 498.23 294.621 498.301 294.768C498.377 294.914 498.488 295.017 498.635 295.075C498.781 295.128 498.966 295.154 499.188 295.154C499.347 295.154 499.487 295.148 499.61 295.137C499.739 295.119 499.848 295.102 499.936 295.084L499.944 296.947C499.728 297.018 499.493 297.073 499.241 297.114C498.989 297.155 498.711 297.176 498.406 297.176C497.85 297.176 497.363 297.085 496.947 296.903C496.537 296.716 496.221 296.417 495.998 296.007C495.775 295.597 495.664 295.058 495.664 294.39V285.144ZM505.2 295.198C505.511 295.198 505.786 295.14 506.026 295.022C506.267 294.899 506.454 294.729 506.589 294.513C506.729 294.29 506.803 294.029 506.809 293.73H509.19C509.185 294.398 509.006 294.993 508.654 295.515C508.303 296.03 507.831 296.438 507.239 296.736C506.647 297.029 505.985 297.176 505.253 297.176C504.515 297.176 503.87 297.053 503.319 296.807C502.774 296.561 502.32 296.221 501.957 295.787C501.594 295.348 501.321 294.838 501.14 294.258C500.958 293.672 500.867 293.045 500.867 292.377V292.122C500.867 291.448 500.958 290.821 501.14 290.241C501.321 289.655 501.594 289.146 501.957 288.712C502.32 288.272 502.774 287.93 503.319 287.684C503.864 287.438 504.503 287.314 505.235 287.314C506.015 287.314 506.697 287.464 507.283 287.763C507.875 288.062 508.338 288.489 508.672 289.046C509.012 289.597 509.185 290.25 509.19 291.006H506.809C506.803 290.689 506.735 290.402 506.606 290.145C506.483 289.887 506.302 289.682 506.062 289.529C505.827 289.371 505.537 289.292 505.191 289.292C504.822 289.292 504.521 289.371 504.286 289.529C504.052 289.682 503.87 289.893 503.741 290.162C503.612 290.426 503.521 290.728 503.469 291.067C503.422 291.401 503.398 291.753 503.398 292.122V292.377C503.398 292.746 503.422 293.101 503.469 293.44C503.516 293.78 503.604 294.082 503.732 294.346C503.867 294.609 504.052 294.817 504.286 294.97C504.521 295.122 504.825 295.198 505.2 295.198ZM513.128 283.5V297H510.597V283.5H513.128ZM512.768 291.911H512.073C512.079 291.249 512.167 290.64 512.337 290.083C512.507 289.521 512.75 289.034 513.066 288.624C513.383 288.208 513.761 287.886 514.2 287.657C514.646 287.429 515.138 287.314 515.677 287.314C516.146 287.314 516.57 287.382 516.951 287.517C517.338 287.646 517.669 287.856 517.944 288.149C518.226 288.437 518.442 288.814 518.595 289.283C518.747 289.752 518.823 290.32 518.823 290.988V297H516.274V290.971C516.274 290.549 516.213 290.218 516.09 289.978C515.973 289.731 515.8 289.559 515.571 289.459C515.349 289.354 515.073 289.301 514.745 289.301C514.382 289.301 514.071 289.368 513.813 289.503C513.562 289.638 513.359 289.825 513.207 290.065C513.055 290.3 512.943 290.575 512.873 290.892C512.803 291.208 512.768 291.548 512.768 291.911Z" fill="black"/>
<rect x="65" y="78" width="224.267" height="116" rx="8.8381" fill="#152145"/>
<path d="M143.24 140.212C142.497 140.212 141.826 140.088 141.225 139.841C140.624 139.593 140.129 139.263 139.74 138.851C139.363 138.439 139.045 137.95 138.785 137.384C138.526 136.818 138.337 136.241 138.22 135.652C138.114 135.062 138.061 134.45 138.061 133.813C138.061 133.059 138.155 132.323 138.343 131.604C138.532 130.885 138.821 130.207 139.21 129.571C139.598 128.923 140.14 128.404 140.836 128.016C141.531 127.615 142.332 127.415 143.24 127.415C144.336 127.415 145.255 127.674 145.997 128.192C146.74 128.699 147.258 129.318 147.553 130.048L145.644 130.914C145.314 130.408 144.966 130.037 144.601 129.801C144.247 129.565 143.794 129.447 143.24 129.447C142.698 129.447 142.22 129.583 141.808 129.854C141.407 130.113 141.095 130.467 140.871 130.914C140.659 131.35 140.5 131.816 140.394 132.311C140.3 132.794 140.252 133.295 140.252 133.813C140.252 134.968 140.506 135.982 141.012 136.854C141.531 137.726 142.273 138.162 143.24 138.162C144.182 138.162 144.972 137.631 145.608 136.571L147.57 137.313C146.71 139.246 145.267 140.212 143.24 140.212ZM153.361 140.212C152.088 140.212 151.081 139.794 150.338 138.957C149.596 138.12 149.225 136.966 149.225 135.493C149.225 134.02 149.596 132.865 150.338 132.028C151.081 131.18 152.088 130.755 153.361 130.755C154.634 130.755 155.641 131.18 156.384 132.028C157.138 132.865 157.515 134.02 157.515 135.493C157.515 136.966 157.144 138.12 156.401 138.957C155.659 139.794 154.646 140.212 153.361 140.212ZM153.361 138.232C154.009 138.232 154.516 137.991 154.881 137.508C155.258 137.025 155.447 136.353 155.447 135.493C155.447 134.632 155.258 133.955 154.881 133.46C154.516 132.965 154.009 132.717 153.361 132.717C152.737 132.717 152.236 132.971 151.859 133.477C151.482 133.972 151.293 134.644 151.293 135.493C151.293 136.341 151.476 137.013 151.841 137.508C152.218 137.991 152.725 138.232 153.361 138.232ZM163.849 140.212C162.977 140.212 162.294 139.9 161.799 139.275V142.598L159.73 143.553V130.967H161.799V131.657C162.294 131.056 162.983 130.755 163.867 130.755C165.01 130.755 165.911 131.174 166.571 132.01C167.243 132.835 167.579 133.996 167.579 135.493C167.579 136.954 167.237 138.109 166.553 138.957C165.87 139.794 164.969 140.212 163.849 140.212ZM163.549 138.232C164.173 138.232 164.656 137.997 164.998 137.525C165.34 137.054 165.511 136.376 165.511 135.493C165.511 134.656 165.34 133.984 164.998 133.477C164.656 132.971 164.173 132.717 163.549 132.717C162.783 132.717 162.199 133.012 161.799 133.601V137.349C162.211 137.938 162.794 138.232 163.549 138.232ZM170.821 143.429L172.218 139.859L168.824 130.967H170.91L173.013 136.518C173.119 136.777 173.208 137.048 173.278 137.331C173.337 137.072 173.42 136.801 173.526 136.518L175.647 130.967H177.733L172.96 143.429H170.821ZM191.535 140V134.626H186.126V140H184.005V127.627H186.126V132.629H191.535V127.627H193.638V140H191.535ZM196.641 140V127.627H204.701V129.624H198.762V132.611H202.421V134.609H198.762V138.003H205.09V140H196.641ZM214.587 140L211.918 135.616L209.231 140H206.774L210.68 133.601L207.039 127.627H209.496L211.918 131.604L214.339 127.627H216.796L213.137 133.601L217.044 140H214.587Z" fill="white"/>
<rect x="119.5" y="112.5" width="117" height="42" stroke="white" stroke-width="3"/>
<rect x="375.552" y="78.5524" width="223.162" height="114.895" rx="8.28572" fill="white" stroke="#888888" stroke-width="1.10476"/>
<path d="M453.24 140.212C452.497 140.212 451.826 140.088 451.225 139.841C450.624 139.593 450.129 139.263 449.74 138.851C449.363 138.439 449.045 137.95 448.785 137.384C448.526 136.818 448.337 136.241 448.22 135.652C448.114 135.062 448.061 134.45 448.061 133.813C448.061 133.059 448.155 132.323 448.343 131.604C448.532 130.885 448.821 130.207 449.21 129.571C449.598 128.923 450.14 128.404 450.836 128.016C451.531 127.615 452.332 127.415 453.24 127.415C454.336 127.415 455.255 127.674 455.997 128.192C456.74 128.699 457.258 129.318 457.553 130.048L455.644 130.914C455.314 130.408 454.966 130.037 454.601 129.801C454.247 129.565 453.794 129.447 453.24 129.447C452.698 129.447 452.22 129.583 451.808 129.854C451.407 130.113 451.095 130.467 450.871 130.914C450.659 131.35 450.5 131.816 450.394 132.311C450.3 132.794 450.252 133.295 450.252 133.813C450.252 134.968 450.506 135.982 451.012 136.854C451.531 137.726 452.273 138.162 453.24 138.162C454.182 138.162 454.972 137.631 455.608 136.571L457.57 137.313C456.71 139.246 455.267 140.212 453.24 140.212ZM463.361 140.212C462.088 140.212 461.081 139.794 460.338 138.957C459.596 138.12 459.225 136.966 459.225 135.493C459.225 134.02 459.596 132.865 460.338 132.028C461.081 131.18 462.088 130.755 463.361 130.755C464.634 130.755 465.641 131.18 466.384 132.028C467.138 132.865 467.515 134.02 467.515 135.493C467.515 136.966 467.144 138.12 466.401 138.957C465.659 139.794 464.646 140.212 463.361 140.212ZM463.361 138.232C464.009 138.232 464.516 137.991 464.881 137.508C465.258 137.025 465.447 136.353 465.447 135.493C465.447 134.632 465.258 133.955 464.881 133.46C464.516 132.965 464.009 132.717 463.361 132.717C462.737 132.717 462.236 132.971 461.859 133.477C461.482 133.972 461.293 134.644 461.293 135.493C461.293 136.341 461.476 137.013 461.841 137.508C462.218 137.991 462.725 138.232 463.361 138.232ZM473.849 140.212C472.977 140.212 472.294 139.9 471.799 139.275V142.598L469.73 143.553V130.967H471.799V131.657C472.294 131.056 472.983 130.755 473.867 130.755C475.01 130.755 475.911 131.174 476.571 132.01C477.243 132.835 477.579 133.996 477.579 135.493C477.579 136.954 477.237 138.109 476.553 138.957C475.87 139.794 474.969 140.212 473.849 140.212ZM473.549 138.232C474.173 138.232 474.656 137.997 474.998 137.525C475.34 137.054 475.511 136.376 475.511 135.493C475.511 134.656 475.34 133.984 474.998 133.477C474.656 132.971 474.173 132.717 473.549 132.717C472.783 132.717 472.199 133.012 471.799 133.601V137.349C472.211 137.938 472.794 138.232 473.549 138.232ZM480.821 143.429L482.218 139.859L478.824 130.967H480.91L483.013 136.518C483.119 136.777 483.208 137.048 483.278 137.331C483.337 137.072 483.42 136.801 483.526 136.518L485.647 130.967H487.733L482.96 143.429H480.821ZM501.535 140V134.626H496.126V140H494.005V127.627H496.126V132.629H501.535V127.627H503.638V140H501.535ZM506.641 140V127.627H514.701V129.624H508.762V132.611H512.421V134.609H508.762V138.003H515.09V140H506.641ZM524.587 140L521.918 135.616L519.231 140H516.774L520.68 133.601L517.039 127.627H519.496L521.918 131.604L524.339 127.627H526.796L523.137 133.601L527.044 140H524.587Z" fill="black"/>
<rect x="429.5" y="112.5" width="117" height="42" stroke="black" stroke-width="3"/>
<rect x="65" y="349" width="203" height="105" rx="8" fill="#152145"/>
<path d="M87.624 385L86.664 382.264H82.216L81.272 385H79.816L83.784 373.8H85.08L89.048 385H87.624ZM86.232 381.032L84.792 376.888C84.6107 376.365 84.4933 375.987 84.44 375.752C84.3227 376.168 84.2053 376.547 84.088 376.888L82.632 381.032H86.232ZM95.193 385V373.8H101.929V375.112H96.585V378.552H100.121V379.864H96.585V385H95.193ZM109.108 385L108.148 382.264H103.7L102.756 385H101.3L105.268 373.8H106.564L110.532 385H109.108ZM107.716 381.032L106.276 376.888C106.095 376.365 105.978 375.987 105.924 375.752C105.807 376.168 105.69 376.547 105.572 376.888L104.116 381.032H107.716ZM112.631 385V373.8H114.023V385H112.631ZM117.193 385V373.8H118.585V383.656H124.089V385H117.193Z" fill="black"/>
<path d="M87.624 407L86.664 404.264H82.216L81.272 407H79.816L83.784 395.8H85.08L89.048 407H87.624ZM86.232 403.032L84.792 398.888C84.6107 398.365 84.4933 397.987 84.44 397.752C84.3227 398.168 84.2053 398.547 84.088 398.888L82.632 403.032H86.232ZM94.5524 407V395.8H98.8404C99.491 395.8 100.056 395.896 100.536 396.088C101.027 396.28 101.406 396.541 101.672 396.872C101.939 397.192 102.136 397.544 102.264 397.928C102.392 398.312 102.456 398.723 102.456 399.16C102.456 400.045 102.152 400.824 101.544 401.496C100.947 402.168 100.046 402.504 98.8404 402.504H95.9444V407H94.5524ZM98.9364 401.208C99.6617 401.208 100.195 401.005 100.536 400.6C100.888 400.195 101.064 399.715 101.064 399.16C101.064 398.616 100.899 398.136 100.568 397.72C100.238 397.304 99.6937 397.096 98.9364 397.096H95.9444V401.208H98.9364ZM110.046 407L109.086 404.264H104.638L103.694 407H102.238L106.206 395.8H107.502L111.47 407H110.046ZM108.654 403.032L107.214 398.888C107.033 398.365 106.915 397.987 106.862 397.752C106.745 398.168 106.627 398.547 106.51 398.888L105.054 403.032H108.654ZM116.738 407.192C115.789 407.192 114.962 406.963 114.258 406.504C113.565 406.035 113.09 405.432 112.834 404.696L114.146 404.216C114.381 404.728 114.728 405.133 115.186 405.432C115.645 405.731 116.173 405.88 116.77 405.88C117.453 405.88 117.992 405.72 118.386 405.4C118.781 405.069 118.978 404.6 118.978 403.992C118.978 403.405 118.754 402.936 118.306 402.584C117.869 402.232 117.25 401.912 116.45 401.624C116.066 401.485 115.746 401.363 115.49 401.256C115.245 401.149 114.957 401 114.626 400.808C114.306 400.605 114.05 400.403 113.858 400.2C113.666 399.987 113.501 399.725 113.362 399.416C113.234 399.096 113.17 398.749 113.17 398.376C113.17 397.597 113.48 396.941 114.098 396.408C114.717 395.875 115.554 395.608 116.61 395.608C117.474 395.608 118.194 395.795 118.77 396.168C119.346 396.531 119.72 397.011 119.89 397.608L118.61 398.04C118.461 397.709 118.205 397.437 117.842 397.224C117.48 397.011 117.037 396.904 116.514 396.904C115.928 396.904 115.464 397.037 115.122 397.304C114.781 397.56 114.61 397.917 114.61 398.376C114.61 398.621 114.669 398.845 114.786 399.048C114.914 399.251 115.106 399.432 115.362 399.592C115.629 399.752 115.874 399.88 116.098 399.976C116.322 400.072 116.632 400.195 117.026 400.344C117.517 400.525 117.922 400.701 118.242 400.872C118.562 401.032 118.909 401.251 119.282 401.528C119.656 401.805 119.938 402.152 120.13 402.568C120.322 402.973 120.418 403.437 120.418 403.96C120.418 404.963 120.077 405.752 119.394 406.328C118.712 406.904 117.826 407.192 116.738 407.192ZM126.316 407.192C125.367 407.192 124.54 406.963 123.836 406.504C123.143 406.035 122.668 405.432 122.412 404.696L123.724 404.216C123.959 404.728 124.306 405.133 124.764 405.432C125.223 405.731 125.751 405.88 126.348 405.88C127.031 405.88 127.57 405.72 127.964 405.4C128.359 405.069 128.556 404.6 128.556 403.992C128.556 403.405 128.332 402.936 127.884 402.584C127.447 402.232 126.828 401.912 126.028 401.624C125.644 401.485 125.324 401.363 125.068 401.256C124.823 401.149 124.535 401 124.204 400.808C123.884 400.605 123.628 400.403 123.436 400.2C123.244 399.987 123.079 399.725 122.94 399.416C122.812 399.096 122.748 398.749 122.748 398.376C122.748 397.597 123.058 396.941 123.676 396.408C124.295 395.875 125.132 395.608 126.188 395.608C127.052 395.608 127.772 395.795 128.348 396.168C128.924 396.531 129.298 397.011 129.468 397.608L128.188 398.04C128.039 397.709 127.783 397.437 127.42 397.224C127.058 397.011 126.615 396.904 126.092 396.904C125.506 396.904 125.042 397.037 124.7 397.304C124.359 397.56 124.188 397.917 124.188 398.376C124.188 398.621 124.247 398.845 124.364 399.048C124.492 399.251 124.684 399.432 124.94 399.592C125.207 399.752 125.452 399.88 125.676 399.976C125.9 400.072 126.21 400.195 126.604 400.344C127.095 400.525 127.5 400.701 127.82 400.872C128.14 401.032 128.487 401.251 128.86 401.528C129.234 401.805 129.516 402.152 129.708 402.568C129.9 402.973 129.996 403.437 129.996 403.96C129.996 404.963 129.655 405.752 128.972 406.328C128.29 406.904 127.404 407.192 126.316 407.192Z" fill="white"/>
<rect x="375.5" y="349.5" width="202" height="104" rx="7.5" fill="white" stroke="#888888"/>
<path d="M397.624 385L396.664 382.264H392.216L391.272 385H389.816L393.784 373.8H395.08L399.048 385H397.624ZM396.232 381.032L394.792 376.888C394.611 376.365 394.493 375.987 394.44 375.752C394.323 376.168 394.205 376.547 394.088 376.888L392.632 381.032H396.232Z" fill="#152145"/>
<path d="M405.193 385V373.8H409.481C410.132 373.8 410.697 373.896 411.177 374.088C411.668 374.28 412.046 374.541 412.313 374.872C412.58 375.192 412.777 375.544 412.905 375.928C413.033 376.312 413.097 376.723 413.097 377.16C413.097 378.045 412.793 378.824 412.185 379.496C411.588 380.168 410.686 380.504 409.481 380.504H406.585V385H405.193ZM409.577 379.208C410.302 379.208 410.836 379.005 411.177 378.6C411.529 378.195 411.705 377.715 411.705 377.16C411.705 376.616 411.54 376.136 411.209 375.72C410.878 375.304 410.334 375.096 409.577 375.096H406.585V379.208H409.577ZM420.687 385L419.727 382.264H415.279L414.335 385H412.879L416.847 373.8H418.143L422.111 385H420.687ZM419.295 381.032L417.855 376.888C417.673 376.365 417.556 375.987 417.503 375.752C417.385 376.168 417.268 376.547 417.151 376.888L415.695 381.032H419.295ZM427.379 385.192C426.43 385.192 425.603 384.963 424.899 384.504C424.206 384.035 423.731 383.432 423.475 382.696L424.787 382.216C425.022 382.728 425.368 383.133 425.827 383.432C426.286 383.731 426.814 383.88 427.411 383.88C428.094 383.88 428.632 383.72 429.027 383.4C429.422 383.069 429.619 382.6 429.619 381.992C429.619 381.405 429.395 380.936 428.947 380.584C428.51 380.232 427.891 379.912 427.091 379.624C426.707 379.485 426.387 379.363 426.131 379.256C425.886 379.149 425.598 379 425.267 378.808C424.947 378.605 424.691 378.403 424.499 378.2C424.307 377.987 424.142 377.725 424.003 377.416C423.875 377.096 423.811 376.749 423.811 376.376C423.811 375.597 424.12 374.941 424.739 374.408C425.358 373.875 426.195 373.608 427.251 373.608C428.115 373.608 428.835 373.795 429.411 374.168C429.987 374.531 430.36 375.011 430.531 375.608L429.251 376.04C429.102 375.709 428.846 375.437 428.483 375.224C428.12 375.011 427.678 374.904 427.155 374.904C426.568 374.904 426.104 375.037 425.763 375.304C425.422 375.56 425.251 375.917 425.251 376.376C425.251 376.621 425.31 376.845 425.427 377.048C425.555 377.251 425.747 377.432 426.003 377.592C426.27 377.752 426.515 377.88 426.739 377.976C426.963 378.072 427.272 378.195 427.667 378.344C428.158 378.525 428.563 378.701 428.883 378.872C429.203 379.032 429.55 379.251 429.923 379.528C430.296 379.805 430.579 380.152 430.771 380.568C430.963 380.973 431.059 381.437 431.059 381.96C431.059 382.963 430.718 383.752 430.035 384.328C429.352 384.904 428.467 385.192 427.379 385.192ZM436.957 385.192C436.008 385.192 435.181 384.963 434.477 384.504C433.784 384.035 433.309 383.432 433.053 382.696L434.365 382.216C434.6 382.728 434.946 383.133 435.405 383.432C435.864 383.731 436.392 383.88 436.989 383.88C437.672 383.88 438.21 383.72 438.605 383.4C439 383.069 439.197 382.6 439.197 381.992C439.197 381.405 438.973 380.936 438.525 380.584C438.088 380.232 437.469 379.912 436.669 379.624C436.285 379.485 435.965 379.363 435.709 379.256C435.464 379.149 435.176 379 434.845 378.808C434.525 378.605 434.269 378.403 434.077 378.2C433.885 377.987 433.72 377.725 433.581 377.416C433.453 377.096 433.389 376.749 433.389 376.376C433.389 375.597 433.698 374.941 434.317 374.408C434.936 373.875 435.773 373.608 436.829 373.608C437.693 373.608 438.413 373.795 438.989 374.168C439.565 374.531 439.938 375.011 440.109 375.608L438.829 376.04C438.68 375.709 438.424 375.437 438.061 375.224C437.698 375.011 437.256 374.904 436.733 374.904C436.146 374.904 435.682 375.037 435.341 375.304C435 375.56 434.829 375.917 434.829 376.376C434.829 376.621 434.888 376.845 435.005 377.048C435.133 377.251 435.325 377.432 435.581 377.592C435.848 377.752 436.093 377.88 436.317 377.976C436.541 378.072 436.85 378.195 437.245 378.344C437.736 378.525 438.141 378.701 438.461 378.872C438.781 379.032 439.128 379.251 439.501 379.528C439.874 379.805 440.157 380.152 440.349 380.568C440.541 380.973 440.637 381.437 440.637 381.96C440.637 382.963 440.296 383.752 439.613 384.328C438.93 384.904 438.045 385.192 436.957 385.192Z" fill="black"/>
<path d="M397.624 407L396.664 404.264H392.216L391.272 407H389.816L393.784 395.8H395.08L399.048 407H397.624ZM396.232 403.032L394.792 398.888C394.611 398.365 394.493 397.987 394.44 397.752C394.323 398.168 394.205 398.547 394.088 398.888L392.632 403.032H396.232ZM404.552 407V395.8H408.84C409.491 395.8 410.056 395.896 410.536 396.088C411.027 396.28 411.406 396.541 411.672 396.872C411.939 397.192 412.136 397.544 412.264 397.928C412.392 398.312 412.456 398.723 412.456 399.16C412.456 400.045 412.152 400.824 411.544 401.496C410.947 402.168 410.046 402.504 408.84 402.504H405.944V407H404.552ZM408.936 401.208C409.662 401.208 410.195 401.005 410.536 400.6C410.888 400.195 411.064 399.715 411.064 399.16C411.064 398.616 410.899 398.136 410.568 397.72C410.238 397.304 409.694 397.096 408.936 397.096H405.944V401.208H408.936ZM420.046 407L419.086 404.264H414.638L413.694 407H412.238L416.206 395.8H417.502L421.47 407H420.046ZM418.654 403.032L417.214 398.888C417.033 398.365 416.915 397.987 416.862 397.752C416.745 398.168 416.627 398.547 416.51 398.888L415.054 403.032H418.654ZM426.738 407.192C425.789 407.192 424.962 406.963 424.258 406.504C423.565 406.035 423.09 405.432 422.834 404.696L424.146 404.216C424.381 404.728 424.728 405.133 425.186 405.432C425.645 405.731 426.173 405.88 426.77 405.88C427.453 405.88 427.992 405.72 428.386 405.4C428.781 405.069 428.978 404.6 428.978 403.992C428.978 403.405 428.754 402.936 428.306 402.584C427.869 402.232 427.25 401.912 426.45 401.624C426.066 401.485 425.746 401.363 425.49 401.256C425.245 401.149 424.957 401 424.626 400.808C424.306 400.605 424.05 400.403 423.858 400.2C423.666 399.987 423.501 399.725 423.362 399.416C423.234 399.096 423.17 398.749 423.17 398.376C423.17 397.597 423.48 396.941 424.098 396.408C424.717 395.875 425.554 395.608 426.61 395.608C427.474 395.608 428.194 395.795 428.77 396.168C429.346 396.531 429.72 397.011 429.89 397.608L428.61 398.04C428.461 397.709 428.205 397.437 427.842 397.224C427.48 397.011 427.037 396.904 426.514 396.904C425.928 396.904 425.464 397.037 425.122 397.304C424.781 397.56 424.61 397.917 424.61 398.376C424.61 398.621 424.669 398.845 424.786 399.048C424.914 399.251 425.106 399.432 425.362 399.592C425.629 399.752 425.874 399.88 426.098 399.976C426.322 400.072 426.632 400.195 427.026 400.344C427.517 400.525 427.922 400.701 428.242 400.872C428.562 401.032 428.909 401.251 429.282 401.528C429.656 401.805 429.938 402.152 430.13 402.568C430.322 402.973 430.418 403.437 430.418 403.96C430.418 404.963 430.077 405.752 429.394 406.328C428.712 406.904 427.826 407.192 426.738 407.192ZM436.316 407.192C435.367 407.192 434.54 406.963 433.836 406.504C433.143 406.035 432.668 405.432 432.412 404.696L433.724 404.216C433.959 404.728 434.306 405.133 434.764 405.432C435.223 405.731 435.751 405.88 436.348 405.88C437.031 405.88 437.57 405.72 437.964 405.4C438.359 405.069 438.556 404.6 438.556 403.992C438.556 403.405 438.332 402.936 437.884 402.584C437.447 402.232 436.828 401.912 436.028 401.624C435.644 401.485 435.324 401.363 435.068 401.256C434.823 401.149 434.535 401 434.204 400.808C433.884 400.605 433.628 400.403 433.436 400.2C433.244 399.987 433.079 399.725 432.94 399.416C432.812 399.096 432.748 398.749 432.748 398.376C432.748 397.597 433.058 396.941 433.676 396.408C434.295 395.875 435.132 395.608 436.188 395.608C437.052 395.608 437.772 395.795 438.348 396.168C438.924 396.531 439.298 397.011 439.468 397.608L438.188 398.04C438.039 397.709 437.783 397.437 437.42 397.224C437.058 397.011 436.615 396.904 436.092 396.904C435.506 396.904 435.042 397.037 434.7 397.304C434.359 397.56 434.188 397.917 434.188 398.376C434.188 398.621 434.247 398.845 434.364 399.048C434.492 399.251 434.684 399.432 434.94 399.592C435.207 399.752 435.452 399.88 435.676 399.976C435.9 400.072 436.21 400.195 436.604 400.344C437.095 400.525 437.5 400.701 437.82 400.872C438.14 401.032 438.487 401.251 438.86 401.528C439.234 401.805 439.516 402.152 439.708 402.568C439.9 402.973 439.996 403.437 439.996 403.96C439.996 404.963 439.655 405.752 438.972 406.328C438.29 406.904 437.404 407.192 436.316 407.192Z" fill="white"/>
<circle opacity="0.3" cx="102" cy="402" r="12" fill="#D853C3"/>
<circle opacity="0.3" cx="416" cy="379" r="12" fill="#D853C3"/>
</svg>
