<?xml version="1.0" encoding="utf-8"?>
<!-- Generator: Adobe Illustrator 24.0.0, SVG Export Plug-In . SVG Version: 6.00 Build 0)  -->
<svg version="1.1" id="Layer_1" xmlns="http://www.w3.org/2000/svg" xmlns:xlink="http://www.w3.org/1999/xlink" x="0px" y="0px"
	 viewBox="0 0 1889.59 892.62" style="enable-background:new 0 0 1889.59 892.62;" xml:space="preserve">
<style type="text/css">
	.st0{fill:none;}
	.st1{fill:#FFFFFF;}
	.st2{font-family:'Roboto-Regular';}
	.st3{font-size:40px;}
	.st4{letter-spacing:2;}
</style>
<g>
	<path d="M532.34,185.59c-110.04,0-199.57,89.53-199.57,199.57s89.53,199.57,199.57,199.57c110.04,0,199.57-89.53,199.57-199.57
		S642.39,185.59,532.34,185.59z M532.34,579.46c-107.14,0-194.3-87.16-194.3-194.3s87.16-194.3,194.3-194.3
		c107.14,0,194.3,87.17,194.3,194.3S639.48,579.46,532.34,579.46z"/>
	<path d="M439.56,239.3c0.66,1.16,1.54,2.17,2.58,2.97c1.04,0.8,2.18,1.35,3.42,1.69c1.24,0.34,2.51,0.45,3.8,0.3
		c1.3-0.15,2.57-0.57,3.73-1.23c1.16-0.66,2.17-1.54,2.99-2.59c0.37-0.49,0.69-1.01,0.97-1.54l-2.09-3.68
		c-0.05,0.34-0.12,0.65-0.21,0.98c-0.48,1.75-1.62,3.23-3.2,4.12c-1.58,0.9-3.43,1.12-5.18,0.63c-1.75-0.48-3.23-1.61-4.13-3.2
		c-0.9-1.58-1.12-3.43-0.63-5.18c0.47-1.77,1.61-3.23,3.2-4.13c1.4-0.79,2.96-1.07,4.5-0.8l-1.81-3.19
		c-0.14,0.02-0.32,0.03-0.46,0.05c-1.33,0.14-2.59,0.58-3.76,1.24c-1.16,0.66-2.19,1.52-2.97,2.58c-0.81,1.01-1.36,2.16-1.7,3.4
		s-0.44,2.53-0.3,3.8C438.48,236.86,438.9,238.14,439.56,239.3z"/>
	<path d="M466.97,231.56l6.57-2.6l3.14,3.33l3.16-1.25l-15.67-16.13l-0.38,22.49l3.18-1.26L466.97,231.56z M467,222.05l4.47,4.73
		l-4.48,1.78L467,222.05z"/>
	<polygon points="489.87,228.23 497.93,226.16 497.23,223.44 489.19,225.51 484.95,209 481.94,209.77 486.89,229 	"/>
	<rect x="503.29" y="204.97" transform="matrix(0.9847 -0.1742 0.1742 0.9847 -29.7174 91.2346)" width="3.11" height="19.86"/>
	<polygon points="520.18,223.04 519.6,214.1 526.83,213.62 526.65,210.82 519.41,211.29 519.07,206.01 527.88,205.43 527.7,202.65 
		518.86,203.23 515.79,203.43 517.09,223.25 	"/>
	<path d="M537.27,219.55c0.85,0.97,1.84,1.76,3.01,2.35s2.46,0.95,3.79,1.04c1.33,0.09,2.66-0.09,3.92-0.51
		c1.21-0.43,2.3-1.08,3.3-1.92c0.97-0.85,1.73-1.84,2.32-3.01c0.59-1.17,0.95-2.46,1.04-3.79c0.09-1.34-0.09-2.66-0.51-3.92
		c-0.43-1.21-1.05-2.3-1.9-3.29c-0.87-0.97-1.87-1.74-3.01-2.32c-1.19-0.59-2.48-0.95-3.82-1.04c-1.33-0.09-2.66,0.09-3.9,0.51
		c-1.24,0.43-2.33,1.05-3.29,1.9c-0.97,0.87-1.76,1.86-2.35,3c-0.59,1.19-0.95,2.48-1.04,3.82c-0.09,1.34,0.09,2.66,0.51,3.9
		C535.77,217.49,536.42,218.58,537.27,219.55z M537.93,212.57c0.12-1.81,0.96-3.48,2.33-4.67c1.37-1.19,3.13-1.8,4.94-1.67
		c1.82,0.12,3.48,0.96,4.67,2.33c1.19,1.37,1.8,3.13,1.68,4.94s-0.96,3.48-2.33,4.67c-1.37,1.19-3.13,1.8-4.94,1.67
		c-1.82-0.12-3.48-0.96-4.67-2.33S537.81,214.38,537.93,212.57z"/>
	<path d="M566.55,219.15l2.22,0.49l3.43,7.64l3.42,0.76l-3.68-8.16c1.13-0.13,1.99-0.57,2.58-0.99c1.27-0.9,2.16-2.34,2.56-4.12
		c0.4-1.8,0.2-3.49-0.57-4.84c-0.59-1.06-1.85-2.44-4.41-3l-3.19-0.71l-2.56-0.57l-4.29,19.39l3.03,0.67L566.55,219.15z
		 M568.79,209.06l2.72,0.6c1.25,0.28,2.12,0.83,2.57,1.64c0.56,0.95,0.45,2.07,0.27,2.86c-0.17,0.76-0.54,1.83-1.45,2.45
		c-0.75,0.55-1.77,0.7-3.03,0.43l-2.72-0.6L568.79,209.06z"/>
	<polygon points="589.84,219.14 596.83,236.3 604.02,216.82 601.09,215.73 596.67,227.68 589.71,210.53 582.51,230.04 
		585.42,231.11 	"/>
	<rect x="601.19" y="229.64" transform="matrix(0.449 -0.8935 0.8935 0.449 130.1653 673.4526)" width="19.86" height="3.1"/>
	<path d="M629.31,253.53l4.01-22.12l-18.52,12.77l2.88,1.86l3.72-2.66l5.94,3.83l-0.89,4.49L629.31,253.53z M623.85,241.64l5.3-3.78
		l-1.25,6.39L623.85,241.64z"/>
	<path d="M531.19,231.84c-85.55,0-155.15,69.6-155.15,155.15s69.6,155.15,155.15,155.15c85.55,0,155.15-69.6,155.15-155.15
		S616.74,231.84,531.19,231.84z M381.09,391.16c2.46-0.55,9.94-1.84,19.13,0.24c-4.77,6.13-6.8,12.73-5.08,18.58
		c0.18,0.62,0.61,1.13,1.19,1.42c0.32,0.16,0.68,0.24,1.03,0.24c0.28,0,0.56-0.05,0.82-0.15l23.25-8.83
		c1.24,1.13,2.47,2.34,3.64,3.63c8.31,9.12,12.94,21.18,17.42,32.84c4.8,12.5,9.35,24.3,18.04,30.53c-0.11,1.24-0.25,2.46-0.38,3.68
		c-1.07,0.21-1.88,1.14-1.88,2.27c0,0.96,0.58,1.78,1.41,2.13c-1.45,12.39-3.57,24.36-6.38,35.87c-0.17,0.69-0.01,1.42,0.43,1.98
		c0,0,0,0,0,0C411.31,489.95,382.53,443.91,381.09,391.16z M497.61,357.13c-0.04,0.03-0.07,0.07-0.11,0.1
		c-11.44,1.4-21.17,5.65-27.33,11.35c-0.05-1.05-0.12-2.11-0.22-3.2c3.51-6.73,9.36-13.51,16.43-18.98
		c10.3-7.96,21.58-11.99,29.45-10.51c2.37,0.45,4.26,1.38,5.64,2.78L497.61,357.13z M499.55,361.66
		c11.93-1.17,23.29,1.43,29.65,6.77c2.2,1.85,3.69,3.96,4.39,6.2l-35.92,3.52c-0.29,0.03-0.55,0.11-0.79,0.23
		c-9.1-3.91-18.09-5.15-24.81-3.22c-0.68,0.2-1.33,0.43-1.96,0.69c0-0.04,0-0.08,0.01-0.12
		C474.86,368.76,486.27,362.96,499.55,361.66z M476.36,347.72l-0.9,2.34c-2.39,2.52-4.54,5.16-6.38,7.85
		c-0.05-0.37-0.11-0.75-0.17-1.12c1.25-4.29,2.76-8.79,4.47-13.24c5.89-15.35,12.09-25.25,15.91-29.48L476.36,347.72z
		 M473.35,379.62c7.71-2.21,19.19,0.62,29.98,7.38c14.52,9.1,23.95,23.17,22.23,32.32l-57.38-35.97c0.26-0.44,0.5-0.91,0.71-1.45
		C470.07,380.9,471.56,380.13,473.35,379.62z M558,420.71h-28.01c0.91-4.06,0.2-8.71-1.86-13.49h35.72
		C561.8,411.24,559.8,415.76,558,420.71z M574.15,398.68l0.05,2.25l2.6,112.54l-4.23,2.92c-3.99-6.21-16.53-27.92-16.94-56.44
		C555.22,430.52,567.69,408.22,574.15,398.68z M556.49,425.17c-2.71,8.52-4.7,18.11-5.2,28.41h-3.27c-1.23,0-2.23,1-2.23,2.23
		s1,2.23,2.23,2.23h3.16c0,0.65-0.01,1.31,0,1.97c0.15,10.49,1.83,20.02,4.13,28.28c-8.96-2.17-18.47-4.71-27.7-7.18
		c-19.46-5.2-37.86-10.11-50.78-11.62c-0.03-5.77-0.15-11.69-0.36-17.73c0.93-0.3,1.61-1.16,1.61-2.2c0-1.09-0.76-2-1.77-2.25
		c-0.55-12.78-1.51-26.17-2.89-40.1h24.11l21.52,13.49h-17.12c-1.23,0-2.23,1-2.23,2.23s1,2.23,2.23,2.23H556.49z M465.16,499.61
		h6.23c-0.26,4.17-0.56,8.26-0.94,12.24h-11.96c2.54-10.92,4.47-22.24,5.82-33.92h3.35c1.28,0,2.32-1.04,2.32-2.32
		s-1.04-2.32-2.32-2.32h-2.84c0.78-7.67,1.31-15.49,1.58-23.46c0.13,1.15,1.1,2.05,2.29,2.05h3.14c0.54,15.26,0.48,29.64-0.2,43.1
		h-6.48c-1.28,0-2.32,1.04-2.32,2.32S463.88,499.61,465.16,499.61z M460.93,407.22c0.24,3.32,0.43,6.61,0.59,9.89h-0.72
		c-1.28,0-2.32,1.04-2.32,2.32s1.04,2.32,2.32,2.32h0.93c0.54,14.4,0.29,28.38-0.71,41.9c-6.06-5.86-9.89-15.82-13.91-26.29
		c-3.81-9.92-8.07-20.98-14.88-30.13H460.93z M428.03,402.22c-0.48-0.51-0.96-1.03-1.46-1.52l32.62-12.39
		c0.53,4.68,0.98,9.31,1.36,13.91H428.03z M471.66,391l17.89,11.22h-16.64C472.52,398.52,472.1,394.78,471.66,391z M471.66,447.25
		h-2.97c-1.12,0-2.05,0.79-2.27,1.84c0.29-8.94,0.28-18.06-0.07-27.35h1.14c1.28,0,2.32-1.04,2.32-2.32s-1.04-2.32-2.32-2.32h-1.34
		c-0.47-9.94-1.29-20.06-2.48-30.37c0-0.04-0.02-0.08-0.03-0.12l0.63-0.24l2.34,1.47C469.18,408.84,470.86,428.67,471.66,447.25z
		 M457.4,343.98l-8.09-32.88c3.08,4.49,7.78,14.08,12.03,31.36c1.2,4.88,2.1,9.38,2.76,13.46c-1.76-3.68-3.99-7.42-6.66-11.07
		C457.48,344.56,457.48,344.27,457.4,343.98z M463.91,370.45c-4.52-8.16-14.45-15.77-27.22-20.08c-0.04-0.05-0.07-0.1-0.11-0.15
		l-20.57-23.09c1.47-1,3.31-1.51,5.5-1.52c0.03,0,0.06,0,0.09,0c7.9,0,18.74,6.43,27.64,16.42
		C457.44,351.24,462.71,361.97,463.91,370.45z M460.86,374.87c-0.73-0.5-1.5-0.97-2.34-1.39c-6.19-3.07-14.63-3.69-23.73-1.92
		c-0.2-0.15-0.43-0.28-0.68-0.36l-35.79-11.15c1-2.03,2.72-3.75,5.15-5.12c7.08-4.02,18.7-4.26,30.33-0.64
		C447.03,358.42,457.56,366.8,460.86,374.87z M444.53,375.23c4.58,0,8.7,0.8,11.94,2.4c2.36,1.17,4.1,2.71,5.19,4.56
		c-0.01,0.02-0.03,0.04-0.04,0.05c-0.07,0.08-0.13,0.18-0.19,0.27l-62.24,23.64c-0.34-9.36,11.16-21.31,26.91-27.29
		C432.44,376.45,438.84,375.23,444.53,375.23z M531.19,537.15c-27.73,0-53.72-7.56-76.03-20.72c0.13,0.02,0.27,0.05,0.41,0.05h16.99
		c1.19,0,2.18-0.9,2.3-2.08c1.25-12.4,1.9-25.74,1.97-39.92c12.53,1.54,30.51,6.34,49.51,11.42c10.06,2.69,20.46,5.47,30.15,7.77
		c0.16,0.04,0.33,0.05,0.49,0.06c5.42,16.31,12.74,26.44,13.22,27.09c0.44,0.59,1.11,0.91,1.8,0.91c0.44,0,0.88-0.13,1.26-0.39
		l5.87-4.05l6.06,3.78c0.37,0.23,0.78,0.34,1.18,0.34c0.72,0,1.43-0.35,1.86-0.99c0.38-0.57,5.3-8.08,9.63-20.33
		c6.68,1.16,11.29,3.49,13.69,6.94c1.56,2.24,1.79,4.43,1.78,5.63C589.69,528.13,561.48,537.15,531.19,537.15z M578.61,398.58
		c6.9,9.24,20.38,30.94,21.33,60.34c0.92,28.5-10.61,50.78-14.31,57.16l-4.36-2.72l-2.59-111.87L578.61,398.58z M617.92,509.5
		c-0.34-1.58-1-3.39-2.23-5.2c-3.07-4.5-8.55-7.52-16.28-8.98c3.06-10,5.44-22.48,4.99-36.54c-0.09-2.92-0.32-5.79-0.64-8.6h12.03
		c1.23,0,2.23-1,2.23-2.23s-1-2.23-2.23-2.23h-12.65c-0.43-2.69-0.95-5.32-1.55-7.88c0.17,0.04,0.34,0.06,0.51,0.06h45.61
		c1.23,0,2.23-1,2.23-2.23s-1-2.23-2.23-2.23H602.1c-0.57,0-1.09,0.22-1.48,0.58c-2.82-10.34-6.85-19.43-10.99-26.8h90.35
		C674.28,449.34,651.06,485.97,617.92,509.5z M680.57,402.22h-93.93c-3.22-5.07-6.32-9.03-8.79-11.63
		c-0.04-0.04-0.09-0.07-0.14-0.11c-0.09-0.08-0.17-0.15-0.27-0.21c-0.09-0.06-0.19-0.11-0.29-0.16c-0.06-0.03-0.1-0.07-0.16-0.09
		c-0.05-0.02-0.1-0.01-0.15-0.03c-0.11-0.03-0.22-0.05-0.33-0.06c-0.11-0.01-0.22-0.02-0.32-0.02c-0.11,0-0.22,0.02-0.32,0.04
		c-0.11,0.02-0.22,0.04-0.33,0.08c-0.05,0.02-0.1,0.02-0.14,0.04c-0.06,0.02-0.1,0.07-0.15,0.09c-0.1,0.05-0.2,0.11-0.29,0.17
		c-0.09,0.07-0.18,0.14-0.26,0.22c-0.04,0.04-0.09,0.07-0.13,0.11c-2.27,2.63-5.09,6.56-7.97,11.55h-41.05
		c-4.24-6.89-11.08-13.71-19.74-19.14c-0.5-0.32-1.01-0.61-1.52-0.91l32.29-3.16c1.25-0.12,2.18-1.22,2.08-2.48
		c-0.33-4.34-2.56-8.36-6.46-11.63c-6.16-5.18-15.78-8.06-26.53-8.13l20.46-15.82c0.93-0.72,1.17-2.01,0.57-3.02
		c-2.07-3.45-5.53-5.72-10-6.57c-9.12-1.72-21.82,2.64-33.14,11.39c-0.15,0.12-0.3,0.24-0.45,0.36l12.53-32.62
		c0.43-1.12-0.06-2.37-1.13-2.9c-0.83-0.41-2.19-0.76-3.99-0.05c-6.7,2.61-15.6,19.14-21.45,34.36c-0.67,1.74-1.3,3.49-1.91,5.23
		c-0.43-2.04-0.87-3.98-1.31-5.77c-3.95-16.06-10.76-33.85-17.07-37.38c-1.65-0.92-3.02-0.79-3.88-0.52
		c-1.16,0.37-1.84,1.58-1.55,2.76l7.59,30.84c-9.51-9.97-20.57-16.06-29.33-16.06c-0.04,0-0.08,0-0.12,0
		c-4.35,0.03-7.97,1.57-10.48,4.46c-0.76,0.88-0.76,2.19,0.02,3.06l17.56,19.7c-10.61-2.11-20.53-1.19-27.39,2.7
		c-4.29,2.44-7.09,5.93-8.1,10.1c-0.29,1.19,0.4,2.39,1.56,2.75l32.02,9.97c-0.74,0.25-1.48,0.51-2.22,0.8
		c-8.27,3.14-15.32,7.64-20.49,12.7c0,0-0.01,0-0.01,0c-10.25-2.91-18.97-1.88-22.89-1.13c0.48-82.39,67.65-149.26,150.14-149.26
		c82.79,0,150.15,67.36,150.15,150.15C681.34,392.14,681.08,397.21,680.57,402.22z"/>
	<path d="M596.69,294.06c-15.83,0-28.72,12.88-28.72,28.72c0,15.84,12.88,28.72,28.72,28.72c15.84,0,28.72-12.88,28.72-28.72
		C625.41,306.95,612.53,294.06,596.69,294.06z M596.69,347.36c-13.55,0-24.58-11.03-24.58-24.58c0-13.55,11.03-24.58,24.58-24.58
		c13.55,0,24.58,11.03,24.58,24.58C621.27,336.33,610.24,347.36,596.69,347.36z"/>
	<path d="M483.64,436.16c0,1.23,1,2.23,2.23,2.23h27.37c1.23,0,2.23-1,2.23-2.23s-1-2.23-2.23-2.23h-27.37
		C484.64,433.93,483.64,434.93,483.64,436.16z"/>
	<path d="M623.41,535.54c-0.64-1.17-1.5-2.2-2.52-3.01c-1.02-0.82-2.15-1.39-3.39-1.75c-1.23-0.37-2.5-0.5-3.8-0.38
		c-1.3,0.13-2.58,0.52-3.76,1.16s-2.2,1.5-3.04,2.54c-0.38,0.48-0.71,0.99-1,1.52l2.02,3.72c0.06-0.34,0.13-0.65,0.23-0.98
		c0.52-1.74,1.68-3.19,3.28-4.06c1.6-0.87,3.45-1.05,5.19-0.53c1.74,0.51,3.19,1.67,4.06,3.27c0.87,1.6,1.05,3.45,0.54,5.19
		c-0.5,1.77-1.68,3.19-3.28,4.06c-1.41,0.77-2.98,1.01-4.51,0.72l1.75,3.22c0.14-0.02,0.32-0.02,0.47-0.04
		c1.34-0.12,2.6-0.53,3.78-1.17c1.18-0.64,2.21-1.48,3.02-2.52c0.83-1,1.4-2.13,1.77-3.37c0.37-1.23,0.49-2.52,0.37-3.8
		C624.44,537.99,624.05,536.71,623.41,535.54z"/>
	<path d="M595.83,542.77l-6.62,2.48l-3.07-3.39l-3.18,1.19l15.35,16.42l0.81-22.48l-3.21,1.2L595.83,542.77z M595.62,552.28
		l-4.38-4.82l4.51-1.69L595.62,552.28z"/>
	<polygon points="572.88,545.65 564.78,547.57 565.43,550.3 573.5,548.39 577.43,564.98 580.45,564.26 575.87,544.94 	"/>
	<rect x="556.1" y="548.77" transform="matrix(0.9879 -0.1553 0.1553 0.9879 -80.0164 93.4035)" width="3.11" height="19.86"/>
	<polygon points="542.47,550.26 542.88,559.22 535.64,559.55 535.77,562.36 543.01,562.02 543.26,567.31 534.43,567.72 
		534.56,570.5 543.41,570.09 546.49,569.95 545.57,550.12 	"/>
	<path d="M525.32,553.43c-0.83-0.99-1.8-1.8-2.96-2.41c-1.16-0.61-2.44-0.99-3.77-1.11s-2.66,0.04-3.93,0.43
		c-1.22,0.41-2.32,1.03-3.33,1.86c-0.99,0.83-1.77,1.81-2.38,2.96c-0.61,1.16-0.99,2.44-1.11,3.77c-0.12,1.33,0.04,2.66,0.44,3.93
		c0.4,1.22,1.01,2.32,1.83,3.33c0.85,0.99,1.83,1.77,2.96,2.38c1.18,0.61,2.47,0.99,3.8,1.11c1.33,0.12,2.66-0.04,3.91-0.44
		c1.24-0.4,2.34-1,3.33-1.83c0.99-0.85,1.8-1.83,2.41-2.96c0.61-1.18,1-2.47,1.11-3.8c0.12-1.33-0.04-2.66-0.44-3.91
		C526.77,555.51,526.14,554.41,525.32,553.43z M524.52,560.39c-0.16,1.81-1.03,3.46-2.42,4.62c-1.39,1.17-3.16,1.74-4.97,1.58
		c-1.81-0.16-3.46-1.03-4.62-2.42c-1.17-1.39-1.74-3.16-1.58-4.97c0.16-1.81,1.03-3.46,2.42-4.63c1.39-1.17,3.16-1.74,4.97-1.58
		c1.81,0.16,3.46,1.03,4.62,2.42S524.68,558.58,524.52,560.39z"/>
	<path d="M496.03,553.27l-2.21-0.53l-3.29-7.71l-3.41-0.82l3.52,8.23c-1.13,0.11-2,0.54-2.6,0.94c-1.29,0.87-2.21,2.3-2.64,4.07
		c-0.43,1.8-0.26,3.49,0.48,4.85c0.57,1.07,1.8,2.47,4.35,3.09l3.17,0.77l2.55,0.62l4.67-19.31l-3.02-0.73L496.03,553.27z
		 M493.6,563.31l-2.71-0.65c-1.25-0.3-2.1-0.87-2.54-1.69c-0.54-0.96-0.41-2.08-0.22-2.86c0.18-0.75,0.58-1.82,1.49-2.42
		c0.76-0.53,1.79-0.67,3.04-0.37l2.71,0.65L493.6,563.31z"/>
	<polygon points="472.75,552.83 466.09,535.54 458.52,554.88 461.44,556.02 466.08,544.16 472.71,561.44 480.29,542.07 
		477.4,540.94 	"/>
	<rect x="441.77" y="538.82" transform="matrix(0.4656 -0.885 0.885 0.4656 -236.8412 688.5201)" width="19.86" height="3.11"/>
	<path d="M433.95,517.68l-4.43,22.04l18.76-12.42l-2.84-1.91l-3.77,2.59l-5.86-3.94l0.97-4.47L433.95,517.68z M439.17,529.68
		l-5.37,3.68l1.38-6.36L439.17,529.68z"/>
	<path d="M483.93,281.1c-2.9,0.38-5.33,1.41-6.93,2.26c-1.35-1.19-3.44-2.25-6.4-2.28c-0.03,0-0.06,0-0.09,0
		c-5.88,0-9.57,6.82-9.98,7.6c-0.63,1.22-0.15,2.73,1.07,3.36c0.37,0.19,0.76,0.28,1.15,0.28c0.9,0,1.77-0.49,2.22-1.34
		c0.67-1.27,3.11-4.9,5.54-4.9c0.01,0,0.02,0,0.03,0c2.73,0.03,3.55,1.46,3.6,1.55c0.3,0.7,0.91,1.22,1.65,1.41
		c0.74,0.2,1.53,0.04,2.14-0.41c0.03-0.02,2.84-2.08,6.65-2.57c0.84-0.11,1.32,0.01,1.48,0.14c0.15,0.12,0.21,0.42,0.21,0.47
		c-0.02,1.38,1.09,2.51,2.47,2.53c0.01,0,0.02,0,0.03,0c1.37,0,2.48-1.1,2.5-2.47c0-0.26-0.02-2.61-1.88-4.26
		C488.46,281.64,486.75,280.73,483.93,281.1z"/>
	<path d="M531.03,295.96c-2.91,0.26-5.38,1.19-7.02,1.97c-1.3-1.25-3.35-2.39-6.3-2.54c-5.95-0.31-9.94,6.41-10.38,7.17
		c-0.68,1.2-0.27,2.72,0.93,3.4c0.39,0.22,0.82,0.33,1.24,0.33c0.87,0,1.71-0.45,2.17-1.25c0.72-1.25,3.33-4.82,5.77-4.67
		c2.73,0.15,3.49,1.6,3.54,1.69c0.28,0.71,0.86,1.25,1.59,1.48c0.73,0.23,1.52,0.11,2.15-0.32c0.03-0.02,2.92-1.96,6.75-2.3
		c0.84-0.07,1.31,0.06,1.47,0.2c0.14,0.13,0.19,0.43,0.19,0.48c-0.07,1.38,0.98,2.56,2.36,2.63c1.4,0.08,2.56-0.98,2.63-2.36
		c0.01-0.26,0.09-2.61-1.71-4.34C535.53,296.69,533.86,295.72,531.03,295.96z"/>
	<path d="M366.61,386.42c-5.86-4.34-8.95-10.21-9.31-10.91c-0.05-0.14-0.14-0.25-0.26-0.32c-0.09-0.06-0.2-0.09-0.31-0.09
		c-0.28,0-0.51,0.19-0.57,0.45c-3.66,6.72-8.52,10.28-9.26,10.8c-0.12,0.04-0.22,0.13-0.29,0.24c-0.06,0.1-0.09,0.21-0.09,0.32
		c0,0,0,0.01,0,0.01c0,0.24,0.15,0.45,0.35,0.53c5.72,4.25,8.81,9.98,9.27,10.88c0.02,0.05,0.04,0.09,0.07,0.13
		c0.1,0.17,0.29,0.26,0.48,0.26c0.05,0,0.1,0,0.15-0.02c0.19-0.04,0.34-0.18,0.41-0.36c3.59-6.63,8.4-10.23,9.29-10.87
		c0.22-0.08,0.38-0.29,0.38-0.54c0-0.12-0.04-0.24-0.11-0.34C366.77,386.53,366.7,386.47,366.61,386.42z"/>
	<path d="M715.98,385.8c-0.05-0.08-0.12-0.14-0.21-0.19c-5.86-4.34-8.95-10.21-9.31-10.91c-0.05-0.14-0.14-0.25-0.26-0.32
		c-0.09-0.06-0.2-0.09-0.31-0.09c-0.28,0-0.51,0.19-0.57,0.45c-3.66,6.72-8.52,10.28-9.26,10.8c-0.12,0.04-0.22,0.13-0.29,0.24
		c-0.06,0.1-0.09,0.21-0.09,0.32c0,0,0,0.01,0,0.01c0,0.24,0.15,0.45,0.35,0.53c5.72,4.26,8.81,9.98,9.27,10.88
		c0.02,0.05,0.04,0.09,0.07,0.13c0.1,0.17,0.29,0.26,0.48,0.26c0.05,0,0.1,0,0.15-0.02c0.19-0.04,0.34-0.18,0.41-0.36
		c3.59-6.63,8.4-10.23,9.29-10.87c0.22-0.08,0.38-0.29,0.38-0.54C716.09,386.01,716.05,385.89,715.98,385.8z"/>
</g>
<rect x="453.52" y="176.68" class="st0" width="399.14" height="399.14"/>
<rect x="1045.67" y="141.7" width="500" height="500"/>
<g>
	<path class="st1" d="M1295.67,191.15c-110.04,0-199.57,89.53-199.57,199.57s89.53,199.57,199.57,199.57
		c110.04,0,199.57-89.53,199.57-199.57S1405.72,191.15,1295.67,191.15z M1295.67,585.03c-107.14,0-194.3-87.16-194.3-194.3
		s87.16-194.3,194.3-194.3c107.14,0,194.3,87.17,194.3,194.3S1402.81,585.03,1295.67,585.03z"/>
	<path class="st1" d="M1202.89,244.86c0.66,1.16,1.54,2.17,2.58,2.97c1.04,0.8,2.18,1.35,3.42,1.69c1.24,0.34,2.51,0.45,3.8,0.3
		c1.3-0.15,2.57-0.57,3.73-1.23c1.16-0.66,2.17-1.54,2.99-2.59c0.37-0.49,0.69-1.01,0.97-1.54l-2.09-3.68
		c-0.05,0.34-0.12,0.65-0.21,0.98c-0.48,1.75-1.62,3.23-3.2,4.12c-1.58,0.9-3.43,1.12-5.18,0.63c-1.75-0.48-3.23-1.61-4.13-3.2
		c-0.9-1.58-1.12-3.43-0.63-5.18c0.47-1.77,1.61-3.23,3.2-4.13c1.4-0.79,2.96-1.07,4.5-0.8l-1.81-3.19
		c-0.14,0.02-0.32,0.03-0.46,0.05c-1.33,0.14-2.59,0.58-3.76,1.24c-1.16,0.66-2.19,1.52-2.97,2.58c-0.81,1.01-1.36,2.16-1.7,3.4
		s-0.44,2.53-0.3,3.8C1201.81,242.43,1202.23,243.7,1202.89,244.86z"/>
	<path class="st1" d="M1230.3,237.12l6.57-2.6l3.14,3.33l3.16-1.25l-15.67-16.13l-0.38,22.49l3.18-1.26L1230.3,237.12z
		 M1230.33,227.61l4.47,4.73l-4.48,1.78L1230.33,227.61z"/>
	<polygon class="st1" points="1253.2,233.8 1261.26,231.73 1260.56,229.01 1252.52,231.07 1248.28,214.56 1245.27,215.34 
		1250.22,234.56 	"/>
	
		<rect x="1266.62" y="210.53" transform="matrix(0.9847 -0.1742 0.1742 0.9847 -19.0141 224.2995)" class="st1" width="3.11" height="19.86"/>
	<polygon class="st1" points="1283.51,228.61 1282.93,219.66 1290.16,219.19 1289.98,216.38 1282.74,216.86 1282.4,211.57 
		1291.21,210.99 1291.03,208.22 1282.19,208.8 1279.12,209 1280.42,228.81 	"/>
	<path class="st1" d="M1300.6,225.11c0.85,0.97,1.84,1.76,3.01,2.35s2.46,0.95,3.79,1.04c1.33,0.09,2.66-0.09,3.92-0.51
		c1.21-0.43,2.3-1.08,3.3-1.92c0.97-0.85,1.73-1.84,2.32-3.01c0.59-1.17,0.95-2.46,1.04-3.79c0.09-1.34-0.09-2.66-0.51-3.92
		c-0.43-1.21-1.05-2.3-1.9-3.29c-0.87-0.97-1.87-1.74-3.01-2.32c-1.19-0.59-2.48-0.95-3.82-1.04c-1.33-0.09-2.66,0.09-3.9,0.51
		c-1.24,0.43-2.33,1.05-3.29,1.9c-0.97,0.87-1.76,1.86-2.35,3c-0.59,1.19-0.95,2.48-1.04,3.82c-0.09,1.34,0.09,2.66,0.51,3.9
		C1299.1,223.06,1299.75,224.15,1300.6,225.11z M1301.26,218.13c0.12-1.81,0.96-3.48,2.33-4.67c1.37-1.19,3.13-1.8,4.94-1.67
		c1.82,0.12,3.48,0.96,4.67,2.33c1.19,1.37,1.8,3.13,1.68,4.94s-0.96,3.48-2.33,4.67c-1.37,1.19-3.13,1.8-4.94,1.67
		c-1.82-0.12-3.48-0.96-4.67-2.33S1301.14,219.95,1301.26,218.13z"/>
	<path class="st1" d="M1329.88,224.71l2.22,0.49l3.43,7.64l3.42,0.76l-3.68-8.16c1.13-0.13,1.99-0.57,2.58-0.99
		c1.27-0.9,2.16-2.34,2.56-4.12c0.4-1.8,0.2-3.49-0.57-4.84c-0.59-1.06-1.85-2.44-4.41-3l-3.19-0.71l-2.56-0.57l-4.29,19.39
		l3.03,0.67L1329.88,224.71z M1332.12,214.62l2.72,0.6c1.25,0.28,2.12,0.83,2.57,1.64c0.56,0.95,0.45,2.07,0.27,2.86
		c-0.17,0.76-0.54,1.83-1.45,2.45c-0.75,0.55-1.77,0.7-3.03,0.43l-2.72-0.6L1332.12,214.62z"/>
	<polygon class="st1" points="1353.17,224.7 1360.16,241.86 1367.35,222.38 1364.42,221.3 1360,233.25 1353.04,216.1 1345.84,235.6 
		1348.75,236.68 	"/>
	
		<rect x="1364.52" y="235.2" transform="matrix(0.449 -0.8935 0.8935 0.449 545.8082 1358.5874)" class="st1" width="19.86" height="3.1"/>
	<path class="st1" d="M1392.64,259.1l4.01-22.12l-18.52,12.77l2.88,1.86l3.72-2.66l5.94,3.83l-0.89,4.49L1392.64,259.1z
		 M1387.18,247.21l5.3-3.78l-1.25,6.39L1387.18,247.21z"/>
	<path class="st1" d="M1294.52,237.41c-85.55,0-155.15,69.6-155.15,155.15s69.6,155.15,155.15,155.15
		c85.55,0,155.15-69.6,155.15-155.15S1380.07,237.41,1294.52,237.41z M1144.42,396.72c2.46-0.55,9.94-1.84,19.13,0.24
		c-4.77,6.13-6.8,12.73-5.08,18.58c0.18,0.62,0.61,1.13,1.19,1.42c0.32,0.16,0.68,0.24,1.03,0.24c0.28,0,0.56-0.05,0.82-0.15
		l23.25-8.83c1.24,1.13,2.47,2.34,3.64,3.63c8.31,9.12,12.94,21.18,17.42,32.84c4.8,12.5,9.35,24.3,18.04,30.53
		c-0.11,1.24-0.25,2.46-0.38,3.68c-1.07,0.21-1.88,1.14-1.88,2.27c0,0.96,0.58,1.78,1.41,2.13c-1.45,12.39-3.57,24.36-6.38,35.87
		c-0.17,0.69-0.01,1.42,0.43,1.98c0,0,0,0,0,0C1174.64,495.51,1145.86,449.47,1144.42,396.72z M1260.94,362.7
		c-0.04,0.03-0.07,0.07-0.11,0.1c-11.44,1.4-21.17,5.65-27.33,11.35c-0.05-1.05-0.12-2.11-0.22-3.2
		c3.51-6.73,9.36-13.51,16.43-18.98c10.3-7.96,21.58-11.99,29.45-10.51c2.37,0.45,4.26,1.38,5.64,2.78L1260.94,362.7z
		 M1262.88,367.23c11.93-1.17,23.29,1.43,29.65,6.77c2.2,1.85,3.69,3.96,4.39,6.2l-35.92,3.52c-0.29,0.03-0.55,0.11-0.79,0.23
		c-9.1-3.91-18.09-5.15-24.81-3.22c-0.68,0.2-1.33,0.43-1.96,0.69c0-0.04,0-0.08,0.01-0.12
		C1238.19,374.32,1249.6,368.53,1262.88,367.23z M1239.69,353.28l-0.9,2.34c-2.39,2.52-4.54,5.16-6.38,7.85
		c-0.05-0.37-0.11-0.75-0.17-1.12c1.25-4.29,2.76-8.79,4.47-13.24c5.89-15.35,12.09-25.25,15.91-29.48L1239.69,353.28z
		 M1236.68,385.19c7.71-2.21,19.19,0.62,29.98,7.38c14.52,9.1,23.95,23.17,22.23,32.32l-57.38-35.97c0.26-0.44,0.5-0.91,0.71-1.45
		C1233.4,386.47,1234.89,385.7,1236.68,385.19z M1321.33,426.27h-28.01c0.91-4.06,0.2-8.71-1.86-13.49h35.72
		C1325.13,416.8,1323.13,421.33,1321.33,426.27z M1337.48,404.24l0.05,2.25l2.6,112.54l-4.23,2.92
		c-3.99-6.21-16.53-27.92-16.94-56.44C1318.55,436.09,1331.02,413.79,1337.48,404.24z M1319.82,430.74
		c-2.71,8.52-4.7,18.11-5.2,28.41h-3.27c-1.23,0-2.23,1-2.23,2.23s1,2.23,2.23,2.23h3.16c0,0.65-0.01,1.31,0,1.97
		c0.15,10.49,1.83,20.02,4.13,28.28c-8.96-2.17-18.47-4.71-27.7-7.18c-19.46-5.2-37.86-10.11-50.78-11.62
		c-0.03-5.77-0.15-11.69-0.36-17.73c0.93-0.3,1.61-1.16,1.61-2.2c0-1.09-0.76-2-1.77-2.25c-0.55-12.78-1.51-26.17-2.89-40.1h24.11
		l21.52,13.49h-17.12c-1.23,0-2.23,1-2.23,2.23s1,2.23,2.23,2.23H1319.82z M1228.49,505.17h6.23c-0.26,4.17-0.56,8.26-0.94,12.24
		h-11.96c2.54-10.92,4.47-22.24,5.82-33.92h3.35c1.28,0,2.32-1.04,2.32-2.32s-1.04-2.32-2.32-2.32h-2.84
		c0.78-7.67,1.31-15.49,1.58-23.46c0.13,1.15,1.1,2.05,2.29,2.05h3.14c0.54,15.26,0.48,29.64-0.2,43.1h-6.48
		c-1.28,0-2.32,1.04-2.32,2.32S1227.21,505.17,1228.49,505.17z M1224.26,412.78c0.24,3.32,0.43,6.61,0.59,9.89h-0.72
		c-1.28,0-2.32,1.04-2.32,2.32s1.04,2.32,2.32,2.32h0.93c0.54,14.4,0.29,28.38-0.71,41.9c-6.06-5.86-9.89-15.82-13.91-26.29
		c-3.81-9.92-8.07-20.98-14.88-30.13H1224.26z M1191.36,407.78c-0.48-0.51-0.96-1.03-1.46-1.52l32.62-12.39
		c0.53,4.68,0.98,9.31,1.36,13.91H1191.36z M1234.99,396.57l17.89,11.22h-16.64C1235.85,404.08,1235.43,400.34,1234.99,396.57z
		 M1234.99,452.81h-2.97c-1.12,0-2.05,0.79-2.27,1.84c0.29-8.94,0.28-18.06-0.07-27.35h1.14c1.28,0,2.32-1.04,2.32-2.32
		s-1.04-2.32-2.32-2.32h-1.34c-0.47-9.94-1.29-20.06-2.48-30.37c0-0.04-0.02-0.08-0.03-0.12l0.63-0.24l2.34,1.47
		C1232.51,414.41,1234.19,434.24,1234.99,452.81z M1220.73,349.55l-8.09-32.88c3.08,4.49,7.78,14.08,12.03,31.36
		c1.2,4.88,2.1,9.38,2.76,13.46c-1.76-3.68-3.99-7.42-6.66-11.07C1220.81,350.13,1220.81,349.84,1220.73,349.55z M1227.24,376.02
		c-4.52-8.16-14.45-15.77-27.22-20.08c-0.04-0.05-0.07-0.1-0.11-0.15l-20.57-23.09c1.47-1,3.31-1.51,5.5-1.52c0.03,0,0.06,0,0.09,0
		c7.9,0,18.74,6.43,27.64,16.42C1220.77,356.8,1226.04,367.54,1227.24,376.02z M1224.19,380.43c-0.73-0.5-1.5-0.97-2.34-1.39
		c-6.19-3.07-14.63-3.69-23.73-1.92c-0.2-0.15-0.43-0.28-0.68-0.36l-35.79-11.15c1-2.03,2.72-3.75,5.15-5.12
		c7.08-4.02,18.7-4.26,30.33-0.64C1210.36,363.99,1220.89,372.36,1224.19,380.43z M1207.85,380.79c4.58,0,8.7,0.8,11.94,2.4
		c2.36,1.17,4.1,2.71,5.19,4.56c-0.01,0.02-0.03,0.04-0.04,0.05c-0.07,0.08-0.13,0.18-0.19,0.27l-62.24,23.64
		c-0.34-9.36,11.16-21.31,26.91-27.29C1195.77,382.01,1202.17,380.79,1207.85,380.79z M1294.52,542.72
		c-27.73,0-53.72-7.56-76.03-20.72c0.13,0.02,0.27,0.05,0.41,0.05h16.99c1.19,0,2.18-0.9,2.3-2.08c1.25-12.4,1.9-25.74,1.97-39.92
		c12.53,1.54,30.51,6.34,49.51,11.42c10.06,2.69,20.46,5.47,30.15,7.77c0.16,0.04,0.33,0.05,0.49,0.06
		c5.42,16.31,12.74,26.44,13.22,27.09c0.44,0.59,1.11,0.91,1.8,0.91c0.44,0,0.88-0.13,1.26-0.39l5.87-4.05l6.06,3.78
		c0.37,0.23,0.78,0.34,1.18,0.34c0.72,0,1.43-0.35,1.86-0.99c0.38-0.57,5.3-8.08,9.63-20.33c6.68,1.16,11.29,3.49,13.69,6.94
		c1.56,2.24,1.79,4.43,1.78,5.63C1353.02,533.69,1324.81,542.72,1294.52,542.72z M1341.94,404.14c6.9,9.24,20.38,30.94,21.33,60.34
		c0.92,28.5-10.61,50.78-14.31,57.16l-4.36-2.72l-2.59-111.87L1341.94,404.14z M1381.25,515.07c-0.34-1.58-1-3.39-2.23-5.2
		c-3.07-4.5-8.55-7.52-16.28-8.98c3.06-10,5.44-22.48,4.99-36.54c-0.09-2.92-0.32-5.79-0.64-8.6h12.03c1.23,0,2.23-1,2.23-2.23
		s-1-2.23-2.23-2.23h-12.65c-0.43-2.69-0.95-5.32-1.55-7.88c0.17,0.04,0.34,0.06,0.51,0.06h45.61c1.23,0,2.23-1,2.23-2.23
		s-1-2.23-2.23-2.23h-45.61c-0.57,0-1.09,0.22-1.48,0.58c-2.82-10.34-6.85-19.43-10.99-26.8h90.35
		C1437.61,454.9,1414.39,491.53,1381.25,515.07z M1443.9,407.78h-93.93c-3.22-5.07-6.32-9.03-8.79-11.63
		c-0.04-0.04-0.09-0.07-0.14-0.11c-0.09-0.08-0.17-0.15-0.27-0.21c-0.09-0.06-0.19-0.11-0.29-0.16c-0.06-0.03-0.1-0.07-0.16-0.09
		c-0.05-0.02-0.1-0.01-0.15-0.03c-0.11-0.03-0.22-0.05-0.33-0.06c-0.11-0.01-0.22-0.02-0.32-0.02c-0.11,0-0.22,0.02-0.32,0.04
		c-0.11,0.02-0.22,0.04-0.33,0.08c-0.05,0.02-0.1,0.02-0.15,0.04c-0.06,0.02-0.1,0.07-0.15,0.09c-0.1,0.05-0.2,0.11-0.29,0.17
		c-0.09,0.07-0.18,0.14-0.26,0.22c-0.04,0.04-0.09,0.07-0.13,0.11c-2.27,2.63-5.09,6.56-7.97,11.55h-41.05
		c-4.24-6.89-11.08-13.71-19.74-19.14c-0.5-0.32-1.01-0.61-1.52-0.91l32.29-3.16c1.25-0.12,2.18-1.22,2.08-2.48
		c-0.33-4.34-2.56-8.36-6.46-11.63c-6.16-5.18-15.78-8.06-26.53-8.13l20.46-15.82c0.93-0.72,1.17-2.01,0.57-3.02
		c-2.07-3.45-5.53-5.72-10-6.57c-9.12-1.72-21.82,2.64-33.14,11.39c-0.15,0.12-0.3,0.24-0.45,0.36l12.53-32.62
		c0.43-1.12-0.06-2.37-1.13-2.9c-0.83-0.41-2.19-0.76-3.99-0.05c-6.7,2.61-15.6,19.14-21.45,34.36c-0.67,1.74-1.3,3.49-1.91,5.23
		c-0.43-2.04-0.87-3.98-1.31-5.77c-3.95-16.06-10.76-33.85-17.07-37.38c-1.65-0.92-3.02-0.79-3.88-0.52
		c-1.16,0.37-1.84,1.58-1.55,2.76l7.59,30.84c-9.51-9.97-20.57-16.06-29.33-16.06c-0.04,0-0.08,0-0.12,0
		c-4.35,0.03-7.97,1.57-10.48,4.46c-0.76,0.88-0.76,2.19,0.02,3.06l17.56,19.7c-10.61-2.11-20.53-1.19-27.39,2.7
		c-4.29,2.44-7.09,5.93-8.1,10.1c-0.29,1.19,0.4,2.39,1.56,2.75l32.02,9.97c-0.74,0.25-1.48,0.51-2.22,0.8
		c-8.27,3.14-15.32,7.64-20.49,12.7c0,0-0.01,0-0.01,0c-10.25-2.91-18.97-1.88-22.89-1.13c0.48-82.39,67.65-149.26,150.14-149.26
		c82.79,0,150.15,67.36,150.15,150.15C1444.67,397.7,1444.41,402.78,1443.9,407.78z"/>
	<path class="st1" d="M1360.02,299.63c-15.83,0-28.72,12.88-28.72,28.72c0,15.84,12.88,28.72,28.72,28.72
		c15.84,0,28.72-12.88,28.72-28.72C1388.74,312.51,1375.86,299.63,1360.02,299.63z M1360.02,352.92
		c-13.55,0-24.58-11.03-24.58-24.58c0-13.55,11.03-24.58,24.58-24.58c13.55,0,24.58,11.03,24.58,24.58
		C1384.6,341.9,1373.57,352.92,1360.02,352.92z"/>
	<path class="st1" d="M1246.97,441.72c0,1.23,1,2.23,2.23,2.23h27.37c1.23,0,2.23-1,2.23-2.23s-1-2.23-2.23-2.23h-27.37
		C1247.97,439.49,1246.97,440.49,1246.97,441.72z"/>
	<path class="st1" d="M1386.74,541.1c-0.64-1.17-1.5-2.2-2.52-3.01c-1.02-0.82-2.15-1.39-3.39-1.75c-1.23-0.37-2.5-0.5-3.8-0.38
		c-1.3,0.13-2.58,0.52-3.76,1.16s-2.2,1.5-3.04,2.54c-0.38,0.48-0.71,0.99-1,1.52l2.02,3.72c0.06-0.34,0.13-0.65,0.23-0.98
		c0.52-1.74,1.68-3.19,3.28-4.06c1.6-0.87,3.45-1.05,5.19-0.53c1.74,0.51,3.19,1.67,4.06,3.27c0.87,1.6,1.05,3.45,0.54,5.19
		c-0.5,1.77-1.68,3.19-3.28,4.06c-1.41,0.77-2.98,1.01-4.51,0.72l1.75,3.22c0.14-0.02,0.32-0.02,0.47-0.04
		c1.34-0.12,2.6-0.53,3.78-1.17c1.18-0.64,2.21-1.48,3.02-2.52c0.83-1,1.4-2.13,1.77-3.37c0.37-1.23,0.49-2.52,0.37-3.8
		C1387.77,543.56,1387.38,542.28,1386.74,541.1z"/>
	<path class="st1" d="M1359.16,548.33l-6.62,2.48l-3.07-3.39l-3.18,1.19l15.35,16.42l0.81-22.48l-3.21,1.2L1359.16,548.33z
		 M1358.95,557.84l-4.38-4.82l4.51-1.69L1358.95,557.84z"/>
	<polygon class="st1" points="1336.21,551.22 1328.11,553.13 1328.76,555.87 1336.83,553.96 1340.76,570.54 1343.78,569.83 
		1339.2,550.51 	"/>
	
		<rect x="1319.43" y="554.33" transform="matrix(0.9879 -0.1553 0.1553 0.9879 -71.6154 212.0419)" class="st1" width="3.11" height="19.86"/>
	<polygon class="st1" points="1305.8,555.83 1306.21,564.78 1298.97,565.12 1299.1,567.92 1306.34,567.59 1306.59,572.88 
		1297.76,573.29 1297.89,576.07 1306.74,575.66 1309.81,575.51 1308.9,555.68 	"/>
	<path class="st1" d="M1288.65,558.99c-0.83-0.99-1.8-1.8-2.96-2.41c-1.16-0.61-2.44-0.99-3.77-1.11s-2.66,0.04-3.93,0.43
		c-1.22,0.41-2.32,1.03-3.33,1.86c-0.99,0.83-1.77,1.81-2.38,2.96c-0.61,1.16-0.99,2.44-1.11,3.77c-0.12,1.33,0.04,2.66,0.44,3.93
		c0.4,1.22,1.01,2.32,1.83,3.33c0.85,0.99,1.83,1.77,2.96,2.38c1.18,0.61,2.47,0.99,3.8,1.11c1.33,0.12,2.66-0.04,3.91-0.44
		c1.24-0.4,2.34-1,3.33-1.83c0.99-0.85,1.8-1.83,2.41-2.96c0.61-1.18,1-2.47,1.11-3.8c0.12-1.33-0.04-2.66-0.44-3.91
		C1290.1,561.08,1289.47,559.97,1288.65,558.99z M1287.85,565.96c-0.16,1.81-1.03,3.46-2.42,4.62c-1.39,1.17-3.16,1.74-4.97,1.58
		c-1.81-0.16-3.46-1.03-4.62-2.42c-1.17-1.39-1.74-3.16-1.58-4.97c0.16-1.81,1.03-3.46,2.42-4.63c1.39-1.17,3.16-1.74,4.97-1.58
		c1.81,0.16,3.46,1.03,4.62,2.42S1288.01,564.15,1287.85,565.96z"/>
	<path class="st1" d="M1259.36,558.83l-2.21-0.53l-3.29-7.71l-3.41-0.82l3.52,8.23c-1.13,0.11-2,0.54-2.6,0.94
		c-1.29,0.87-2.21,2.3-2.64,4.07c-0.43,1.8-0.26,3.49,0.48,4.85c0.57,1.07,1.8,2.47,4.35,3.09l3.17,0.77l2.55,0.62l4.67-19.31
		l-3.02-0.73L1259.36,558.83z M1256.93,568.87l-2.71-0.65c-1.25-0.3-2.1-0.87-2.54-1.69c-0.54-0.96-0.41-2.08-0.22-2.86
		c0.18-0.75,0.58-1.82,1.49-2.42c0.76-0.53,1.79-0.67,3.04-0.37l2.71,0.65L1256.93,568.87z"/>
	<polygon class="st1" points="1236.07,558.39 1229.42,541.1 1221.85,560.44 1224.77,561.58 1229.41,549.72 1236.04,567 
		1243.62,547.64 1240.73,546.51 	"/>
	
		<rect x="1205.1" y="544.39" transform="matrix(0.4656 -0.885 0.885 0.4656 166.1455 1367.0295)" class="st1" width="19.86" height="3.11"/>
	<path class="st1" d="M1197.28,523.25l-4.43,22.04l18.76-12.42l-2.84-1.91l-3.77,2.59l-5.86-3.94l0.97-4.47L1197.28,523.25z
		 M1202.5,535.24l-5.37,3.68l1.38-6.36L1202.5,535.24z"/>
	<path class="st1" d="M1247.26,286.66c-2.9,0.38-5.33,1.41-6.93,2.26c-1.35-1.19-3.44-2.25-6.4-2.28c-0.03,0-0.06,0-0.09,0
		c-5.88,0-9.57,6.82-9.98,7.6c-0.63,1.22-0.15,2.73,1.07,3.36c0.37,0.19,0.76,0.28,1.15,0.28c0.9,0,1.77-0.49,2.22-1.34
		c0.67-1.27,3.11-4.9,5.54-4.9c0.01,0,0.02,0,0.03,0c2.73,0.03,3.55,1.46,3.6,1.55c0.3,0.7,0.91,1.22,1.65,1.41
		c0.74,0.2,1.53,0.04,2.14-0.41c0.03-0.02,2.84-2.08,6.65-2.57c0.84-0.11,1.32,0.01,1.48,0.14c0.15,0.12,0.21,0.42,0.21,0.47
		c-0.02,1.38,1.09,2.51,2.47,2.53c0.01,0,0.02,0,0.03,0c1.37,0,2.48-1.1,2.5-2.47c0-0.26-0.02-2.61-1.88-4.26
		C1251.78,287.2,1250.08,286.3,1247.26,286.66z"/>
	<path class="st1" d="M1294.36,301.53c-2.91,0.26-5.38,1.19-7.02,1.97c-1.3-1.25-3.35-2.39-6.3-2.54
		c-5.95-0.31-9.94,6.41-10.38,7.17c-0.68,1.2-0.27,2.72,0.93,3.4c0.39,0.22,0.82,0.33,1.24,0.33c0.87,0,1.71-0.45,2.17-1.25
		c0.72-1.25,3.33-4.82,5.77-4.67c2.73,0.15,3.49,1.6,3.54,1.69c0.28,0.71,0.86,1.25,1.59,1.48c0.73,0.23,1.52,0.11,2.15-0.32
		c0.03-0.02,2.92-1.96,6.75-2.3c0.84-0.07,1.31,0.06,1.47,0.2c0.14,0.13,0.19,0.43,0.19,0.48c-0.07,1.38,0.98,2.56,2.36,2.63
		c1.4,0.08,2.56-0.98,2.63-2.36c0.01-0.26,0.09-2.61-1.71-4.34C1298.86,302.26,1297.19,301.28,1294.36,301.53z"/>
	<path class="st1" d="M1129.94,391.99c-5.86-4.34-8.95-10.21-9.31-10.91c-0.05-0.14-0.14-0.25-0.26-0.32
		c-0.09-0.06-0.2-0.09-0.31-0.09c-0.28,0-0.51,0.19-0.57,0.45c-3.66,6.72-8.52,10.28-9.26,10.8c-0.12,0.04-0.22,0.13-0.29,0.24
		c-0.06,0.1-0.09,0.21-0.09,0.32c0,0,0,0.01,0,0.01c0,0.24,0.15,0.45,0.35,0.53c5.72,4.25,8.81,9.98,9.27,10.88
		c0.02,0.05,0.04,0.09,0.07,0.13c0.1,0.17,0.29,0.26,0.48,0.26c0.05,0,0.1,0,0.15-0.02c0.19-0.04,0.34-0.18,0.41-0.36
		c3.59-6.63,8.4-10.23,9.29-10.87c0.22-0.08,0.38-0.29,0.38-0.54c0-0.12-0.04-0.24-0.11-0.34
		C1130.1,392.1,1130.02,392.03,1129.94,391.99z"/>
	<path class="st1" d="M1479.31,391.36c-0.05-0.08-0.12-0.14-0.21-0.19c-5.86-4.34-8.95-10.21-9.31-10.91
		c-0.05-0.14-0.14-0.25-0.26-0.32c-0.09-0.06-0.2-0.09-0.31-0.09c-0.28,0-0.51,0.19-0.57,0.45c-3.66,6.72-8.52,10.28-9.26,10.8
		c-0.12,0.04-0.22,0.13-0.29,0.24c-0.06,0.1-0.09,0.21-0.09,0.32c0,0,0,0.01,0,0.01c0,0.24,0.15,0.45,0.35,0.53
		c5.72,4.26,8.81,9.98,9.27,10.88c0.02,0.05,0.04,0.09,0.07,0.13c0.1,0.17,0.29,0.26,0.48,0.26c0.05,0,0.1,0,0.15-0.02
		c0.19-0.04,0.34-0.18,0.41-0.36c3.59-6.63,8.4-10.23,9.29-10.87c0.22-0.08,0.38-0.29,0.38-0.54
		C1479.42,391.57,1479.38,391.45,1479.31,391.36z"/>
</g>
<text transform="matrix(1 0 0 1 476.729 739.107)" class="st2 st3 st4">Black</text>
<text transform="matrix(1 0 0 1 1238.6627 744.111)" class="st2 st3 st4">White</text>
</svg>
