<svg xmlns="http://www.w3.org/2000/svg" xmlns:xlink="http://www.w3.org/1999/xlink" width="180" height="120" viewBox="0 0 180 120"><defs><clipPath id="b"><rect width="180" height="120"/></clipPath></defs><g id="a" clip-path="url(#b)"><g transform="translate(-47 -40)"><path d="M2.133,35.93a2.218,2.218,0,0,0,.773-.117,5.775,5.775,0,0,0,2.2-1.383,10.285,10.285,0,0,0,1.734-2.18,25.657,25.657,0,0,1,4.406,1.336,18.3,18.3,0,0,0,6.07,1.453,9.451,9.451,0,0,0,1.406-.094A9.268,9.268,0,0,0,23.2,32.836a13.324,13.324,0,0,0,2.6-2.93l-.633-.422c-1.5,2.18-2.906,3.539-4.219,4.031a9.78,9.78,0,0,1-3.539.773,7.576,7.576,0,0,1-1.617-.164,27.211,27.211,0,0,1-4.664-1.359,23.8,23.8,0,0,0-3.914-1.2C9.938,26.6,12,19.477,13.359,10.2A28.68,28.68,0,0,0,17.648,2.93a2.647,2.647,0,0,0,.211-.961A1.113,1.113,0,0,0,17.3.961a1.049,1.049,0,0,0-.469-.094c-.562,0-1.43.633-2.555,1.9A13.72,13.72,0,0,0,11.438,7.5Q10.277,10.84,7.5,21.961c-1.242,5.016-2.062,8.133-2.484,9.375a7.492,7.492,0,0,0-3.3.727c-.867.445-1.383.867-1.523,1.266a3.51,3.51,0,0,0-.187.8,1.725,1.725,0,0,0,.727,1.313A2.334,2.334,0,0,0,2.133,35.93ZM13.594,8.648a18.073,18.073,0,0,1,1.781-5.461c.656-1.055,1.148-1.57,1.477-1.57a.211.211,0,0,1,.117.023.411.411,0,0,1,.141.352,8.515,8.515,0,0,1-1.242,2.977A33.465,33.465,0,0,1,13.594,8.648ZM2.016,35.109H1.922a1.36,1.36,0,0,1-.75-.281,1.04,1.04,0,0,1-.445-.75.862.862,0,0,1,.188-.492,3.586,3.586,0,0,1,1.57-1.031,8.19,8.19,0,0,1,2.25-.469C4.008,33.984,3.094,34.992,2.016,35.109Zm16.125-5.531a3.335,3.335,0,0,0,2.25-1.312,9.666,9.666,0,0,0,1.547-2.789,13.061,13.061,0,0,0,.75-3,10.064,10.064,0,0,0,1.523.117,10.372,10.372,0,0,0,4.078-.8l-.3-.68a7.755,7.755,0,0,1-2.367.656c-.656.047-1.148.07-1.453.07a8.82,8.82,0,0,1-1.43-.117l.023-.656a12.838,12.838,0,0,0-.164-2.062,4.92,4.92,0,0,0-.7-2.156c-.281-.328-.516-.492-.727-.492h-.328c-.422,0-.773.281-1.1.82a.706.706,0,0,0-.469-.211.778.778,0,0,0-.375.117,8.466,8.466,0,0,0-3,3.516,9.1,9.1,0,0,0-1.008,3.188v1.148a6.2,6.2,0,0,0,.8,3.328,2.486,2.486,0,0,0,2.25,1.313Zm-.258-.82c-.727,0-1.078-.539-1.078-1.641a10.741,10.741,0,0,1,.7-3.773,7.58,7.58,0,0,1,1.992-3,3.057,3.057,0,0,0,2.438,1.992,12.753,12.753,0,0,1-.586,2.555,9.572,9.572,0,0,1-1.383,2.719A2.533,2.533,0,0,1,17.883,28.758Zm4.125-7.172a2.3,2.3,0,0,1-1.875-1.758l.469-.3c.117,0,.164-.117.164-.328a3.264,3.264,0,0,0-.492-1.383c.211-.492.422-.727.633-.727.352,0,.656.516.867,1.523a10.559,10.559,0,0,1,.258,2.344Zm14.32,8.039a3.859,3.859,0,0,0,2.578-1.289,14.09,14.09,0,0,0,2.156-3.328A38.394,38.394,0,0,0,42.7,21.3l-.7-.258a33.679,33.679,0,0,1-3.117,6.234,4.707,4.707,0,0,1-1.617,1.359,2.31,2.31,0,0,1-.891.164h-.211l-.187-.023c-.609-.328-.914-1.148-.914-2.437a12.252,12.252,0,0,1,2.086-6.516,1.9,1.9,0,0,0,.281-.516c0-.281-.328-.633-.961-1.078a2.361,2.361,0,0,0-1.219-.492c-.187,0-.375.141-.562.4a7.4,7.4,0,0,0-.539.961,3.484,3.484,0,0,0-2.672-.937,3.688,3.688,0,0,0-2.133.633,5.54,5.54,0,0,0-2.016,2.484,7.592,7.592,0,0,0-.562,2.672,2.862,2.862,0,0,0,1.43,2.859l.094.047a1.263,1.263,0,0,0,.516.07,1.961,1.961,0,0,0,.7-.164A17.982,17.982,0,0,0,33,23.109c-.023.328-.047.68-.047,1.008a10.064,10.064,0,0,0,.3,2.508,4.378,4.378,0,0,0,1.43,2.508l.047.023A2.778,2.778,0,0,0,36.328,29.625ZM29.2,25.992c-.07,0-.094-.047-.094-.164a4.637,4.637,0,0,1,.586-1.617v-.023q.6-1.266,1.055-2.32a16.073,16.073,0,0,1,1.008-2.086c.281-.469.563-.7.867-.7a1.539,1.539,0,0,1,1.172.773,11.585,11.585,0,0,0-.539,1.664q-.949,1.266-2.039,2.531C30.094,25.336,29.414,25.992,29.2,25.992Zm23.086,8.18a3.185,3.185,0,0,0,.891-.141c1.688-.656,3.469-2.906,5.32-6.773.8-1.711,1.641-3.609,2.508-5.742l-.68-.281-.4.961c-.586,1.406-1.266,2.906-1.992,4.477a31.082,31.082,0,0,1-2.391,4.242A6.192,6.192,0,0,1,52.969,33.3a2.09,2.09,0,0,1-.516.07c-1.031,0-1.547-1.266-1.547-3.844a38.915,38.915,0,0,1,.586-6.117c.258-1.687.516-3.141.75-4.383.07-.4.141-.75.188-1.055a17.84,17.84,0,0,0,5.18-5.484,17.375,17.375,0,0,0,2.156-5.133,18.982,18.982,0,0,0,.4-3.094,2.69,2.69,0,0,0-1.289-2.648,2.015,2.015,0,0,0-.914-.211,4.028,4.028,0,0,0-2.7,1.477,19.216,19.216,0,0,0-3.727,6.094,41.51,41.51,0,0,0-2.6,9.563,1.88,1.88,0,0,0-.609-.516,4.035,4.035,0,0,0-1.875-.469,3.517,3.517,0,0,0-1.453.3,6.523,6.523,0,0,0-2.766,2.391,8.178,8.178,0,0,0-1.43,3.094,11.393,11.393,0,0,0-.281,2.086,7.4,7.4,0,0,0,.445,2.484A2.13,2.13,0,0,0,42.141,29.2h.023a.176.176,0,0,0,.117.023,1.7,1.7,0,0,0,.586.07,4.062,4.062,0,0,0,2.508-1.336,42.532,42.532,0,0,0,3-3.234v.211a21.9,21.9,0,0,0,.445,4.383A9,9,0,0,0,50.2,32.93,2.563,2.563,0,0,0,52.289,34.172Zm.352-17.25A81.788,81.788,0,0,1,54.75,7.8c1.078-3.75,2.2-5.6,3.328-5.6a1.192,1.192,0,0,1,.469.094c.563.328.844,1.1.844,2.25a15,15,0,0,1-1.945,6.68A17.733,17.733,0,0,1,52.641,16.922ZM43.2,28.43a.4.4,0,0,1-.234-.07.364.364,0,0,1-.141-.187v-.187a14.03,14.03,0,0,1,.844-2.906c1.148-3.328,2.25-5.414,3.258-6.281a.947.947,0,0,1,.586-.211c.516,0,.938.375,1.289,1.078-.164,1.289-.3,2.555-.375,3.82a36.78,36.78,0,0,1-3.258,3.633,6.529,6.529,0,0,1-1.641,1.266ZM62.133,29.6c1.523,0,3.352-1.57,5.555-4.711a38.568,38.568,0,0,0,2.133-3.375l-.656-.352c-1.945,3.516-3.844,5.906-5.719,7.219a1.853,1.853,0,0,1-.984.4H62.25a1.141,1.141,0,0,1-.281-.023.919.919,0,0,1-.211-.094l-.094-.047a1.807,1.807,0,0,1-.328-1.219,7.23,7.23,0,0,1,.164-1.453,29.671,29.671,0,0,1,1.125-4.219c.492-1.43.844-2.437,1.1-3.023l.023-.094c0-.3-.422-.609-1.219-.891a3.478,3.478,0,0,0-1.078-.187c-.281,0-.445.07-.539.234a15.927,15.927,0,0,0-1.172,4.523c-.094,1.266-.141,2.086-.141,2.438a7.535,7.535,0,0,0,.867,3.891,2.235,2.235,0,0,0,1.125.867A1.39,1.39,0,0,0,62.133,29.6Zm1.992-14.7a1.688,1.688,0,1,0,0-3.375,1.613,1.613,0,0,0-1.172.492,1.643,1.643,0,0,0,0,2.391A1.613,1.613,0,0,0,64.125,14.906ZM79.078,30.82a3.159,3.159,0,0,0,.984-.187,7.694,7.694,0,0,0,2.953-2.156,24.1,24.1,0,0,0,2.555-3.469,37.492,37.492,0,0,0,1.875-3.375l-.656-.328c-1.8,3.609-3.562,6.117-5.273,7.547a4.017,4.017,0,0,1-2.437,1.219,1.905,1.905,0,0,1-.984-.281.794.794,0,0,1-.352-.68,5.307,5.307,0,0,1,.8-2.016,14.4,14.4,0,0,0,1.477-3.773,9.1,9.1,0,0,0,.117-1.336,4.409,4.409,0,0,0-.3-1.734q-.492-1.23-1.125-1.406l-.047-.023a1.657,1.657,0,0,0-.633-.117,2.422,2.422,0,0,0-1.242.469,17.264,17.264,0,0,0-6.68,6.445,40.941,40.941,0,0,1,2.766-7.148l.023-.094c0-.3-.4-.609-1.148-.937a3.43,3.43,0,0,0-1.148-.258.538.538,0,0,0-.492.188,15.725,15.725,0,0,0-1.687,7.383,14.971,14.971,0,0,0,.352,3.211l.633.3.117-.211a19.185,19.185,0,0,1,7.219-8.016l.3-.094.234-.023q.281,0,.281.352a1.872,1.872,0,0,1-.117.539,1.143,1.143,0,0,0-.07.164A20.891,20.891,0,0,0,75.914,25.5c-.094.844-.141,1.359-.141,1.523a4.114,4.114,0,0,0,1.9,3.375A2.592,2.592,0,0,0,79.078,30.82Zm8.508,10.008a2.829,2.829,0,0,0,1.711-.609,9.063,9.063,0,0,0,2.461-3.258,33.832,33.832,0,0,0,1.875-4.781c.539-1.711.984-3.3,1.383-4.781q.211-.844.422-1.547c1.594-1.1,3.258-2.2,4.969-3.281l1.359-.891-.422-.609c-1.5.938-3.375,2.156-5.6,3.656.984-3.609,1.477-5.508,1.477-5.719a1.108,1.108,0,0,0-.516-.984,1.907,1.907,0,0,0-1.125-.375,1.235,1.235,0,0,0-1.266.914l-.281,1.148c-.3-1.477-1.406-2.227-3.281-2.227a3.5,3.5,0,0,0-1.875.539A5.268,5.268,0,0,0,86.133,22.8c0,2.2,1.219,3.352,3.656,3.422a5.037,5.037,0,0,0,3.141-1.9L92.273,27.3a31.168,31.168,0,0,0-5.461,5.461,10.222,10.222,0,0,0-1.852,3.469,10.265,10.265,0,0,0-.164,1.5,3.192,3.192,0,0,0,.422,1.711,2.509,2.509,0,0,0,.352.516,2.824,2.824,0,0,0,.4.375l.188.141A3.371,3.371,0,0,0,87.586,40.828Zm-.328-.961a1.843,1.843,0,0,1-.539-.047l-.187-.047a2.281,2.281,0,0,1-.984-2.133,6.428,6.428,0,0,1,1.219-3.516,24.276,24.276,0,0,1,5.25-5.625c-.117.539-.258,1.1-.375,1.734-.258,1.289-.539,2.6-.867,3.938a18.622,18.622,0,0,1-1.219,3.563A4.082,4.082,0,0,1,87.8,39.773,1.453,1.453,0,0,1,87.258,39.867Zm2.531-14.391c-.445-.023-.727-.4-.844-1.148v-.047a3.97,3.97,0,0,1,.352-1.359,17.341,17.341,0,0,1,.844-1.781c.3-.586.563-1.031.727-1.312.563-.8,1.031-1.2,1.453-1.2l.141.023c.633.164.938.914.938,2.273a9.121,9.121,0,0,1-.211,1.828,8.546,8.546,0,0,1-1.734,1.9A3.41,3.41,0,0,1,89.789,25.477Z" transform="translate(66 77)"/><circle cx="2.5" cy="2.5" r="2.5" transform="translate(179 100)"/><circle cx="2.5" cy="2.5" r="2.5" transform="translate(191 100)"/><circle cx="2.5" cy="2.5" r="2.5" transform="translate(203 100)"/></g></g></svg>